<svg xmlns="http://www.w3.org/2000/svg">
<defs>
<font id="Denise" horiz-adv-x="225" >
  <font-face 
    font-family="Denise"
    font-weight="400"
    font-stretch="normal"
    units-per-em="2048"
    panose-1="2 0 5 0 0 0 0 0 0 0"
    ascent="1638"
    descent="-410"
    x-height="620.001"
    cap-height="1439"
    bbox="-149.603 -481 2130.84 1729.7"
    underline-thickness="150"
    underline-position="-142"
    unicode-range="U+0020-U+F002"
  />
<missing-glyph horiz-adv-x="1024" 
d="M83 1441c264.667 -50.667 497.329 -78.334 697.996 -83.001c8.66699 4.66699 21.334 7 38.001 7c28 -6.66699 40.333 -22.667 37 -48s-9 -77.333 -17 -156s-15.833 -173 -23.5 -283s-11.167 -177.167 -10.5 -201.5s2.83398 -126.833 6.50098 -307.5
s4.83398 -288.334 3.50098 -323.001c82 -3.33301 106 -18.666 72 -45.999c-161.333 5.33301 -244.666 8 -249.999 8c-445.333 18.667 -657.666 56.334 -636.999 113.001c5.33301 10 8 28.167 8 54.5s7.5 139 22.5 338s27.5 409.5 37.5 631.5
c-4.66699 132 -6.33398 211 -5.00098 237s8 45.667 20 59zM143.995 1366c-6.66699 -141.333 -10.5 -216.668 -11.5 -226.001s-2.66699 -40.166 -5 -92.499s-9 -151.333 -20 -297s-19 -239 -24 -280s-12.167 -152.833 -21.5 -335.5c0 -10.667 76.5 -25.5 229.5 -44.5
s311.167 -33.833 474.5 -44.5c0 30 -3 91.667 -9 185s-8.5 184.333 -7.5 273s1.5 155.167 1.5 199.5s7.66699 239.5 23 585.5c-106.667 10.667 -228 22 -364 34s-224.667 26.333 -266 43zM462.995 1198c166 -18 199.169 -108.669 99.502 -272.002
s-152.667 -258.666 -159 -285.999s-14.5 -41 -24.5 -41c-20 6.66699 -30 30.167 -30 70.5s50.667 133.166 152 278.499c37.333 86.667 43.166 140.334 17.499 161.001s-54.334 28 -86.001 22s-54.167 -38.667 -67.5 -98s-29.5 -83.166 -48.5 -71.499
s-30.833 27.5 -35.5 47.5c12 114.667 72.667 177.667 182 189zM424.997 454.996c26.667 0 34.5 -15.167 23.5 -45.5s-24.667 -45.5 -41 -45.5s-30.833 15.333 -43.5 46c10.667 30 31 45 61 45z" />
    <glyph glyph-name=".notdef" horiz-adv-x="1024" 
d="M83 1441c264.667 -50.667 497.329 -78.334 697.996 -83.001c8.66699 4.66699 21.334 7 38.001 7c28 -6.66699 40.333 -22.667 37 -48s-9 -77.333 -17 -156s-15.833 -173 -23.5 -283s-11.167 -177.167 -10.5 -201.5s2.83398 -126.833 6.50098 -307.5
s4.83398 -288.334 3.50098 -323.001c82 -3.33301 106 -18.666 72 -45.999c-161.333 5.33301 -244.666 8 -249.999 8c-445.333 18.667 -657.666 56.334 -636.999 113.001c5.33301 10 8 28.167 8 54.5s7.5 139 22.5 338s27.5 409.5 37.5 631.5
c-4.66699 132 -6.33398 211 -5.00098 237s8 45.667 20 59zM143.995 1366c-6.66699 -141.333 -10.5 -216.668 -11.5 -226.001s-2.66699 -40.166 -5 -92.499s-9 -151.333 -20 -297s-19 -239 -24 -280s-12.167 -152.833 -21.5 -335.5c0 -10.667 76.5 -25.5 229.5 -44.5
s311.167 -33.833 474.5 -44.5c0 30 -3 91.667 -9 185s-8.5 184.333 -7.5 273s1.5 155.167 1.5 199.5s7.66699 239.5 23 585.5c-106.667 10.667 -228 22 -364 34s-224.667 26.333 -266 43zM462.995 1198c166 -18 199.169 -108.669 99.502 -272.002
s-152.667 -258.666 -159 -285.999s-14.5 -41 -24.5 -41c-20 6.66699 -30 30.167 -30 70.5s50.667 133.166 152 278.499c37.333 86.667 43.166 140.334 17.499 161.001s-54.334 28 -86.001 22s-54.167 -38.667 -67.5 -98s-29.5 -83.166 -48.5 -71.499
s-30.833 27.5 -35.5 47.5c12 114.667 72.667 177.667 182 189zM424.997 454.996c26.667 0 34.5 -15.167 23.5 -45.5s-24.667 -45.5 -41 -45.5s-30.833 15.333 -43.5 46c10.667 30 31 45 61 45z" />
    <glyph glyph-name="space" unicode=" " horiz-adv-x="508" 
 />
    <glyph glyph-name="space" unicode="&#xa0;" horiz-adv-x="508" 
 />
    <glyph glyph-name="exclam" unicode="!" horiz-adv-x="340" 
d="M205 1434c34.667 13.333 54.999 -30 60.999 -130c0 -24.667 -4.5 -108.334 -13.5 -251.001s-15.667 -277 -20 -403s-5 -232.333 -2 -319s-2.83301 -124 -17.5 -112c-43.333 36 -66.166 86.833 -68.499 152.5s-2.5 151.334 -0.5 257.001s3 170.5 3 194.5v89.5v386.5
c6 81.333 25.333 126.333 58 135zM177.999 67c38 0 62.667 -13.333 74 -40v-21c-14 -23.333 -34.333 -39 -61 -47c-40.667 9.33301 -61 29.666 -61 60.999c0 14.667 16 30.334 48 47.001z" />
    <glyph glyph-name="quotedbl" unicode="&#x22;" horiz-adv-x="385" 
d="M94 1613c30 0 48.332 -10.168 54.999 -30.501s0.333984 -73.166 -18.999 -158.499s-38.333 -132 -57 -140s-26.334 -4.66699 -23.001 10c14.667 22 25 51.333 31 88s7.66699 67.5 5 92.5s-13.167 52.333 -31.5 82s-5.16602 48.5 39.501 56.5zM254.999 1587
c54.667 12 72.667 -31.999 54 -131.999c-28.667 -184.667 -51.667 -257 -69 -217c10 66.667 13.333 126.167 10 178.5s-15 96.166 -35 131.499c0 26 13.333 39 40 39z" />
    <glyph glyph-name="numbersign" unicode="#" horiz-adv-x="1373" 
d="M463 1006c39.333 -6 59.3359 -22.667 60.0029 -50s-5.66602 -108.666 -18.999 -243.999c122.667 -8 206.334 -12 251.001 -12c0 44 0.833008 79.5 2.5 106.5s2.66699 57.667 3 92s16.666 47.666 48.999 39.999s46.166 -91.834 41.499 -252.501
c101.333 10.667 212.5 14.667 333.5 12s171.167 -17.834 150.5 -45.501s-46.334 -42 -77.001 -43s-66.667 -1.5 -108 -1.5s-97 -1.66699 -167 -5s-113 -5 -129 -5c-8 -73.333 -11 -123 -9 -149c85.333 0 179.666 -3.16699 282.999 -9.5s164 -16.666 182 -30.999
s5.33301 -31.166 -38 -50.499h-450c-2.66699 -50 -8.16699 -98.167 -16.5 -144.5l-25.5 -138.5c-8.66699 -46 -39.667 -65 -93 -57l-8 16c27.333 190 41 303 41 339c-71.333 16 -158 18.667 -260 8c-77.333 -216.667 -142.666 -321.667 -195.999 -315
c-17.333 -2 -12.666 29.333 14.001 94s46.667 137.667 60 219c-138.667 4 -201.334 14 -188.001 30c-24.667 44 43.666 63.667 204.999 59c15.333 92 21.666 143.333 18.999 154c-45.333 -2.66699 -113.666 3.33301 -204.999 18s-137.333 24.667 -138 30
c-12.667 44.667 -0.833984 70 35.499 76s144.5 -7.33301 324.5 -40c4 32.667 6 78.667 6 138c18.667 114 40.667 168 66 162zM473.003 473c96.667 -10 187 -13.665 271 -10.998c0 24 1.33301 48.667 4 74s4 50.666 4 75.999l-261 4
c-5.33301 -38.667 -11.333 -86.334 -18 -143.001z" />
    <glyph glyph-name="dollar" unicode="$" horiz-adv-x="860" 
d="M312 1437c68 30 107.003 -30.001 117.003 -180.001c39.333 -5.33301 82.666 -16.166 129.999 -32.499s75.666 -50.5 84.999 -102.5c0 -23.333 -7.16699 -33.333 -21.5 -30s-39 16.333 -74 39s-71.167 30 -108.5 22c22.667 -96.667 35.167 -156.834 37.5 -180.501
s0.5 -122.834 -5.5 -297.501c91.333 -28 167.666 -58 228.999 -90s110.666 -80.167 147.999 -144.5s52 -149.833 44 -256.5s-56 -184 -144 -232s-196.667 -64 -326 -48c0 -36 22.667 -111.667 68 -227c0 -4.66699 -9 -11.667 -27 -21c-58.667 18 -94.667 55.833 -108 113.5
s-21.666 105.5 -24.999 143.5c-49.333 8 -107.833 38 -175.5 90s-116.167 113.333 -145.5 184c20 78.667 51.333 93.667 94 45c26.667 -69.333 65.5 -120.666 116.5 -153.999s89.5 -51.333 115.5 -54c34 180.667 51.667 372.334 53 575.001
c-89.333 40 -154.833 78.333 -196.5 115s-69.5 92.334 -83.5 167.001s-8.16699 142.667 17.5 204s72.167 107.666 139.5 138.999c28.667 12.667 55.667 21.667 81 27c-16.667 58.667 -34.667 112 -54 160c-8 8 -1.66699 16.667 19 26zM192.003 968.999
c10.667 -64 32.001 -117.333 64.001 -160s79 -74.667 141 -96c0 78.667 -1.33301 147.5 -4 206.5s-16.334 137.167 -41.001 234.5c-90.667 -27.333 -144 -89 -160 -185zM483.004 507.999c-4 -135.333 -17.333 -308.668 -40 -520.001c60.667 -12 135.5 1.66699 224.5 41
s130.833 105 125.5 197s-32.833 159.333 -82.5 202s-124.167 89.334 -223.5 140.001c1.33301 -16.667 0 -36.667 -4 -60z" />
    <glyph glyph-name="percent" unicode="%" horiz-adv-x="1155" 
d="M1045 1438c52 -10 72 -30.167 60 -60.5s-47.667 -74.166 -107 -131.499s-131.833 -148.666 -217.5 -273.999s-193 -290.833 -322 -496.5l-316.5 -507.5c-36 -42.667 -60.833 -65.834 -74.5 -69.501s-20.5 22.166 -20.5 77.499l-2 60
c89.333 116.667 173.5 237.667 252.5 363l188 306c46.333 78.667 94.5 155.167 144.5 229.5l193.5 279c79 111.667 152.833 186.5 221.5 224.5zM304 1019c58.667 -16 87.168 -52.668 85.501 -110.001s-29.834 -80.833 -84.501 -70.5s-84 45.333 -88 105s25 84.834 87 75.501
zM859.001 446.999c83.333 -5.33301 122.833 -36.1689 118.5 -92.502s-37.833 -82.166 -100.5 -77.499s-86 46.334 -70 125.001c30.667 30 48 45 52 45z" />
    <glyph glyph-name="ampersand" unicode="&#x26;" horiz-adv-x="821" 
d="M528 1443c144 -6 230.999 -38.999 260.999 -98.999s22.333 -140.833 -23 -242.5s-132.333 -210 -261 -325s-195 -176.833 -199 -185.5c40.667 -80.667 107 -188.334 199 -323.001c52.667 60.667 136 106.667 250 138c36 -4 24 -20.667 -36 -50
c-77.333 -42.667 -131 -88 -161 -136c52 -41.333 109.833 -84 173.5 -128s87.167 -79.333 70.5 -106c-33.333 -16 -137.666 40.667 -312.999 170c-79.333 -86 -152 -139.833 -218 -161.5s-128.5 -7.5 -187.5 42.5s-85.833 115.333 -80.5 196s25.833 150.667 61.5 210
s78.5 117.333 128.5 174c-57.333 154 -79.5 289.833 -66.5 407.5s56.333 216 130 295s164.167 120.167 271.5 123.5zM216.999 949.001c-1.33301 -92 19.3359 -184.668 62.0029 -278.001c264 247.333 407.333 419 430 515s-3.83301 151.833 -79.5 167.5
s-137.834 16.834 -186.501 3.50098s-94.334 -50.5 -137.001 -111.5s-72.334 -159.833 -89.001 -296.5zM93.001 237c-6.66699 -72 14.833 -117.501 64.5 -136.501s96 -17.333 139 5s89.167 56.833 138.5 103.5c-93.333 114.667 -159.333 227.334 -198 338.001
c-80 -98 -128 -201.333 -144 -310z" />
    <glyph glyph-name="quotesingle" unicode="'" horiz-adv-x="224" 
d="M184 1280c55.333 -22.667 54.499 -58.4971 -2.50098 -107.497s-83.5 -91.333 -79.5 -127s39.667 -73.5 107 -113.5c9.33301 -44.667 -14 -51.334 -70 -20.001s-91 67.166 -105 107.499s-7.16699 92.166 20.5 155.499s70.834 98.333 129.501 105z" />
    <glyph glyph-name="parenleft" unicode="(" horiz-adv-x="679" 
d="M641 1435c113.333 10 106.999 -29.667 -19.001 -119c-228 -149.333 -396 -367.666 -504 -654.999c-22.667 -153.333 -25.667 -278.5 -9 -375.5s45.667 -193.167 87 -288.5s104.833 -130.833 190.5 -106.5s131.167 19.333 136.5 -15s-56.334 -66.166 -185.001 -95.499
c-101.333 0 -180.666 69 -237.999 207s-90.666 298.333 -99.999 481c6.66699 189.333 54 350.666 142 483.999s190.5 249.666 307.5 348.999s180.833 144 191.5 134z" />
    <glyph glyph-name="parenright" unicode=")" horiz-adv-x="653" 
d="M15 1428c46.667 8.66699 123.833 -35.166 231.5 -131.499s201.334 -216.833 281.001 -361.5s115.667 -289.667 108 -435s-39.167 -269 -94.5 -371s-115.833 -184.833 -181.5 -248.5s-121.334 -98.834 -167.001 -105.501s-73.167 3 -82.5 29l12 24
c98 4.66699 202.167 115.167 312.5 331.5s126.666 422.5 48.999 618.5s-172.667 341 -285 435s-178.666 140 -198.999 138s-29.833 7 -28.5 27s16 36.667 44 50z" />
    <glyph glyph-name="asterisk" unicode="*" horiz-adv-x="674" 
d="M178 1434c34 0 94.335 -81.333 181.002 -244c54 68.667 127.333 130.667 220 186c46 6.66699 36 -21.5 -30 -84.5s-103 -100.5 -111 -112.5c1.33301 0 36.666 -0.5 105.999 -1.5s110.5 -6.83301 123.5 -17.5s-5.16699 -22.834 -54.5 -36.501s-111 -27.167 -185 -40.5
l120 -191.5c34.667 -56.333 51.667 -92.833 51 -109.5s-7.16699 -25 -19.5 -25s-47.166 37.167 -104.499 111.5s-99 134.5 -125 180.5l-167 -141.5c-46 -39 -79.333 -59.167 -100 -60.5s-33.334 9.33398 -38.001 32.001l192 184c-74.667 -6 -132.334 -5 -173.001 3
s-59.667 19.333 -57 34s89 32.667 259 54c0 32 -19.667 77.667 -59 137s-57.5 96 -54.5 110s11.5 25 25.5 33z" />
    <glyph glyph-name="plus" unicode="+" horiz-adv-x="635" 
d="M256 578c26 0 41.0039 -18.3311 45.0039 -54.998v-153c13.333 -10 70.166 -18.667 170.499 -26s150.5 -21.666 150.5 -42.999s-14.667 -34 -44 -38s-77.833 -4.83301 -145.5 -2.5s-113.834 5.5 -138.501 9.5c-5.33301 -30 -8 -59.667 -8 -89s-1.83301 -69.5 -5.5 -120.5
s-11.834 -76.5 -24.501 -76.5c-49.333 21.333 -68.333 113.666 -57 276.999c2 0 -29 5.5 -93 16.5s-96.5 26.167 -97.5 45.5s15.667 32 50 38s68.166 8.16699 101.499 6.5s50 4.16602 50 17.499s-0.833008 41.166 -2.5 83.499s12.833 78.833 43.5 109.5h5z" />
    <glyph glyph-name="comma" unicode="," horiz-adv-x="371" 
d="M269 121c49.333 -12 71.6631 -34.333 66.9961 -67c-56.667 -107.333 -122.667 -222 -198 -344s-105.666 -146.5 -90.999 -73.5s29.334 131.5 44.001 175.5s39.834 106.5 75.501 187.5s69.834 121.5 102.501 121.5z" />
    <glyph glyph-name="glyph16" unicode="-" horiz-adv-x="718" 
d="M85 342c160 -6.66699 289 -14.167 387 -22.5s158.667 -11.5 182 -9.5s34 -10 32 -36s-72.667 -33.667 -212 -23s-248.333 8.66699 -327 -6s-121.167 -2.16699 -127.5 37.5s15.5 59.5 65.5 59.5z" />
    <glyph glyph-name="glyph16" unicode="&#xad;" horiz-adv-x="718" 
d="M85 342c160 -6.66699 289 -14.167 387 -22.5s158.667 -11.5 182 -9.5s34 -10 32 -36s-72.667 -33.667 -212 -23s-248.333 8.66699 -327 -6s-121.167 -2.16699 -127.5 37.5s15.5 59.5 65.5 59.5z" />
    <glyph glyph-name="period" unicode="." horiz-adv-x="380" 
d="M202 142c40 6 60.001 -18.167 60.001 -72.5s-23.333 -78.5 -70 -72.5c-34.667 0 -59.834 19 -75.501 57s-4.16699 69.333 34.5 94z" />
    <glyph glyph-name="slash" unicode="/" horiz-adv-x="948" 
d="M914 1446c59.333 -13.333 80.332 -32.4971 62.999 -57.4971s-99 -170.833 -245 -437.5s-270.5 -484.334 -373.5 -653.001s-174.667 -293.167 -215 -373.5s-73.666 -119.5 -99.999 -117.5s-39.5 15.667 -39.5 41c36 125.333 131.833 327.666 287.5 606.999
s296.5 516.666 422.5 711.999s192.667 288.333 200 279z" />
    <glyph glyph-name="zero" unicode="0" horiz-adv-x="974" 
d="M551 1421c138.667 -8 241.167 -61.1699 307.5 -159.503s88.833 -259.666 67.5 -483.999s-77.833 -411.666 -169.5 -561.999s-213.167 -229.166 -364.5 -236.499c-98 2 -180.667 66.5 -248 193.5s-97 294.333 -89 502s52.333 383.5 133 527.5s201.667 217 363 219z
M180 443.997c38.667 -210 109.336 -323.667 212.003 -341c102.667 0 191.5 47.167 266.5 141.5s125.5 265.833 151.5 514.5c17.333 295.333 -29.834 472 -141.501 530s-225.334 24.833 -341.001 -99.5s-164.834 -372.833 -147.501 -745.5z" />
    <glyph glyph-name="one" unicode="1" horiz-adv-x="961" 
d="M887 1448c62 4 79 -66.0029 51 -210.003s-43.5 -228.5 -46.5 -253.5s-6.83301 -75.167 -11.5 -150.5s-7.66699 -177.333 -9 -306s5.5 -236.334 20.5 -323.001s22.5 -133 22.5 -139c-8 -42 -20 -63 -36 -63c-43.333 1.33301 -81.333 54.333 -114 159
c-18 148.667 -24.667 291.834 -20 429.501s22.667 305.5 54 503.5c-18 -90 -160 -355.667 -426 -797c-119.333 -109.333 -217.166 -157.166 -293.499 -143.499s-77 33.334 -2 59.001s155.667 102.834 242 231.501s175.666 273.167 267.999 433.5s154.5 276.5 186.5 348.5
s70 145.667 114 221z" />
    <glyph glyph-name="two" unicode="2" horiz-adv-x="933" 
d="M622 1432c102.667 4.66699 181.334 -30.1689 236.001 -104.502s51.334 -197.166 -9.99902 -368.499s-184 -396.333 -368 -675c46 -117.333 97 -173 153 -167s84 4.33301 84 -5c-14 -12 -48 -30.333 -102 -55s-122 19.333 -204 132
c-102.667 -144 -187.834 -214.333 -255.501 -211s-110 48 -127 134s5.5 181.167 67.5 285.5s127 162.166 195 173.499s113 -43.667 135 -165l218 367c47.333 78.667 89.666 169.834 126.999 273.501s29.833 179.834 -22.5 228.501s-107 68.167 -164 58.5
s-92.667 -43 -107 -100s-9.83301 -112.5 13.5 -166.5s10.333 -90 -39 -108s-81.833 18 -97.5 108s4.5 175.667 60.5 257s125 117.333 207 108zM104 192.997c29.333 -124 91.333 -123 186 3c44 54 64.333 94.667 61 122c-22 130.667 -63.333 164 -124 100
c-53.333 -37.333 -94.333 -112.333 -123 -225z" />
    <glyph glyph-name="three" unicode="3" horiz-adv-x="930" 
d="M564 1437c110.667 4.66699 194.166 -23.8379 250.499 -85.5049s67.333 -131.167 33 -208.5s-109.5 -172.666 -225.5 -285.999c178 -56.667 276.333 -158.667 295 -306s-6.66602 -264 -75.999 -350s-160 -145.5 -272 -178.5s-212.5 -36 -301.5 -9
s-155.833 66.833 -200.5 119.5s-64.334 108.167 -59.001 166.5s14 87.833 26 88.5c59.333 6.66699 88.333 -32 87 -116c60 -86 123.167 -135.167 189.5 -147.5s127.5 -14.833 183.5 -7.5s122.167 42.5 198.5 105.5s112 164.833 107 305.5s-136.833 236.334 -395.5 287.001
c-12 16.667 7 38.334 57 65.001s115.167 85.667 195.5 177s111 162.333 92 213s-75.5 79 -169.5 85c-167.333 -10 -223.666 -63.667 -168.999 -161c-44 -12 -78.5 -9.66699 -103.5 7s-34.5 49.834 -28.5 99.501s34 83.334 84 101.001s117.333 29.5 202 35.5z" />
    <glyph glyph-name="four" unicode="4" horiz-adv-x="793" 
d="M423 1441c16.667 -12.667 38.665 -31.335 65.998 -56.002c-5.33301 -69.333 -49.5 -176 -132.5 -320s-144.5 -254.667 -184.5 -332s-10.667 -118.666 88 -123.999s200 -13.333 304 -24c0 30.667 4.66699 86.5 14 167.5s54.333 94.5 135 40.5
c-39.333 -166.667 -61.666 -275.167 -66.999 -325.5s-10.333 -117.666 -15 -201.999s-4.16699 -137.666 1.5 -159.999s8.5 -41.666 8.5 -57.999s-24.167 -25.333 -72.5 -27s-70.5 34.5 -66.5 108.5c24.667 175.333 39 291.333 43 348
c-9.33301 0 -92.666 4.66699 -249.999 14s-239.5 52.166 -246.5 128.499s12.833 161.166 59.5 254.499s90.667 172.666 132 237.999s77.5 131.833 108.5 199.5s55.833 110.834 74.5 129.501z" />
    <glyph glyph-name="five" unicode="5" horiz-adv-x="1275" 
d="M430 1422c85.333 -12.667 185.331 -19.002 299.998 -19.002s199.5 0.166992 254.5 0.5s113.5 4 175.5 11s93 -0.166992 93 -21.5c-35.333 -38.667 -91.166 -62 -167.499 -70s-185.333 -14 -327 -18s-242.5 0.333008 -302.5 13s-91 -35.666 -93 -144.999s43 -194 135 -254
s188.5 -136 289.5 -228s155.667 -193.667 164 -305s-43.167 -220.666 -154.5 -327.999c-124 -77.333 -267 -102.5 -429 -75.5s-262.5 97.167 -301.5 210.5s-15.5 146 70.5 98c24.667 -95.333 93.5 -161.333 206.5 -198s211.5 -40 295.5 -10s144.167 82.167 180.5 156.5
s36.333 152.5 0 234.5s-140.166 184.167 -311.499 306.5s-257 219.833 -257 292.5c-4 144 12.167 240 48.5 288s79.833 68.333 130.5 61z" />
    <glyph glyph-name="six" unicode="6" horiz-adv-x="847" 
d="M688 1441c56 -20 61.0049 -55.499 15.0049 -106.499s-116.667 -121.667 -212 -212s-174.333 -201.166 -237 -332.499s-94 -252.833 -94 -364.5s48.167 -199.334 144.5 -263.001s179.666 -76.667 249.999 -39s119.5 105.334 147.5 203.001s-77.667 151.167 -317 160.5
c-4 -68 -18.167 -90.333 -42.5 -67s-31.833 56.666 -22.5 99.999s92.666 51.833 249.999 25.5s236 -88.5 236 -186.5s-35.833 -183 -107.5 -255s-146.834 -110.667 -225.501 -116c-155.333 -4 -271.833 51.167 -349.5 165.5s-106.167 238.5 -85.5 372.5
s60.667 248.5 120 343.5s150.166 209.167 272.499 342.5s208.166 209.666 257.499 228.999z" />
    <glyph glyph-name="seven" unicode="7" horiz-adv-x="905" 
d="M528 1439c131.333 7.33301 231.169 -22.833 299.502 -90.5s89.833 -159 64.5 -274s-85.5 -254 -180.5 -417l-286.5 -486.5c-96 -161.333 -149.333 -216.666 -160 -165.999c-5.33301 26.667 12 86.5 52 179.5s110.333 230.167 211 411.5l-105 8
c-201.333 4.66699 -299 24.167 -293 58.5s22 53.333 48 57s60.167 4 102.5 1s84.666 -5.66699 126.999 -8l166.5 -9.5c60 74.667 110.167 153.5 150.5 236.5s57.666 165.5 51.999 247.5s-78.667 132.333 -219 151s-298.5 -80.333 -474.5 -297c-36.667 24.667 -50 62 -40 112
c146 183.333 307.667 278.666 485 285.999z" />
    <glyph glyph-name="eight" unicode="8" horiz-adv-x="981" 
d="M498 1447c103.333 -20 166.665 -81.666 189.998 -184.999c42.667 26.667 94.834 40 156.501 40s95.167 -52.667 100.5 -158c-9.33301 -101.333 -134.666 -285 -375.999 -551c166.667 -116.667 250 -202.667 250 -258c-6 -200.667 -185.667 -312.334 -539 -335.001
c-161.333 0 -236.333 46.167 -225 138.5s44 174.666 98 246.999s133.667 141.5 239 207.5c-39.333 41.333 -95.833 111.666 -169.5 210.999s-107 195.333 -100 288s44.333 176.834 112 252.501s155.5 109.834 263.5 102.501zM262.999 1198
c-48.667 -152.667 16.668 -328 196.001 -526c67.333 37.333 154.666 131 261.999 281c68 101.333 96.5 169.5 85.5 204.5s-40 35 -87 0s-81.167 -47.167 -102.5 -36.5c-8 27.333 -29.333 83.333 -64 168c-96 100 -192.667 69.667 -290 -91zM185.001 202.001
c-16.667 -81.333 53.835 -112.001 211.502 -92.001s247.5 63.667 269.5 131c47.333 100.667 -17.334 194 -194.001 280c-158.667 -59.333 -254.334 -165.666 -287.001 -318.999z" />
    <glyph glyph-name="nine" unicode="9" horiz-adv-x="1161" 
d="M684 1427c160 12 276.332 -99.665 348.999 -334.998l47 73c32.667 0 52.667 -15.333 60 -46l-39 -134c-8 -68 -18.5 -174.5 -31.5 -319.5s-50.667 -280.333 -113 -406s-144.666 -202.667 -246.999 -231s-214 -25.833 -335 7.5s-213.667 118.833 -278 256.5
s-79.833 217.834 -46.5 240.501c12.667 0 48.5 -49.833 107.5 -149.5s123.5 -172.834 193.5 -219.501s158.667 -60.334 266 -41.001s193.833 94.833 259.5 226.5s93.5 325.167 83.5 580.5c-148.667 -66 -263 -88.333 -343 -67s-141 71.666 -183 150.999s-45.333 168 -10 266
s122 147 260 147zM500.999 1176c6 -100 48.5 -168 127.5 -204s183.833 -16.333 314.5 59c-20 89.333 -55 165 -105 227s-117.167 89.5 -201.5 82.5s-129.5 -61.833 -135.5 -164.5z" />
    <glyph glyph-name="colon" unicode=":" horiz-adv-x="351" 
d="M181 518c46 0 72.667 -15.833 80 -47.5s-16 -50.167 -70 -55.5s-83 13.667 -87 57c0 18 25.667 33.333 77 46zM176 129c22.667 0 38.999 -29.333 48.999 -88c-10.667 -32.667 -36 -45.667 -76 -39s-53.167 29.5 -39.5 68.5s35.834 58.5 66.501 58.5z" />
    <glyph glyph-name="semicolon" unicode=";" horiz-adv-x="345" 
d="M284 502c41.333 -11.333 57.5 -28.5 48.5 -51.5s-30.833 -30.5 -65.5 -22.5s-52 20.667 -52 38s23 29.333 69 36zM227 228c66.667 -17.333 62.333 -89.5 -13 -216.5s-126.666 -211 -153.999 -252s-44 -46.5 -50 -16.5c55.333 132.667 96.666 246.667 123.999 342
s58.333 143 93 143z" />
    <glyph glyph-name="semicolon" unicode="&#x37e;" horiz-adv-x="345" 
d="M284 502c41.333 -11.333 57.5 -28.5 48.5 -51.5s-30.833 -30.5 -65.5 -22.5s-52 20.667 -52 38s23 29.333 69 36zM227 228c66.667 -17.333 62.333 -89.5 -13 -216.5s-126.666 -211 -153.999 -252s-44 -46.5 -50 -16.5c55.333 132.667 96.666 246.667 123.999 342
s58.333 143 93 143z" />
    <glyph glyph-name="less" unicode="&#x3c;" horiz-adv-x="1006" 
d="M953 594c62.667 -42.667 -28.002 -96.498 -272.002 -161.498s-412.667 -113.167 -506 -144.5c268.667 -113.333 470.834 -187.166 606.501 -221.499s208.834 -71.5 219.501 -111.5c-19.333 -30 -97 -26.833 -233 9.5s-290.167 91.166 -462.5 164.499
s-258.5 129.666 -258.5 168.999s127.167 94.5 381.5 165.5l442.5 123.5c40.667 11.333 68 13.666 82 6.99902z" />
    <glyph glyph-name="equal" unicode="=" horiz-adv-x="806" 
d="M680 531l42 -9.00098c42.667 -47.333 -28.833 -81.166 -214.5 -101.499l-361 -40c-55 -6.33301 -82.5 7.16699 -82.5 40.5s205.333 70 616 110zM717 204.999c39.333 -30 -25.834 -51.667 -195.501 -65s-287.167 -20 -352.5 -20s-99.666 16 -102.999 48
s49.167 48.833 157.5 50.5s211.5 6.16699 309.5 13.5s159.333 -1.66699 184 -27z" />
    <glyph glyph-name="greater" unicode="&#x3e;" horiz-adv-x="1078" 
d="M253 779c188.667 -141.333 363.001 -241.997 523.001 -301.997s256.333 -118 289 -174c-4.66699 -34 -44.167 -74.833 -118.5 -122.5s-214.5 -82.834 -420.5 -105.501s-334.5 -22.667 -385.5 0s-83.833 46.334 -98.5 71.001c0 14.667 43.333 17.667 130 9
s173.334 -10 260.001 -4s185.167 21 295.5 45s191.166 58 242.499 102c-72.667 35.333 -158.834 72.666 -258.501 111.999s-210.5 97.666 -332.5 174.999s-184.667 124.5 -188 141.5s-3 31.167 1 42.5s24.333 14.666 61 9.99902z" />
    <glyph glyph-name="question" unicode="?" horiz-adv-x="752" 
d="M288 1427l40.002 -0.000976562c214 12.667 340.833 -27.833 380.5 -121.5s29 -182.5 -32 -266.5s-142.5 -169 -244.5 -255s-158.333 -144.167 -169 -174.5s-0.833984 -61.666 29.499 -93.999s70.5 -71.833 120.5 -118.5c-16.667 -36 -56.5 -41.5 -119.5 -16.5
s-104.5 77.5 -124.5 157.5s23 161.667 129 245s191 166.5 255 249.5s89.667 154.5 77 214.5s-86.834 91.833 -222.501 95.5s-227.667 -29.5 -276 -99.5s-86.833 -72 -115.5 -6c49.333 96.667 140 160 272 190zM376.002 118.999c56 0 77.499 -20.999 64.499 -62.999
s-35 -59.5 -66 -52.5s-43.167 27.167 -36.5 60.5s19.334 51.666 38.001 54.999z" />
    <glyph glyph-name="at" unicode="@" horiz-adv-x="1607" 
d="M783 1107c204.667 -28 374.999 -90.333 510.999 -187s217 -202.834 243 -318.501s30.833 -224.5 14.5 -326.5s-63.833 -192.667 -142.5 -272s-168.834 -107.333 -270.501 -84s-174.5 79.666 -218.5 168.999l-61 -54l-48 -20l-71 -19c-178 -6 -240.333 129 -187 405
c43.333 179.333 148 241.166 314 185.499s240.333 -125.167 223 -208.5c-23.333 -89.333 -44 -148.5 -62 -177.5s4.5 -70.667 67.5 -125s120.5 -71.333 172.5 -51s98.167 64.333 138.5 132s58.333 156.667 54 267s-46 218.5 -125 324.5s-242.5 188.333 -490.5 247
s-422.667 11.334 -524 -141.999s-140.666 -317.833 -117.999 -493.5s86.834 -313.167 192.501 -412.5s205.834 -166.166 300.501 -200.499s203 -51.5 325 -51.5c50 0 49 -15 -3 -45s-139.5 -34.833 -262.5 -14.5s-236.667 72 -341 155s-191 187.833 -260 314.5
s-86.833 284.834 -53.5 474.501s105.166 334 215.499 433s265.833 130.833 466.5 95.5zM617.999 353c-12 -174 16.166 -259.501 84.499 -256.501s139.333 55.333 213 157s81 165.334 22 191.001s-122.167 44.834 -189.5 57.501
c-71.333 -12.667 -114.666 -62.334 -129.999 -149.001z" />
    <glyph glyph-name="A" unicode="A" horiz-adv-x="1193" 
d="M838 1437c51.333 -5.33301 93.501 -25.333 126.501 -60s59.167 -80.334 78.5 -137.001s34.166 -121.667 44.499 -195s14.5 -151.333 12.5 -234v-55c0 -16.667 -0.666992 -31.667 -2 -45c-3.33301 -54 -7.33301 -107 -12 -159s-10 -94.333 -16 -127
c14.667 -4.66699 33.667 -7 57 -7c41.333 0 91.333 7.33301 150 22l-14 -24c-28 -34 -97.333 -61.333 -208 -82c-35.333 -129.333 -53 -219 -53 -269c0 -14.667 1 -31 3 -49s4.66699 -38 8 -60v-7c0 -10.667 -4 -20.834 -12 -30.501s-19.667 -14.5 -35 -14.5
c-27.333 0 -48.666 52.667 -63.999 158c-5.33301 74.667 9 172.667 43 294c-2.66699 1.33301 -24.334 7 -65.001 17s-108 25.667 -202 47c-19.333 8 -29 17 -29 27c0 6.66699 2.66699 12.834 8 18.501s11.166 12.667 17.499 21s12.833 13.833 19.5 16.5s11.334 4 14.001 4
c25.333 -3.33301 60.166 -10.333 104.499 -21s92.833 -23.334 145.5 -38.001c10.667 74.667 20.667 141 30 199s14 120.333 14 187c0 27.333 -1.83301 58.5 -5.5 93.5l-11 101.5c-3.66699 32.667 -8.16699 64.5 -13.5 95.5s-12 61.167 -20 90.5
c-22.667 56 -41.334 88.667 -56.001 98s-35.334 16 -62.001 20c-48 3.33301 -94.667 -26.667 -140 -90c-63.333 -86 -169.666 -282 -318.999 -588c-145.333 -313.333 -221 -533.666 -227 -660.999c0 -26 3 -48.333 9 -67c-32 -60.667 -54.667 -91 -68 -91
c-9.33301 0 -18.833 5.83301 -28.5 17.5s-18.5 25.5 -26.5 41.5s-14.667 32 -20 48s-8 28 -8 36c0 4 2 13.167 6 27.5s10.833 36 20.5 65s22.667 66 39 111l61.5 165.5c36.667 98 77.334 196 122.001 294s93.667 197.333 147 298c105.333 199.333 185 328.333 239 387
c52.667 58.667 118.334 95.334 197.001 110.001z" />
    <glyph glyph-name="B" unicode="B" horiz-adv-x="1109" 
d="M536 1441c196 20 331.665 10.0029 406.998 -29.9971s111.833 -102.833 109.5 -188.5s-56.833 -170 -163.5 -253l-245 -190.5c68.667 -16.667 135.667 -35 201 -55s127 -56.333 185 -109s89.5 -135.667 94.5 -249s-37.833 -216.5 -128.5 -309.5
s-251.667 -129.5 -483 -109.5c-160.667 15.333 -287.667 77.666 -381 186.999s-134.833 203.333 -124.5 282s25.166 103.667 44.499 75c-2 -76.667 48 -168.834 150 -276.501s256 -163.834 462 -168.501c195.333 11.333 310.833 95.833 346.5 253.5
s-89.5 280.834 -375.5 369.501c-25.333 -240.667 -60 -376.334 -104 -407.001c-62 6.66699 -83 28.834 -63 66.501s42.667 114.167 68 229.5c14.667 191.333 10.667 314.666 -12 369.999s-69 115.666 -139 180.999c25.333 42.667 54.666 64 87.999 64
c46 -22.667 81.333 -64.5 106 -125.5s40.334 -110.833 47.001 -149.5c68.667 40.667 148.667 108.667 240 204s92.833 168.333 4.5 219s-234.166 46.834 -437.499 -11.499s-294 -182.5 -272 -372.5c-57.333 -116.667 -92.166 -126 -104.499 -28s-6.16602 180.333 18.501 247
s78.667 123.5 162 170.5s183 85.167 299 114.5z" />
    <glyph glyph-name="C" unicode="C" horiz-adv-x="1124" 
d="M964 1436c110 -9.33301 169.333 -30.1719 178 -62.5049s-67 -51 -227 -56s-313 -60.833 -459 -167.5s-243 -250.167 -291 -430.5s-60.833 -335 -38.5 -464s62.666 -217.667 120.999 -266s150.333 -76.666 276 -84.999s231.334 3.83398 317.001 36.501
s167.334 70.834 245.001 114.501s106.834 31.5 87.501 -36.5c-76.667 -68 -175.334 -126 -296.001 -174s-248.334 -66.833 -383.001 -56.5s-239 43.833 -313 100.5s-123.667 123.334 -149 200.001s-39.333 175.334 -42 296.001c20.667 293.333 89.5 513.5 206.5 660.5
s234.333 246.5 352 298.5s256.167 82.667 415.5 92z" />
    <glyph glyph-name="D" unicode="D" horiz-adv-x="1185" 
d="M391 1424c86 -8.66699 191.831 -45.999 317.498 -111.999s233.667 -161 324 -285s138 -256.167 143 -396.5s-39.667 -273 -134 -398s-206.5 -204.667 -336.5 -239s-232.333 -46.833 -307 -37.5s-146.334 48.666 -215.001 117.999s-102 147.333 -100 234
c-1.33301 21.333 11 38.666 37 51.999c40.667 -126 102.834 -209.5 186.501 -250.5s184.334 -50.833 302.001 -29.5s227.167 88.666 328.5 201.999c80 94.667 118.667 208.834 116 342.501s-74.667 281.834 -216 444.501s-319 249.334 -533 260.001
c-170.667 -5.33301 -210.667 -80 -120 -224c21.333 -64 -9.66699 -81.667 -93 -53c-18 -6.66699 -46.667 44.666 -86 153.999c-39.333 163.333 89.334 236 386.001 218zM448.998 1208c106.667 6 142.668 -163.169 108.001 -507.502s-70.334 -498.166 -107.001 -461.499h-8
c-21.333 4 -35 18.333 -41 43c48.667 280.667 69.5 500.834 62.5 660.501s-11.833 248.167 -14.5 265.5z" />
    <glyph glyph-name="E" unicode="E" horiz-adv-x="820" 
d="M1121 1462l72.998 -0.00292969c12 -2 18 -8.66699 18 -20v-10c-20 -30 -119.5 -65.667 -298.5 -107s-402.833 -51.666 -671.5 -30.999c-48 -78.667 -89 -240 -123 -484l307 21c30.667 -10.667 52.334 -24 65.001 -40c5.33301 -30 -118.667 -54.667 -372 -74
c-24 -34.667 -30 -122.5 -18 -263.5s44.5 -234.667 97.5 -281s120 -66 201 -59s190.167 32.833 327.5 77.5c38 12 63.667 8.33301 77 -11c22.667 -44.667 -25.666 -84.667 -144.999 -120s-235 -53 -347 -53c-170 -1.33301 -268.5 107.334 -295.5 326.001
s-21.167 423.834 17.5 615.501s78.667 321.5 120 389.5c-77.333 15.333 -117.666 20 -120.999 14c1.33301 63.333 47.666 90 138.999 80c65.333 -32.667 180.5 -49.667 345.5 -51s366.167 25.667 603.5 81z" />
    <glyph glyph-name="F" unicode="F" horiz-adv-x="1128" 
d="M468 1425c963.333 15.333 1415 -18.332 1355 -100.999c-6.66699 -23.333 -22.667 -35 -48 -35l-427.5 26c-137.667 8.66699 -264.667 10.334 -381 5.00098s-201.5 -6.33301 -255.5 -3c-11.333 -11.333 -9.33301 -233 6 -665c24 -23.333 102.333 -20 235 10
c47.333 2 45.666 -18.333 -5.00098 -61l-224 -79c-11.333 -150 -11.333 -275.667 0 -377c19.333 -51.333 38.166 -90.333 56.499 -117s-16.167 -38 -103.5 -34c-7.33301 1.33301 -19.666 21.333 -36.999 60s-33.666 448 -48.999 1228c7.33301 26.667 -3.33398 40 -32.001 40
c-162.667 1.33301 -319.334 -5.33398 -470.001 -20.001c-86 22.667 -124.167 42.667 -114.5 60s35.167 29.666 76.5 36.999c50.667 7.33301 190 16 418 26z" />
    <glyph glyph-name="G" unicode="G" horiz-adv-x="1086" 
d="M853 1433c115.333 -8 192.167 -26.666 230.5 -55.999s58.5 -76 60.5 -140c-79.333 -104 -111.5 -123.333 -96.5 -58s-19.5 114.833 -103.5 148.5s-220.333 -5.5 -409 -117.5s-312.834 -248.333 -372.501 -409s-47.5 -312.667 36.5 -456s180.167 -221.666 288.5 -234.999
s194.166 15.667 257.499 87s108 157 134 257c10 138.667 -42.333 194 -157 166c-81.333 90 -108.333 149.667 -81 179c74 -4 170.333 -52.333 289 -145l45 -4c93.333 -6 136 -13.333 128 -22c0 -7.33301 -36 -27.333 -108 -60c9.33301 -76 -10.167 -168 -58.5 -276
s-120.5 -189.333 -216.5 -244s-193.333 -65.334 -292 -32.001s-181.667 89.666 -249 168.999s-113.666 154 -138.999 224s-38.666 154.333 -39.999 253c34.667 234 153 419.5 355 556.5s368 208.5 498 214.5z" />
    <glyph glyph-name="H" unicode="H" horiz-adv-x="638" 
d="M193 1425c28 -8.66699 55.999 -30.332 83.999 -64.999c-18.667 -24 -31.334 -70.333 -38.001 -139l-25 -591c2 -10 61.333 -21 178 -33l71 -5c59.333 282 85.166 465.833 77.499 551.5s-17.167 135.5 -28.5 149.5c4.66699 87.333 28.334 127.666 71.001 120.999
c32.667 -22 52.834 -74 60.501 -156s-2.16602 -218.667 -29.499 -410c-32 -150.667 -49.667 -235 -53 -253s29.667 -18 99 0c-14.667 -18 -57 -50.667 -127 -98c-20 -66 -39.667 -200.333 -59 -403c-52 -100 -88 -121.667 -108 -65c-1.33301 140 16.667 293.667 54 461h-48
c-6 0 -35.333 2.66699 -88 8c-72.667 23.333 -106.667 32.666 -102 27.999c-46 -196 -69 -321 -69 -375h38c10 -0.666992 15 -5.66699 15 -15v-17c-26.667 -82 -62 -123 -106 -123c-50.667 38 -70.667 74.333 -60 109c72.667 376 113.667 719.333 123 1030
c-12 198.667 -6.16699 298.334 17.5 299.001s41.167 -2.33301 52.5 -9z" />
    <glyph glyph-name="I" unicode="I" 
d="M175 1439c21.333 0 38 -18.333 50 -55c4.66699 -70 -11.666 -258.667 -48.999 -566c-50 -360.667 -70.333 -582.5 -61 -665.5s7.66602 -132.5 -5.00098 -148.5c0 -18.667 -17.5 -20.167 -52.5 -4.5s-54.167 82.834 -57.5 201.501c4 143.333 14.333 277 31 401
s32.334 249.167 47.001 375.5s18.667 243.166 12 350.499c11.333 72.667 39.666 109.667 84.999 111z" />
    <glyph glyph-name="J" unicode="J" horiz-adv-x="899" 
d="M518 1416c26 -2.66699 55.1641 -22.832 87.4971 -60.499s113.833 -54.834 244.5 -51.501c32 0 51.333 -4.33301 58 -13s10 -13.667 10 -15v-11l-122 -1153c-19.333 -197.333 -68.166 -334.5 -146.499 -411.5s-165.666 -108.167 -261.999 -93.5s-172 45.5 -227 92.5
s-99.5 132.5 -133.5 256.5s-19.333 229.833 44 317.5s147.666 145.834 252.999 174.501l4 -34c-85.333 -62 -144.666 -124 -177.999 -186c-33.333 -85.333 -32.166 -181.5 3.50098 -288.5s85.5 -172.333 149.5 -196s125.833 -30.834 185.5 -21.501s108.5 60.333 146.5 153
s61.667 218.667 71 378s23.5 308 42.5 446s31.5 249.667 37.5 335s10.333 136 13 152c-238 -1.33301 -346 67 -324 205c2 14 16.333 22.333 43 25z" />
    <glyph glyph-name="K" unicode="K" horiz-adv-x="891" 
d="M104 1435c70 -0.666992 106.5 -50.333 109.5 -149s-3 -235 -18 -409s-26.167 -298.333 -33.5 -373c0.666992 -22.667 -1.33301 -49 -6 -79c89.333 28 176 96.667 260 206s178.833 241.833 284.5 397.5s167.5 255.834 185.5 300.501s52.333 56.334 103 35.001
c24 -16 -10.833 -99.833 -104.5 -251.5s-225.834 -341.834 -396.501 -570.501l212 -469c57.333 -100.667 82 -172.334 74 -215.001c-58 -34 -185.333 165.333 -382 598c-105.333 -88.667 -185.666 -138 -240.999 -148c-6 -91.333 -9 -157.833 -9 -199.5s-6 -62.5 -18 -62.5
c-79.333 66 -115.333 129.333 -108 190l86 757c18 204 3.66699 322.167 -43 354.5s-31.667 61.5 45 87.5z" />
    <glyph glyph-name="L" unicode="L" horiz-adv-x="846" 
d="M338 1432c32 -54.667 23.834 -154.834 -24.499 -300.501l-134 -420c-41 -134.333 -62.5 -262.166 -64.5 -383.499s21.333 -206.333 70 -255c324.667 63.333 528 123 610 179s115.667 50.333 101 -17c-40 -96.667 -281.667 -191.334 -725 -284.001
c-124 46 -178.667 165.833 -164 359.5s44.167 363.334 88.5 509.001s96.833 337.167 157.5 574.5c33.333 25.333 61.666 38 84.999 38z" />
    <glyph glyph-name="M" unicode="M" horiz-adv-x="1551" 
d="M854 1431c25.333 0 51.334 -22 78.001 -66c-87.333 -196 -143.5 -444.167 -168.5 -744.5s-11.167 -468.166 41.5 -503.499s122.334 -15.5 209.001 59.5s176.167 200 268.5 375s141.5 322 147.5 441s15.333 203.833 28 254.5h-19c72 0 121 -31 147 -93
c-91.333 -311.333 -127.333 -623 -108 -935c11.333 -82 -6 -120.667 -52 -116h-11c-56 7.33301 -59.333 173 -10 497c-104 -239.333 -209.167 -406 -315.5 -500s-218 -131.167 -335 -111.5s-142.167 275.167 -75.5 766.5c-58.667 -238 -151.834 -447.333 -279.501 -628
s-245.167 -317 -352.5 -409c-55.333 -48.667 -77.333 -27 -66 65c258.667 285.333 443.5 570.166 554.5 854.499s189.833 531.833 236.5 742.5c13.333 34 40.666 51 81.999 51z" />
    <glyph glyph-name="N" unicode="N" horiz-adv-x="1339" 
d="M1239 1438c79.333 -40.667 117.334 -172.003 114.001 -394.003s-31.666 -420.833 -84.999 -596.5s-121.166 -304.667 -203.499 -387s-157.166 -122.166 -224.499 -119.499c-192.667 43.333 -298.334 320.333 -317.001 831c-42 -107.333 -113.833 -253.833 -215.5 -439.5
s-172.667 -301.334 -213 -347.001s-77.833 -12.167 -112.5 100.5c69.333 8 171.333 156 306 444s210.334 470.667 227.001 548c-16.667 68 -0.333984 102 48.999 102c34 0 61 -17.333 81 -52c-12.667 -71.333 -19.834 -178.666 -21.501 -321.999
s18.5 -301.166 60.5 -473.499s100.667 -265.166 176 -278.499c88 21.333 176 130 264 326s128 469.667 120 821c-16.667 85.333 -40.334 126 -71.001 122s-54 4.33301 -70 25c45.333 54.667 90.666 84.667 135.999 90z" />
    <glyph glyph-name="O" unicode="O" horiz-adv-x="1167" 
d="M628 1443l24.001 0.00390625c202 -10 343.833 -77.833 425.5 -203.5s101.667 -297.334 60 -515.001s-133.5 -408.334 -275.5 -572.001s-323.667 -230.834 -545 -201.501c-202 58.667 -306.333 202 -313 430c-22.667 273.333 28.666 516.166 153.999 728.499
s282 323.5 470 333.5zM116.001 489.004c-16.667 -282 87.5 -425.5 312.5 -430.5s399.5 148 523.5 459s128.167 534 12.5 669s-247.5 177.833 -395.5 128.5s-259.5 -153.333 -334.5 -312s-114.5 -330 -118.5 -514z" />
    <glyph glyph-name="P" unicode="P" horiz-adv-x="717" 
d="M480 1440c140 -16 227.168 -60.6689 261.501 -134.002s36 -179.166 5 -317.499s-113.167 -256.166 -246.5 -353.499c-84.667 -52.667 -153.834 -87 -207.501 -103s-105.834 -22.333 -156.501 -19c-9.33301 -80.667 -14 -151.5 -14 -212.5v-158.5
c7.33301 -19.333 14.333 -29 21 -29c-36.667 -110.667 -57.667 -162.334 -63 -155.001c-52 -20 -79.667 120.333 -83 421s2.66699 510.834 18 630.501s23 185.5 23 197.5l-10 38c6.66699 90 7.33398 124.667 2.00098 104c-1.33301 0 42.5 12.833 131.5 38.5
s195.167 43.167 318.5 52.5zM140.001 625.998c19.333 -8.66699 73.833 0.500977 163.5 27.501s174.667 88.333 255 184s115.5 205.167 105.5 328.5s-76.667 181.166 -200 173.499s-220 -24.167 -290 -49.5c-46.667 -284 -58 -505.333 -34 -664z" />
    <glyph glyph-name="Q" unicode="Q" horiz-adv-x="1114" 
d="M815 1436c85.333 -28.667 158.999 -86.5 220.999 -173.5s84.5 -207.5 67.5 -361.5s-38.5 -273 -64.5 -357s-64.667 -170.667 -116 -260c41.333 -78.667 86 -179.334 134 -302.001v-18l-16 -8l-37 -10c-80 117.333 -133 202 -159 254
c-106.667 -156 -213.167 -237.833 -319.5 -245.5s-205.833 19.166 -298.5 80.499c-64 55.333 -116.5 138.333 -157.5 249s-64.5 228 -70.5 352c0 90.667 12.333 180.834 37 270.501s60.667 166.834 108 231.501c110.667 163.333 227.334 249.666 350.001 258.999
c54 -14 87 -31.667 99 -53c48.667 90.667 122.667 121.334 222 92.001zM684.999 1319c-20.667 -20 -28.998 -48.9951 -24.998 -86.9951c4 -75.333 -22.833 -134.666 -80.5 -177.999s-57.167 -2.33301 1.5 123l5 46l-50 -89c-48.667 -31.333 -75.334 -33.333 -80.001 -6
l86 147c-71.333 52 -157.166 13.167 -257.499 -116.5s-154.833 -263.167 -163.5 -400.5s1.66602 -262.833 30.999 -376.5s89.5 -201.334 180.5 -263.001s179.667 -69.167 266 -22.5s149.833 119.667 190.5 219c-82 241.333 -119.833 372.666 -113.5 393.999
s17.166 35.666 32.499 42.999c48.667 -45.333 82 -91.833 100 -139.5s37.333 -114.167 58 -199.5c41.333 61.333 71.5 143.666 90.5 246.999s32.833 209.166 41.5 317.499s-24 204.666 -98 288.999s-145.667 101.833 -215 52.5z" />
    <glyph glyph-name="R" unicode="R" horiz-adv-x="1016" 
d="M457 1431c264.667 7.33301 430.333 -62.666 497 -209.999s80.5 -275.833 41.5 -385.5s-86 -191.5 -141 -245.5s-140.833 -108.333 -257.5 -163c38 -66.667 87.167 -124.834 147.5 -174.501s119.833 -94 178.5 -133s153.334 -53.167 284.001 -42.5v-9
c-0.666992 -28 -42.167 -50.333 -124.5 -67s-174.833 14 -277.5 92s-210.667 172 -324 282c-59.333 -12.667 -115 -27 -167 -43c21.333 -216 45 -330.667 71 -344s37.667 -36 35 -68c-19.333 -25.333 -47.333 -30.333 -84 -15c-62.667 72.667 -104.5 127.167 -125.5 163.5
l-86 150c-36.333 63.667 -62 131.667 -77 204s-25.5 134.5 -31.5 186.5s-11 147 -15 285s28.667 254.5 98 349.5s188.666 157.5 357.999 187.5zM245.999 1232c41.333 -98 60.834 -232 58.501 -402s-3.83301 -300 -4.5 -390c69.333 12 132.666 28 189.999 48
s120.333 52.333 189 97s121 91.334 157 140.001s59.333 119 70 211c12 104 -14.667 196.333 -80 277s-160.333 119.667 -285 117s-223 -35.334 -295 -98.001zM104 664.001c14.667 -229.333 54.001 -387.333 118.001 -474c-4 37.333 -9 101.333 -15 192s-6.33301 206 -1 346
c4 132 1 242 -9 330s-25 123.333 -45 106c-18.667 -29.333 -33.334 -82 -44.001 -158s-12 -190 -4 -342z" />
    <glyph glyph-name="S" unicode="S" horiz-adv-x="966" 
d="M476 1431c101.333 -2 183.33 -21.833 245.997 -59.5s113.667 -85 153 -142s59 -123.167 59 -198.5s-28.667 -129.166 -86 -161.499s-118.166 -33.166 -182.499 -2.49902s-60.666 46 11.001 46s120 11.667 145 35s33 63.5 24 120.5s-51.167 118.667 -126.5 185
s-153.833 93.833 -235.5 82.5s-137.167 -43 -166.5 -95c-28.667 -62 -34.667 -123.167 -18 -183.5s50.834 -125.5 102.501 -195.5s122.667 -132 213 -186s155.666 -96.333 195.999 -127s77.5 -70.167 111.5 -118.5s49 -118 45 -209s-41 -162.333 -111 -214
s-188.167 -68.5 -354.5 -50.5s-288.166 85.833 -365.499 203.5s-109.5 207.5 -96.5 269.5s38.833 71.667 77.5 29c44 -148.667 109.833 -255.167 197.5 -319.5s187.834 -95.666 300.501 -93.999s184.167 31.167 214.5 88.5s40.166 118.166 29.499 182.499
s-63.5 124.333 -158.5 180s-190.833 124.5 -287.5 206.5c-68 71.333 -127 155.666 -177 252.999c-11.333 25.333 -23 65.666 -35 120.999s-11.833 104 0.5 146s37.833 87.167 76.5 135.5s104.667 72.5 198 72.5z" />
    <glyph glyph-name="T" unicode="T" horiz-adv-x="884" 
d="M2126 1358c16 -82 -7.66797 -118.335 -71.001 -109.002c-40 38 -82.167 58.333 -126.5 61s-92.333 6.5 -144 11.5s-150.167 3.33301 -295.5 -5s-338.333 -42.166 -579 -101.499s-407 -79.666 -499 -60.999h-108.5c-67 0 -134.167 3.66699 -201.5 11
s-98.666 45 -93.999 113c0 21.333 12.667 30 38 26c127.333 -42 251.166 -59 371.499 -51s222 18.667 305 32s178.5 34 286.5 62s231.667 51.333 371 70c494.667 38.667 743.667 19 747.001 -59zM714.999 1132c4.66699 0.666992 15.333 -14.668 32 -46.001
c-7.33301 -92.667 -7.66602 -174.167 -0.999023 -244.5s10 -194.166 10 -371.499s0.5 -299.166 1.5 -365.499s-12.833 -99.5 -41.5 -99.5l-34 -5c-26.667 27.333 -40 60 -40 98c0 109.333 1.33301 187.166 4 233.499s8.16699 107 16.5 182s-10.5 237.5 -56.5 487.5
c7.33301 86 43.666 129.667 108.999 131z" />
    <glyph glyph-name="U" unicode="U" horiz-adv-x="1127" 
d="M144 1432c77.333 -21.333 116.998 -56.0039 118.998 -104.004c-106.667 -74.667 -165.667 -254 -177 -538c24.667 -294 70.667 -492 138 -594s152 -144.833 254 -128.5s249 171.5 441 465.5c12 175.333 22.167 310 30.5 404l29 328c11 124.667 23.167 181.667 36.5 171
c36 0 71.333 -35 106 -105c-59.333 -284 -91.5 -502.667 -96.5 -656s4.5 -298.666 28.5 -435.999s18.667 -208 -16 -212c-22 -2.66699 -55.333 86.333 -100 267l-6 104c-102 -146.667 -198 -260.667 -288 -342s-179.833 -110.666 -269.5 -87.999
s-167.167 86.834 -232.5 192.501s-107.166 231.5 -125.499 377.5s-23.666 272.5 -15.999 379.5s24.167 211.333 49.5 313s57 168.834 95 201.501z" />
    <glyph glyph-name="V" unicode="V" horiz-adv-x="1056" 
d="M1304 1442c32.667 -49.333 1 -123.671 -95 -223.004s-197 -238.666 -303 -417.999l-232 -393.5c-48.667 -83 -95 -177.333 -139 -283s-74 -148.5 -90 -128.5c-65.333 90.667 -139.333 264 -222 520s-145.5 457 -188.5 603s-48.833 224 -17.5 234
c62 -16 99.667 -38.667 113 -68s22.333 -66.666 27 -111.999s40.334 -189.166 107.001 -431.499s126 -408.833 178 -499.5c171.333 309.333 308.166 538.833 410.499 688.5s195 272.334 278 368.001s140.833 143.5 173.5 143.5z" />
    <glyph glyph-name="W" unicode="W" horiz-adv-x="1539" 
d="M1227 1414c116.667 -54 196.492 -139.003 239.492 -255.003s63.333 -243 61 -381s-26.666 -269 -72.999 -393s-109 -220.833 -188 -290.5s-151.667 -111.5 -218 -125.5s-139.166 2 -218.499 48c-60 50.667 -105.5 102.5 -136.5 155.5s-65.167 135.5 -102.5 247.5
c-52 -95.333 -103.333 -167.333 -154 -216s-119.334 -77 -206.001 -85c-57.333 0 -104.5 27 -141.5 81s-59.167 160.833 -66.5 320.5s4.16699 307.334 34.5 443.001s78.5 230.167 144.5 283.5c56.667 8.66699 80 -14.666 70 -69.999
c-55.333 -90.667 -89.333 -158.667 -102 -204s-22.834 -130.833 -30.501 -256.5s-2.66699 -240 15 -343s51.834 -152.167 102.501 -147.5c92.667 5.33301 168.5 75.833 227.5 211.5s100.5 206.5 124.5 212.5s45.5 -25.333 64.5 -94s38.5 -127 58.5 -175
s57.667 -109.667 113 -185s117 -111.666 185 -108.999s130.833 42.834 188.5 120.501s105.334 173.167 143.001 286.5s50.334 244.166 38.001 392.499s-41.166 255.166 -86.499 320.499s-100.666 103 -165.999 113c-75.333 0 -128.166 -32.667 -158.499 -98
s-59.166 -87.666 -86.499 -66.999s-32.666 57 -15.999 109c65.333 144.667 179 194.667 341 150z" />
    <glyph glyph-name="X" unicode="X" horiz-adv-x="1257" 
d="M481 1450c35.333 -40.667 81.498 -103.002 138.498 -187.002s122.833 -218.667 197.5 -404c106.667 116 209.334 220.667 308.001 314s198.834 161.5 300.501 204.5s148.167 45.833 139.5 8.5s-80.167 -95.166 -214.5 -173.499s-293.5 -233.833 -477.5 -466.5
c74.667 -123.333 146.667 -259.833 216 -409.5s104 -235.167 104 -256.5c-61.333 -6.66699 -117.5 43 -168.5 149s-133.5 246 -247.5 420c-133.333 -144.667 -280.166 -313 -440.499 -505s-241.833 -326.667 -244.5 -404s-9.5 -118.833 -20.5 -124.5s-24.5 -8.5 -40.5 -8.5
c-20.667 6.66699 -31 39.167 -31 97.5s18.833 123.333 56.5 195s101.167 171.667 190.5 300s247.333 318.166 474 569.499c-18.667 60 -56.667 143.667 -114 251s-109.333 192.333 -156 255s-69.334 109.834 -68.001 141.501s34 42.834 98 33.501z" />
    <glyph glyph-name="Y" unicode="Y" horiz-adv-x="736" 
d="M132 1455c9.33301 -264 117.33 -484 323.997 -660c43.333 60.667 86.333 138.334 129 233.001s72.834 155.667 90.501 183s47.834 52.666 90.501 75.999c52.667 -5.33301 79 -32.666 79 -81.999c-94.667 -69.333 -170.5 -169.333 -227.5 -300
s-101.667 -222.834 -134 -276.501s-66.333 -120 -102 -199l-131.5 -279.5c-52 -107.333 -87 -203 -105 -287s-20.167 -138.5 -6.5 -163.5s29.834 -47.333 48.501 -67s0.333984 -33.5 -54.999 -41.5c-103.333 56 -132.333 152.167 -87 288.5s75.666 221.833 90.999 256.5
l63.5 138l91 199.5l99.5 217.5c-74.667 78 -140.5 161 -197.5 249s-102.5 171 -136.5 249s-52.667 146.333 -56 205c17.333 28 61.333 48.333 132 61z" />
    <glyph glyph-name="Z" unicode="Z" horiz-adv-x="1158" 
d="M798 1425c213.333 9.33301 330.662 -53.167 351.995 -187.5s-85 -343.5 -319 -627.5c82 -24.667 169.667 -24.667 263 0c74.667 20 98.167 7.16699 70.5 -38.5s-162.167 -68.5 -403.5 -68.5l-293 -409c19.333 -4 72.333 -7 159 -9s134.667 -10 144 -24
c48 -36.667 11.5 -58.334 -109.5 -65.001s-209.167 -5.83398 -264.5 2.49902s-105.5 4.83301 -150.5 -10.5s-85.167 -23 -120.5 -23c-75.333 14 -117.666 49.333 -126.999 106c18.667 22 35 35.333 49 40s99 5 255 1c48.667 32.667 104.834 88.334 168.501 167.001
s121.5 163 173.5 253c-117.333 20 -180 52.333 -188 97c0 42 18.333 56 55 42s105.334 -31 206.001 -51c107.333 110.667 208.333 278.334 303 503.001c16 140 -55.667 208.333 -215 205c-143.333 -16 -238.666 -93.333 -285.999 -232
c-53.333 14.667 -74.666 55 -63.999 121c54.667 138.667 168.667 208 342 208z" />
    <glyph glyph-name="bracketleft" unicode="[" horiz-adv-x="733" 
d="M362 1725c131.333 -6 242.668 -29.002 334.001 -69.002c28.667 -2.66699 35 -26.167 19 -70.5s-33.833 -61.166 -53.5 -50.499s-46.167 23.5 -79.5 38.5s-90 28.167 -170 39.5c-28.667 26 -75.667 -204.667 -141 -692s-113 -816.666 -143 -987.999
c11.333 -18.667 48.833 -24.334 112.5 -17.001s108.167 6.83301 133.5 -1.5s33 -25.833 23 -52.5s-51 -40 -123 -40s-137.333 -5.66699 -196 -17c-56 6.66699 -78.333 39.834 -67 99.501s31.666 149.5 60.999 269.5c112 940.667 176.5 1438 193.5 1492
s49.167 73.667 96.5 59z" />
    <glyph glyph-name="backslash" unicode="\" horiz-adv-x="591" 
d="M43 1461c22.667 0 106.499 -197.669 251.499 -593.002s233.667 -660.166 266 -794.499s30.833 -200.666 -4.5 -198.999s-62.666 38.667 -81.999 111s-37.833 145.5 -55.5 219.5s-157.167 468 -418.5 1182c0.666992 49.333 15 74 43 74z" />
    <glyph glyph-name="bracketright" unicode="]" horiz-adv-x="721" 
d="M38 1691c226.667 -30.667 390.833 -41.1641 492.5 -31.4971s148.834 -5.83301 141.501 -46.5c-7.33301 -97.333 -15.666 -181.5 -24.999 -252.5s-15.833 -240.833 -19.5 -509.5s3.83301 -525.334 22.5 -770.001s-1.83301 -362.667 -61.5 -354s-202.167 28 -427.5 58
c-12.667 9.33301 -19 19 -19 29c0 20.667 61.167 35 183.5 43s186.833 12 193.5 12c14.667 37.333 22 148.166 22 332.499s-2.33301 429.666 -7 735.999s1.33301 491 18 554s-75.833 88.667 -277.5 77s-296.834 5.83301 -285.501 52.5s27.666 70 48.999 70z" />
    <glyph glyph-name="asciicircum" unicode="^" horiz-adv-x="1014" 
d="M494 1433c28.667 11.333 68.832 -48.8311 120.499 -180.498s68.5 -201.834 50.5 -210.501c-24.667 -14.667 -57.334 32.166 -98.001 140.499s-63 162.5 -67 162.5c-76 -100 -124.167 -174.5 -144.5 -223.5s-41.666 -64.667 -63.999 -47s-19.166 50.667 9.50098 99
s93 134.833 193 259.5z" />
    <glyph glyph-name="underscore" unicode="_" horiz-adv-x="920" 
d="M-15 -84l403.999 -0.000976562h364h104c28.667 0 52.667 -1.5 72 -4.5s29 -6.83301 29 -11.5c37.333 -42 9.16602 -62.5 -84.501 -61.5s-260.5 2.5 -500.5 4.5s-369.667 1.83301 -389 -0.5s-36.166 7.83398 -50.499 30.501s2.83398 37 51.501 43z" />
    <glyph glyph-name="grave" unicode="`" horiz-adv-x="487" 
d="M104 1428c7.33301 -0.666992 32.333 -29.165 75 -85.498s90 -104.833 142 -145.5s89.333 -73.334 112 -98.001s2 -20.834 -62 11.499s-135.167 85 -213.5 158s-114.5 115.167 -108.5 126.5s24.333 22.333 55 33z" />
    <glyph glyph-name="a" unicode="a" horiz-adv-x="784" 
d="M195 668c74.667 -19.333 171.332 -62 289.999 -128c12 -10.667 28 6.66602 48 51.999c44 36 89.333 -9.33301 136 -136c-22.667 -24 -34 -49.667 -34 -77c18.667 -225.333 82.667 -326 192 -302c14 -47.333 16 -70.666 6 -69.999
c-91.333 -32 -167.666 14.333 -228.999 139c-10.667 7.33301 -21.334 11 -32.001 11c-51.333 -32 -99.666 -66 -144.999 -102c-53.333 -34.667 -110.333 -52 -171 -52c-153.333 -16 -237.333 84 -252 300c-6 30 -7.16699 79.167 -3.5 147.5s23 125 58 170
s80.5 60.833 136.5 47.5zM93.998 368c33.333 -194.667 88.167 -284.5 164.5 -269.5s159.833 66.833 250.5 155.5c36 97.333 26.5 163 -28.5 197s-134.667 67.333 -239 100s-153.5 -28.333 -147.5 -183z" />
    <glyph glyph-name="b" unicode="b" horiz-adv-x="750" 
d="M475 1292c128 -3.33301 178.999 -77.3379 152.999 -222.005c-16 -88 -38 -159.333 -66 -214s-55.833 -105.667 -83.5 -153s-57.334 -95.666 -89.001 -144.999s-47.5 -82 -47.5 -98c-5.33301 -51.333 -8 -88.5 -8 -111.5s5 -54.667 15 -95s25.667 -72.666 47 -96.999
s44.666 -41.166 69.999 -50.499c69.333 -22.667 113.333 32 132 164v24c-59.333 148.667 -81.333 228 -66 238c10 9.33301 22 14.333 36 15c8 0 26.5 -22.833 55.5 -68.5s69.5 -64 121.5 -55s71 -18.167 57 -81.5c-14 -10.667 -29.5 -15.167 -46.5 -13.5
s-34.667 4.66699 -53 9s-25 -11.667 -20 -48s5 -69 0 -98s-15.667 -55.833 -32 -80.5s-42.166 -50 -77.499 -76s-66 -38 -92 -36c-84.667 0 -153.334 50.333 -206.001 151l-33 116c-18 -58.667 -43.5 -114.834 -76.5 -168.501s-70.5 -86 -112.5 -97s-70 -11 -84 0
s-16 33.167 -6 66.5c58.667 -24 117.334 29.833 176.001 161.5s95 278.834 109 441.501s28.333 282.334 43 359.001s34.334 137.834 59.001 183.501s66.334 72.167 125.001 79.5zM320.999 610.995c64.667 72.667 125.833 183 183.5 331s65.167 228.333 22.5 241
c-38.667 30 -74 7.5 -106 -67.5s-65.333 -243.167 -100 -504.5z" />
    <glyph glyph-name="c" unicode="c" horiz-adv-x="603" 
d="M333 690c69.333 6.66699 148.666 -27.3301 237.999 -101.997c-8.66699 -24.667 -19 -38 -31 -40c-72.667 45.333 -145 62.166 -217 50.499s-122.5 -40 -151.5 -85s-36 -109.333 -21 -193s55.333 -146.334 121 -188.001s129.834 -62.334 192.501 -62.001
s98.667 0.833008 108 1.5s29 2.33398 59 5.00098v-7c11.333 -28 -41.667 -54 -159 -78c-180 8 -299.833 54.333 -359.5 139s-93.167 168.334 -100.5 251.001c7.33301 85.333 37.5 156.166 90.5 212.499s129.833 88.166 230.5 95.499z" />
    <glyph glyph-name="d" unicode="d" horiz-adv-x="919" 
d="M625 1295c53.333 -48.667 81.9971 -104.668 85.9971 -168.001s6 -130.833 6 -202.5s-10.833 -167.167 -32.5 -286.5s-29.334 -221.666 -23.001 -306.999s118.5 -168.333 336.5 -249c106 -150.667 -42.333 -108 -445 128c-116 -165.333 -228.667 -240.666 -338 -225.999
c-153.333 68 -218.833 196.333 -196.5 385s90.333 290.667 204 306s165.834 -53.334 156.501 -206.001c-37.333 -179.333 -79 -227 -125 -143c58.667 202 37.334 289.667 -63.999 263c-71.333 -96 -96.5 -208 -75.5 -336s70.333 -188.333 148 -181s151.834 78 222.501 212
s109.834 262.333 117.501 385s8.33398 221.167 2.00098 295.5s-20.833 148 -43.5 221s-1.33398 109.5 63.999 109.5z" />
    <glyph glyph-name="e" unicode="e" horiz-adv-x="553" 
d="M293 693c158 -13.333 237 -70.832 237 -172.499s-34.833 -168.334 -104.5 -200.001s-154.167 -59.167 -253.5 -82.5c10 -76 81 -130 213 -162c49.333 -11.333 119 -8.33301 209 9h34v-19c-58.667 -44 -113.667 -66 -165 -66c-142.667 -0 -246 22.333 -310 67
s-106.5 121.5 -127.5 230.5s-11.833 203.667 27.5 284s119.333 117.5 240 111.5zM119 503.001c-7.33301 -110 9.33301 -168.334 50 -175.001c187.333 18 273.666 80.333 258.999 187c0 66.667 -53.667 98.334 -161 95.001c-65.333 -4 -114.666 -39.667 -147.999 -107z" />
    <glyph glyph-name="f" unicode="f" horiz-adv-x="549" 
d="M431 1319c116.667 28.667 173.833 -26.167 171.5 -164.5s-31.5 -260.833 -87.5 -367.5l-127 -247c2.66699 -84 11 -160.667 25 -230c12.667 -60.667 20.167 -99.667 22.5 -117s6.33301 -86.5 12 -207.5s3.5 -216.5 -6.5 -286.5c-20 -82 -71.833 -115.333 -155.5 -100
s-140.834 62 -171.501 140s-38.334 149.333 -23.001 214s41.5 126.834 78.5 186.501s68 95.167 93 106.5s49.833 19.666 74.5 24.999c-5.33301 36.667 -11 93.667 -17 171c-23.333 -76 -74.166 -171 -152.499 -285s-150.833 -168.667 -217.5 -164
c-33.333 52 -27.333 85.167 18 99.5s98.833 60.666 160.5 138.999s113.834 186.5 156.501 324.5c-12.667 84.667 -24.5 169.834 -35.5 255.501s-13.5 178 -7.5 277s69 175.833 189 230.5zM336.999 856.999l12.001 -222.001c76.667 176 123.167 304.333 139.5 385
s18.666 135.334 6.99902 164.001s-37.667 31 -78 7s-65.333 -63.333 -75 -118s-11.5 -126.667 -5.5 -216zM226 65.998c-26 -45.333 -41.832 -98.002 -47.499 -158.002s2.33301 -109.667 24 -149s55.167 -63.666 100.5 -72.999s65.666 41.834 60.999 153.501s-7 189 -7 232
s-2.66699 80.833 -8 113.5c-48.667 -19.333 -89.667 -59 -123 -119z" />
    <glyph glyph-name="g" unicode="g" horiz-adv-x="642" 
d="M386 770c78.667 -18 108.332 -74.3311 88.999 -168.998c-24 -58.667 -54.667 -69.334 -92 -32.001c20 14.667 27.333 36.167 22 64.5s-42 50.166 -110 65.499c-105.333 9.33301 -158.833 -37.167 -160.5 -139.5s58.5 -162.5 180.5 -180.5c115.333 4 173 22.667 173 56
c16.667 38.667 46.667 58 90 58c21.333 0.666992 32.666 -22.666 33.999 -69.999c-1.33301 -38 7.83398 -140 27.501 -306s-6.83301 -294.333 -79.5 -385c-91.333 -93.333 -177.5 -138.5 -258.5 -135.5s-151.333 24.667 -211 65s-99 89.666 -118 147.999
s-13.667 120.666 16 186.999s68.667 118.5 117 156.5s114.833 69.333 199.5 94c-30 -46.667 -70.167 -91.334 -120.5 -134.001s-85.333 -96.167 -105 -160.5s-3.16699 -126.833 49.5 -187.5s114.334 -86.334 185.001 -77.001s128.5 49.333 173.5 120
s61.833 180.334 50.5 329.001s-33 215 -65 199c-209.333 -75.333 -353 -32.666 -431 128.001c-28.667 156 0.5 253.833 87.5 293.5s172.5 43.834 256.5 12.501z" />
    <glyph glyph-name="h" unicode="h" horiz-adv-x="827" 
d="M278 1306c75.333 -29.333 126.665 -76.832 153.998 -142.499s36.666 -169.167 27.999 -310.5s-64 -321 -166 -539v-10c22.667 -76 53.334 -114 92.001 -114h38c75.333 32.667 133.333 113.667 174 243s65 194.666 73 195.999c30.667 -12.667 46 -25.667 46 -39v-38
c0 -118 29.333 -263.667 88 -437l29 -61v-63h-7c-26 0 -86 101.333 -180 304c-57.333 -150.667 -149.666 -223.667 -276.999 -219c-50.667 8 -97 43 -139 105h-7c-70.667 -108 -149 -170 -235 -186l-17 24l2 50c100 50.667 162.667 116.334 188 197.001l7 20
c-21.333 190.667 -34.166 310.667 -38.499 360s-6.5 103.666 -6.5 162.999c0 331.333 43.333 497 130 497h24zM223.999 717.001c0 -71.333 5.00098 -178.998 15.001 -322.998c42.667 70 78.667 183.333 108 340c25.333 169.333 32.166 280.166 20.499 332.499
s-26.834 84.666 -45.501 96.999s-36 18.5 -52 18.5c-41.333 -53.333 -56.666 -208.333 -45.999 -465z" />
    <glyph glyph-name="i" unicode="i" horiz-adv-x="213" 
d="M60 1101l20.001 0.000976562c82 -40.667 95.333 -87.334 40 -140.001c-42 0 -78.333 28 -109 84c9.33301 25.333 25.666 44 48.999 56zM59.001 718.001h77c6 -48 10.833 -108.5 14.5 -181.5s5.5 -126.667 5.5 -161v-119c0 -45 6.66699 -130.5 20 -256.5h-31
c-36 -5.33301 -72 135.667 -108 423c0 36 -6.66699 107 -20 213c9.33301 54.667 23.333 82 42 82z" />
    <glyph glyph-name="j" unicode="j" horiz-adv-x="374" 
d="M196 1095c72.667 -20 109 -48.333 109 -85v-37l-17 -10c-36.667 0 -66 12.5 -88 37.5s-33 42.167 -33 51.5l4 11c2 14 10.333 24.667 25 32zM197 715c18 -2.66699 39.666 -31.9971 64.999 -87.9971l9 -24c-8 -8 -12.5 -39.333 -13.5 -94s-0.166992 -103.834 2.5 -147.501
s9.33398 -105.5 20.001 -185.5c35.333 28.667 95.333 65.334 180 110.001l11 -20l-6 -36c-64.667 -62.667 -124 -110 -178 -142c0 -45.333 1.66699 -88 5 -128s2.16602 -94 -3.50098 -162s-22.667 -119.5 -51 -154.5s-65.333 -47.667 -111 -38s-82.167 26 -109.5 49
s-46.833 48.667 -58.5 77s-11.834 68.5 -0.500977 120.5s90.333 144.667 237 278c-5.33301 55.333 -14.666 143.166 -27.999 263.499s-20.666 212.166 -21.999 275.499c0 29.333 17.333 44.666 52 45.999zM37.999 -240.997c20 -40.667 52.666 -61 97.999 -61
s70.5 44 75.5 132s6.5 155.333 4.5 202c-69.333 -53.333 -118.666 -104 -147.999 -152s-39.333 -88.333 -30 -121z" />
    <glyph glyph-name="k" unicode="k" horiz-adv-x="687" 
d="M317 1260c144 -9.33301 245 -54.834 303 -136.501s74.833 -169.334 50.5 -263.001s-68.5 -170.167 -132.5 -229.5s-143 -126.666 -237 -201.999c-23.333 -32.667 -35 -56.667 -35 -72c0 -64 83.333 -115 250 -153c98.667 -20.667 148 -42 148 -64
c-74.667 -38 -153.834 -41 -237.501 -9s-149.834 64 -198.501 96c-65.333 -152 -142 -228.333 -230 -229c-38 4 -57 13.333 -57 28l1 29c0 7.33301 26.333 13 79 17s101.334 86.333 146.001 247c8 36 13.5 67.833 16.5 95.5s0.833008 90.834 -6.5 189.501
s-11.833 209.5 -13.5 332.5s15.333 207.833 51 254.5s69.834 69.667 102.501 69zM239 932.999c11.333 -233.333 16 -379.668 14 -439.001c129.333 106.667 218.5 187.834 267.5 243.501s72.5 130.167 70.5 223.5s-77.333 160.333 -226 201
c-74.667 7.33301 -116.667 -59.667 -126 -201v-28z" />
    <glyph glyph-name="l" unicode="l" horiz-adv-x="239" 
d="M114 1305c52.667 -12.667 79 -44.332 79 -94.999c7.33301 -156.667 9.16602 -294.334 5.49902 -413.001s-10.167 -221.5 -19.5 -308.5s-13 -142.667 -11 -167s2.5 -54.333 1.5 -90s9.16699 -56.167 30.5 -61.5l-40 -174h-35c-26 -1.33301 -48 100.334 -66 305.001l34 591
c-7.33301 210.667 -18.666 316 -33.999 316c0 23.333 18.333 55.666 55 96.999z" />
    <glyph glyph-name="m" unicode="m" horiz-adv-x="1310" 
d="M1075 713c48 -33.333 77.6641 -103.666 88.9971 -210.999c53.333 -238 108.333 -370.5 165 -397.5s77 -58.5 61 -94.5c-50 -22.667 -96.333 -8.5 -139 42.5s-89.334 120.5 -140.001 208.5c-40.667 -137.333 -95 -217.666 -163 -240.999s-145.667 26.667 -233 150l-17 30
c-50 -92.667 -104.667 -152.334 -164 -179.001s-112.833 -15.834 -160.5 32.499s-88.5 135.833 -122.5 262.5c-68 -226.667 -136.667 -336.667 -206 -330s-100.666 24.667 -93.999 54c80.667 -7.33301 140.334 52 179.001 178s58 216.667 58 272s2.33301 104.333 7 147
s13.334 65 26.001 67c30 9.33301 66.333 -96.5 109 -317.5s104.667 -303.167 186 -246.5s125 165.667 131 327c0 16.667 -4.5 59.834 -13.5 129.501s12.5 104.5 64.5 104.5c30 0 47.667 -32.333 53 -97s8 -103.667 8 -117c26.667 -204.667 66.834 -320.5 120.501 -347.5
s100.167 21.667 139.5 146s53.5 226.666 42.5 306.999s-6.5 120.5 13.5 120.5z" />
    <glyph glyph-name="n" unicode="n" horiz-adv-x="931" 
d="M275 709c62.667 11.333 97.8301 -77.3281 105.497 -265.995s44.5 -272.834 110.5 -252.501s100.5 71 103.5 152s5.5 145.833 7.5 194.5c-2 31.333 9.33301 62.666 34 93.999c37.333 4 59.333 -25 66 -87c4.66699 -54.667 6.66699 -144.334 6 -269.001
c68.667 -134 129.334 -202.833 182.001 -206.5s88 -15.834 106 -36.501s-14.5 -32 -97.5 -34s-166.5 60.667 -250.5 188c-72 -102.667 -150.333 -138.667 -235 -108s-127.667 110.667 -129 240c-63.333 -162.667 -119.166 -256.334 -167.499 -281.001
s-86.666 -37 -114.999 -37s-43.5 9 -45.5 27s16.167 32.667 54.5 44s82.166 59.833 131.499 145.5s81 183.167 95 292.5c14.667 128 27.334 194.667 38.001 200z" />
    <glyph glyph-name="o" unicode="o" horiz-adv-x="604" 
d="M301 695c190 -6.66699 289 -119.166 297 -337.499s-87.333 -338.833 -286 -361.5c-150 2.66699 -250.333 107 -301 313c-40 257.333 21.333 370.666 184 339.999c30 0 65.333 15.333 106 46zM283 476.001l-10.001 -0.00195312c-32.667 14.667 -49 40.334 -49 77.001h-9
c-108 29.333 -144.167 -43 -108.5 -217s113.167 -255 232.5 -243c110 13.333 168.833 92.333 176.5 237s-40.833 228.334 -145.5 251.001h-20c-9.33301 0 -31.666 -35 -66.999 -105z" />
    <glyph glyph-name="p" unicode="p" horiz-adv-x="717" 
d="M449 757c146 -26 230.998 -67.501 254.998 -124.501s22.833 -126.833 -3.5 -209.5s-85.666 -158.5 -177.999 -227.5s-179.5 -103.5 -261.5 -103.5c-60 45.333 -90 79.333 -90 102c22 -6 38.333 -9 49 -9c176.667 16 299.5 91.667 368.5 227s29.5 218.666 -118.5 249.999
c-102.667 0 -204.334 -77.333 -305.001 -232c-29.333 -90 -41.666 -178.667 -36.999 -266s9 -156.666 13 -207.999c13.333 -112 20 -203.333 20 -274c0 -28 -26.333 -59 -79 -93c-41.333 51.333 -63.166 106.333 -65.499 165s-2.33301 135.334 0 230.001s3.5 156 3.5 184
v112c0 6.66699 -6.33301 37.667 -19 93v43c4 101.333 30.667 152 80 152c21.333 -10.667 28.333 -16 21 -16c36 0 85.833 34.167 149.5 102.5s129.5 102.5 197.5 102.5z" />
    <glyph glyph-name="q" unicode="q" horiz-adv-x="561" 
d="M235 664c117.333 0 198.338 -64.667 243.005 -194v-60c49.333 -28 74 -52 74 -72c-37.333 -84.667 -62.333 -175.334 -75 -272.001s-19.334 -182.5 -20.001 -257.5s15.333 -128.5 48 -160.5c21.333 -42.667 1 -61 -61 -55c-54.667 12 -85.334 72.333 -92.001 181
s-4.83398 195.167 5.49902 259.5s10.166 96.5 -0.500977 96.5c-147.333 -76 -258.333 -52.667 -333 70c-43.333 106.667 -47.333 199.334 -12 278.001s70.166 129.167 104.499 151.5s73.833 33.833 118.5 34.5zM241.005 577c-108.667 -28 -160 -99.5 -154 -214.5
s52.333 -172.5 139 -172.5c128 -5.33301 185 37 171 127h-16c-36 -4.66699 -60.333 -11 -73 -19s-17.667 2.66699 -15 32c58.667 46 88 79.333 88 100c-24 98 -70.667 147 -140 147z" />
    <glyph glyph-name="r" unicode="r" horiz-adv-x="545" 
d="M51 719c12 1.33301 31.998 -25.998 59.998 -81.998c153.333 -70.667 256.333 -120 309 -148s118.334 -45 197.001 -51v-15c-10.667 -33.333 -46.167 -52.833 -106.5 -58.5s-112.666 2.66602 -156.999 24.999s-93.5 52.666 -147.5 90.999s-83.333 40.5 -88 6.5
s11.333 -174.333 48 -421c-6 -23.333 -29.667 -46 -71 -68c-15.333 -4.66699 -31 50.333 -47 165s-27.833 197.167 -35.5 247.5s-11.5 83.166 -11.5 98.499c20.667 62.667 26 113.334 16 152.001s1.33301 58 34 58z" />
    <glyph glyph-name="s" unicode="s" horiz-adv-x="609" 
d="M269 755c106 -2.66699 181.502 -31.3359 226.502 -86.0029s55.5 -106.167 31.5 -154.5s-72 -74.833 -144 -79.5c-58.667 50 -66.834 70.833 -24.501 62.5s69.666 8.83398 81.999 51.501s-1.5 73.5 -41.5 92.5s-94.667 24.667 -164 17s-112 -33.167 -128 -76.5
c-16.667 -72.667 10 -121.667 80 -147c28 -14.667 123 -43.334 285 -86.001c128 -52.667 167.833 -139.834 119.5 -261.501s-157 -150.667 -326 -87s-224.833 106.5 -167.5 128.5c32.667 -5.33301 89 -22.666 169 -51.999s143.5 -23.666 190.5 17.001
s60.833 76.334 41.5 107.001s-48.5 54.167 -87.5 70.5s-102 35.5 -189 57.5s-147.167 54.833 -180.5 98.5s-42.5 91.334 -27.5 143.001s46 96 93 133s100.833 54.167 161.5 51.5z" />
    <glyph glyph-name="t" unicode="t" horiz-adv-x="469" 
d="M64 1312c14 -4 35.4971 -101.836 64.4971 -293.503s49.667 -341 62 -448s44 -168.167 95 -183.5s91.167 -23.666 120.5 -24.999s71 1 125 7c24.667 -51.333 -18.666 -74.166 -129.999 -68.499s-168.666 -23.5 -171.999 -87.5l25 -148
c6.66699 -39.333 -3.66602 -63.666 -30.999 -72.999c-20.667 5.33301 -71 62.666 -151 171.999c-22 0 -46 40.667 -72 122v74c0 66 34.667 99 104 99c0 4.66699 2.66699 7 8 7c0 92 -26.333 261.667 -79 509c-16.667 98.667 -25 186.334 -25 263.001
c0 49.333 18.667 74 56 74zM103.997 327.997c-4.66699 -33.333 4 -59.667 26 -79l7 53v26h-33z" />
    <glyph glyph-name="u" unicode="u" horiz-adv-x="687" 
d="M39 687c53.333 0 77.001 -48.6689 71.001 -146.002c25.333 -281.333 77.666 -429.666 156.999 -444.999c42.667 12 84.334 54.667 125.001 128s55.834 164 45.501 272s1.83398 157.667 36.501 149c42 -17.333 63 -55.666 63 -114.999
c-30.667 -184.667 17.666 -336.334 144.999 -455.001c52.667 -6 73.667 -12 63 -18c27.333 -23.333 14 -43.333 -40 -60c-74.667 0 -151.667 65 -231 195h-16c-64.667 -127.333 -125 -191 -181 -191h-16c-58 0 -113.333 60.667 -166 182c-38.667 76 -65.334 215 -80.001 417
c-8.66699 0 -13.334 9.33301 -14.001 28s12 38.334 38 59.001z" />
    <glyph glyph-name="v" unicode="v" horiz-adv-x="709" 
d="M55 749l16.999 0.000976562c17.333 7.33301 36 -88.334 56 -287.001s85.667 -320.667 197 -366c61.333 -18.667 106.5 47.5 135.5 198.5s-14.833 252.167 -131.5 303.5c4.66699 18.667 23 34.334 55 47.001c40.667 0 173.334 -34 398.001 -102v-8
c-6.66699 -15.333 -24.667 -23 -54 -23l-205 -9c19.333 -104.667 14.166 -210.334 -15.501 -317.001s-77.167 -166.667 -142.5 -180c-78.667 0 -156.667 66.5 -234 199.5s-120.333 290.167 -129 471.5c22.667 46.667 40.334 70.667 53.001 72z" />
    <glyph glyph-name="w" unicode="w" horiz-adv-x="935" 
d="M641 736c80 0 148.169 -57.1631 204.502 -171.496s82.5 -221.833 78.5 -322.5s-32.833 -170.834 -86.5 -210.501s-126.834 -48.334 -219.501 -26.001s-190.667 90.5 -294 204.5c-24 -64 -61.667 -96.667 -113 -98s-100.666 35.667 -147.999 111
c-15.333 25.333 -27.166 50.5 -35.499 75.5s-15 68.333 -20 130s-1.33301 124.667 11 189s30.666 94.333 54.999 90s36.5 -13.5 36.5 -27.5c-19.333 -39.333 -29 -80.666 -29 -123.999c0 -178 30.667 -292.667 92 -344c58.667 -30.667 88.667 -12.334 90 54.999
s2 110.666 2 129.999s11.5 27 34.5 23s49.167 -35 78.5 -93s68.166 -112.833 116.499 -164.5s102.666 -78.334 162.999 -80.001s107.333 23 141 74s38.667 130.667 15 239s-56.334 176.5 -98.001 204.5s-77.5 27.667 -107.5 -1s-40.333 -84.167 -31 -166.5
s20.833 -141.5 34.5 -177.5s9.83398 -55 -11.499 -57c-99.333 85.333 -126 233.333 -80 444c34 48 74.333 79.333 121 94z" />
    <glyph glyph-name="x" unicode="x" horiz-adv-x="591" 
d="M129 871l39.999 -176.001c26 -75.333 50 -140.666 72 -195.999s40 -93.666 54 -114.999c95.333 71.333 184.333 120.666 267 147.999v-8c-48 -60 -108.333 -122 -181 -186l-31 -35l220 -305c20 -29.333 25 -55 15 -77l-23 -31c-28.667 0 -82.167 62.167 -160.5 186.5
s-118.166 177.166 -119.499 158.499c-80.667 -61.333 -134.834 -122.5 -162.501 -183.5s-50.167 -86.5 -67.5 -76.5l-39 84c0 65.333 68.667 153.333 206 264c-7.33301 2.66699 -36.166 67.667 -86.499 195s-76.833 206.5 -79.5 237.5s0.333008 55.833 9 74.5
s31 32.334 67 41.001z" />
    <glyph glyph-name="y" unicode="y" horiz-adv-x="533" 
d="M29 620l17.998 0.000976562c36.667 0 47.334 -18.333 32.001 -55c12.667 -228 89.334 -322.333 230.001 -283c94 12 132.667 113.333 116 304c28 65.333 59.333 68 94 8c0 -112 -1.5 -211.333 -4.5 -298s-18.833 -210.834 -47.5 -372.501s-81.5 -262.167 -158.5 -301.5
s-164.333 -46.333 -262 -21s-151.167 100.666 -160.5 225.999c0 127.333 101.333 225 304 293c10 -4.66699 17.667 -7 23 -7c-145.333 -122 -219 -222.333 -221 -301s40 -121.667 126 -129c132.667 4 210.5 66.833 233.5 188.5s36.333 199.834 40 234.501
s8.16699 73.667 13.5 117c-25.333 -27.333 -72 -43 -140 -47c-96 -15.333 -164.167 10.667 -204.5 78s-63.5 142 -69.5 224s6.66699 129.333 38 142z" />
    <glyph glyph-name="z" unicode="z" horiz-adv-x="681" 
d="M292 735c196.667 -16 269.001 -76.666 217.001 -181.999c0 -18.667 -20 -74 -60 -166c72.667 -4 100.667 -21.333 84 -52c0 -18.667 -53 -27.667 -159 -27c-37.333 -40.667 -68.5 -84.334 -93.5 -131.001s0.833008 -77 77.5 -91s181.667 7.66699 315 65l13 -18
c0 -40.667 -85.333 -85.667 -256 -135c-210 6 -294.667 53.167 -254 141.5s82.334 151.5 125.001 189.5l-97 70c9.33301 24.667 23.333 37 42 37l117 -38c23.333 5.33301 42.666 70 57.999 194c-4 40.667 -44 61 -120 61c-76 4.66699 -134 -3.5 -174 -24.5
s-63.333 -78.5 -70 -172.5h-6c-17.333 0 -32.333 29.667 -45 89s-3.83398 105.833 26.499 139.5s116.833 50.5 259.5 50.5z" />
    <glyph glyph-name="braceleft" unicode="{" horiz-adv-x="535" 
d="M388 1599c68.667 4 100.335 -17 95.002 -63c-2 -36.667 -18.667 -46 -50 -28s-84.5 5.5 -159.5 -37.5s-111.167 -105 -108.5 -186s25.5 -153 68.5 -216s64.5 -155.333 64.5 -277s-45.667 -218.834 -137 -291.501c41.333 -31.333 70 -70.666 86 -117.999
s10.667 -130 -16 -248s-29 -202.5 -7 -253.5s85 -85.5 189 -103.5c30 -18.667 45 -31.334 45 -38.001c0 -26.667 -44.5 -33.667 -133.5 -21s-147.833 55.667 -176.5 129s-33.667 167.833 -15 283.5s26.667 193 24 232s-26.167 67.833 -70.5 86.5s-52.333 40.334 -24 65.001
s63 56.5 104 95.5s57.667 106.167 50 201.5s-35.834 185.5 -84.501 270.5s-68.334 161.833 -59.001 230.5s40.5 131.667 93.5 189s126.833 90 221.5 98z" />
    <glyph glyph-name="bar" unicode="|" horiz-adv-x="294" 
d="M167 1505c1.33301 -1.33301 12.3379 -26.6689 33.0049 -76.002c-7.33301 -40 -12.833 -92.333 -16.5 -157s0.666016 -198.667 12.999 -402s17.833 -311 16.5 -323s1.33398 -83.667 8.00098 -215s13.667 -226.666 21 -285.999s17.333 -152.166 30 -278.499
s-3.83301 -183.5 -49.5 -171.5s-73.334 107.667 -83.001 287s-16.834 299.333 -21.501 360s-10.334 164 -17.001 310s-17.334 281 -32.001 405s-23.834 215 -27.501 273s1.83301 119.167 16.5 183.5s51 94.5 109 90.5z" />
    <glyph glyph-name="braceright" unicode="}" horiz-adv-x="672" 
d="M417 1605c196 -24.667 258.166 -124.828 186.499 -300.495s-126.834 -297 -165.501 -364s-31.5 -117 21.5 -150s108.167 -61.833 165.5 -86.5l-12 -30c-31.333 -16.667 -53.5 -69.834 -66.5 -159.501s-7.33301 -188.667 17 -297s21.5 -196.5 -8.5 -264.5
s-90 -112.167 -180 -132.5s-166 -31.5 -228 -33.5s-100.333 6.33301 -115 25c-1.33301 54.667 43.334 77 134.001 67c191.333 15.333 294.5 63.166 309.5 143.499s6.16699 187.166 -26.5 320.499s-11.334 242.666 63.999 327.999c-64 18 -119 54 -165 108
s-46.333 117.5 -1 190.5s79.333 139.667 102 200s42.834 118.166 60.501 173.499s16.334 100.666 -3.99902 135.999s-72 47.833 -155 37.5s-122.5 2.83398 -118.5 39.501s65.667 53 185 49z" />
    <glyph glyph-name="asciitilde" unicode="~" horiz-adv-x="841" 
d="M247 1222c50.667 0 94.002 -20.502 130.002 -61.502s80.833 -55.333 134.5 -43s80.5 35.833 80.5 70.5c35.333 7.33301 48.166 -8 38.499 -46s-46.334 -65.833 -110.001 -83.5s-115.5 -3.66699 -155.5 42s-80 65.834 -120 60.501s-68.5 -17.5 -85.5 -36.5
s-29.833 -28.167 -38.5 -27.5s-14 7.33398 -16 20.001c-1.33301 57.333 46 92.333 142 105z" />
    <glyph glyph-name="exclamdown" unicode="&#xa1;" horiz-adv-x="263" 
d="M78 -481c-16.667 33.333 -29 102.667 -37 208c0 27.333 6.33301 117 19 269s21.167 280.167 25.5 384.5s4.33301 202.5 0 294.5s4.16699 131.667 25.5 119c31.333 -69.333 48 -143 50 -221s2 -170 0 -276s-3 -171.833 -3 -197.5v-95.5v-412
c-18 -38 -44.667 -62.333 -80 -73zM123 950.001c-52.667 0 -86.667 14.332 -102 42.999v22c19.333 24.667 47.333 41.334 84 50.001c56 -10 84 -31.667 84 -65c0 -16 -22 -32.667 -66 -50z" />
    <glyph glyph-name="cent" unicode="&#xa2;" horiz-adv-x="636" 
d="M512 724c-69.333 -152 -143 -323 -221 -513s-123 -281.333 -135 -274s-18 17.333 -18 30l101 260l85 223.5c26 67.667 55.667 137 89 208s57.333 106.5 72 106.5c18 0 27 -13.667 27 -41zM368 620c64.667 0 121.337 -26.167 170.004 -78.5s52.334 -74.5 11.001 -66.5
c-75.333 54 -131.333 78.333 -168 73c-78.667 -2 -138.334 -25.5 -179.001 -70.5s-62 -101.167 -64 -168.5s31.667 -126.5 101 -177.5s158 -90.5 266 -118.5c67.333 -28 36.666 -39 -92.001 -33s-224.334 50.5 -287.001 133.5s-87.834 165.167 -75.501 246.5
s44.666 145 96.999 191s125.833 69 220.5 69z" />
    <glyph glyph-name="sterling" unicode="&#xa3;" horiz-adv-x="991" 
d="M768 1413c56 0 94.668 -27 116.001 -81c-12 -32 -37 -43.667 -75 -35c-50.667 48 -103 44.167 -157 -11.5s-99 -132.834 -135 -231.501s-64.667 -201.334 -86 -308.001c93.333 10 159.666 15 198.999 15c60 -32 -10.667 -69.333 -212 -112
c-34.667 -145.333 -92.667 -297.333 -174 -456c38.667 -27.333 146 -55.333 322 -84c180 8 281.667 47.5 305 118.5s43.333 117.333 60 139s33.667 10.834 51 -32.499c-17.333 -75.333 -38 -136.833 -62 -184.5s-86.667 -85.5 -188 -113.5s-214.333 -25.667 -339 7
s-205 58.667 -241 78c-48.667 -19.333 -86.167 -24.166 -112.5 -14.499s-34.833 34.667 -25.5 75s52.333 53.5 129 39.5c64.667 82 124 224.667 178 428l-78 14c-43.333 28.667 -14.333 53.667 87 75c61.333 279.333 131 463.833 209 553.5s154.333 130.167 229 121.5z" />
    <glyph glyph-name="currency" unicode="&#xa4;" horiz-adv-x="942" 
d="M909 662c35.333 -14.667 25.334 -39.665 -29.999 -74.998l-144 -95l21 -114l-7 -86l-30 -78c28 -28.667 58 -71 90 -127c-13.333 -28.667 -56 -0.666992 -128 84c-116.667 -147.333 -275.334 -180 -476.001 -98c-22.667 6.66699 -54.334 -22.5 -95.001 -87.5
s-63.5 -83.833 -68.5 -56.5s25.167 91.333 90.5 192c-60 85.333 -61.667 140.333 -5 165c0 106.667 19.333 185 58 235c-48 57.333 -73 112.666 -75 165.999c6.66699 34.667 48 -4.33301 124 -117c62.667 81.333 146.334 123.166 251.001 125.499
s180.667 -44.167 228 -139.5zM191.001 328.002c-4 -48 0.666992 -93 14 -135l-14 -7c-26 38 -45.667 64 -59 78c-8 -68 45.333 -115.167 160 -141.5s208.5 -1.83301 281.5 73.5s94.167 160 63.5 254s-85 141 -163 141s-144.667 -31 -200 -93s-83 -118.667 -83 -170z" />
    <glyph glyph-name="yen" unicode="&#xa5;" horiz-adv-x="955" 
d="M868 1428c48.667 4 72.999 -13.999 72.999 -53.999c-127.333 -118.667 -214.666 -242.334 -261.999 -371.001c30.667 -8.66699 101.667 -26.667 213 -54c41.333 -58.667 19.333 -80.334 -66 -65.001l-181 60c-46 -90 -91.667 -184.333 -137 -283l441 -90
c43.333 -18.667 56.833 -32.667 40.5 -42s-24.5 -16.666 -24.5 -21.999c-244.667 36.667 -406 57.334 -484 62.001c-57.333 -135.333 -127 -322.333 -209 -561c-50.667 -10.667 -78 2.66602 -82 39.999s44.667 221.666 146 552.999c-189.333 40 -281.5 70.333 -276.5 91
s52.333 25.334 142 14.001s139.834 -14.333 150.501 -9c-32 130 -71 216.667 -117 260c-65.333 -6 -106.833 -10.5 -124.5 -13.5s-45.334 8.33301 -83.001 34s18.5 44.5 168.5 56.5c-107.333 170 -161 258.667 -161 266c0 32 19.5 50.167 58.5 54.5
s157.167 -174.834 354.5 -537.501c198 416.667 338 620.334 420 611.001z" />
    <glyph glyph-name="brokenbar" unicode="&#xa6;" horiz-adv-x="224" 
d="M106 1610c53.333 0 75 -90.335 65 -271.002s-12.333 -311.167 -7 -391.5s-4.5 -114.166 -29.5 -101.499s-39.833 65.167 -44.5 157.5s-4.66699 217.833 0 376.5s10 235.334 16 230.001zM127 606.998c-1.33301 -2 8.33594 -18.334 29.0029 -49.001
c-32.667 -329.333 -55.834 -546.666 -69.501 -651.999s-15.334 -171.5 -5.00098 -198.5s16.666 -53.167 18.999 -78.5s-15 -37 -52 -35s-49.833 59.333 -38.5 172l40 381c15.333 141.333 23 253.333 23 336s18 124 54 124z" />
    <glyph glyph-name="section" unicode="&#xa7;" horiz-adv-x="913" 
d="M614 1423c148 -46.667 208.666 -84.502 181.999 -113.502s-78.334 -29.5 -155.001 -1.5s-143 34.5 -199 19.5s-103.667 -50.5 -143 -106.5s-53.333 -113 -42 -171s47 -107.5 107 -148.5s174.833 -107.167 344.5 -198.5s241.5 -204.333 215.5 -339s-93.333 -213 -202 -235
c74.667 -34 107.334 -105 98.001 -213s-55 -192 -137 -252s-198.667 -88 -350 -84s-248.833 39 -292.5 105s-44.5 92.667 -2.5 80l7 -2c22.667 -26.667 60.834 -49.667 114.501 -69s125.667 -26.166 216 -20.499s172.666 34.334 246.999 86.001s95.5 119.667 63.5 204
s-116 134.833 -252 151.5s-234.833 65.167 -296.5 145.5s-65.5 188.666 -11.5 324.999s92.333 226.833 115 271.5c-52 54.667 -83.667 125.167 -95 211.5s24.834 171.833 108.501 256.5s203.5 117.334 359.5 98.001zM335.999 785.998
c-93.333 -146.667 -140.501 -256.999 -141.501 -330.999s32.667 -130.333 101 -169s139.166 -67.167 212.499 -85.5s142.833 -11.333 208.5 21s100.834 88.666 105.501 168.999s-31.666 146.833 -108.999 199.5s-203 118 -377 196z" />
    <glyph glyph-name="dieresis" unicode="&#xa8;" horiz-adv-x="946" 
d="M136 1384c66.667 -28.667 73.834 -71.5 21.501 -128.5s-90.333 -51.167 -114 17.5s7.16602 105.667 92.499 111zM756 1321c100 -6 133.333 -37.5 100 -94.5s-64.5 -74.833 -93.5 -53.5s-41.5 51.333 -37.5 90s14.333 58 31 58z" />
    <glyph glyph-name="copyright" unicode="&#xa9;" horiz-adv-x="1222" 
d="M754 1430c136.667 -14.667 239.836 -51.166 309.503 -109.499s112 -153 127 -284s-2.83301 -258.5 -53.5 -382.5s-108.834 -210.333 -174.501 -259s-151.834 -78.5 -258.501 -89.5s-210.834 -6.33301 -312.501 14s-187.167 70.666 -256.5 150.999
s-96.5 181.833 -81.5 304.5s66.5 243.167 154.5 361.5s180 199.333 276 243s186 60.5 270 50.5zM187.002 884.001c-42.667 -162 -28.001 -282.5 43.999 -361.5s151 -124.333 237 -136s185.5 -6.83398 298.5 14.499s197.833 89.5 254.5 204.5s81 238.833 73 371.5
s-44.167 220.5 -108.5 263.5s-129.166 78.167 -194.499 105.5c-51.333 -78 -70 -89.333 -56 -34c2 30.667 -21.5 41 -70.5 31s-123.167 -44.167 -222.5 -102.5s-184.333 -177.166 -255 -356.499zM664.001 1070c111.333 -26.667 120.004 -59.333 26.0039 -98
c-52.667 -2 -66 10 -40 36c-60 8 -116.167 -25.667 -168.5 -101s-62.5 -143.833 -30.5 -205.5s88 -95.5 168 -101.5c58 -16.667 52.167 -30.167 -17.5 -40.5s-129.834 3 -180.501 40s-73.834 91 -69.501 162s38.666 143.833 102.999 218.5s134.166 104.667 209.499 90z" />
    <glyph glyph-name="ordfeminine" unicode="&#xaa;" horiz-adv-x="448" 
d="M123 1363c35.333 -10 78.667 -35.333 130 -76c5.33301 0 15 12.667 29 38l9 4h4c34 -9.33301 51 -33 51 -71c-6 -18 -9 -29.333 -9 -34c0 -72.667 25.333 -109 76 -109l4 -8v-26c0 -8 -5.66699 -12 -17 -12c-28 0 -56 12.667 -84 38
c-4.66699 2.66699 -10.334 4 -17.001 4c-10.667 0 -33 -17 -67 -51c-24.667 -16.667 -41.667 -25 -51 -25h-29c-57.333 0 -96.666 49 -117.999 147c-2.66699 15.333 -4 31 -4 47c8.66699 48 22.667 84.333 42 109c8 6.66699 25 15 51 25zM89.001 1220
c0 -74 24 -119.001 72 -135.001h8c36.667 0 71.667 28.333 105 85v54c0 6 -16.667 20 -50 42c0 10.667 -27 23.334 -81 38.001h-12c-18.667 0 -32.667 -28 -42 -84z" />
    <glyph glyph-name="guillemotleft" unicode="&#xab;" horiz-adv-x="1227" 
d="M1176 652c52 -42.667 -23.998 -96.5 -227.998 -161.5s-345 -113.167 -423 -144.5c224.667 -113.333 393.667 -187.166 507 -221.499s174.666 -71.5 183.999 -111.5c-16.667 -30 -81.834 -26.833 -195.501 9.5s-242.5 91.166 -386.5 164.499s-209 130.333 -195 171
s120.333 95.834 319 165.501l349 121.5c34 11.333 57 13.666 69 6.99902zM707.002 646c23.333 -19.333 -52.9971 -84.832 -228.997 -196.499s-306.333 -184.834 -391 -219.501c204 -40 362.667 -77.167 476 -111.5s174.666 -71.5 183.999 -111.5
c-16.667 -30 -90.334 -24.167 -221.001 17.5s-247.334 75.334 -350.001 101.001s-161 61 -175 106s80.167 121.333 282.5 229s320.5 167.167 354.5 178.5s57 13.666 69 6.99902z" />
    <glyph glyph-name="logicalnot" unicode="&#xac;" horiz-adv-x="895" 
d="M18 572c0 15.333 7.00098 33.668 21.001 55.001l324 98.5c85.333 27 193.333 50.333 324 70s188 -24.833 172 -133.5c-70 -280.667 -123.833 -429.667 -161.5 -447s-43.834 28 -18.501 136s41.666 192.167 48.999 252.5s-21.667 79.166 -87 56.499l-207.5 -71.5
c-73 -25 -161.667 -43.5 -266 -55.5s-154.166 1 -149.499 39z" />
    <glyph glyph-name="registered" unicode="&#xae;" horiz-adv-x="1136" 
d="M505 1432c36 -18.667 33.3311 -34 -8.00195 -46c134.667 -14 242 -31.833 322 -53.5s141.667 -60.5 185 -116.5s75.333 -130.167 96 -222.5s16.834 -189.5 -11.499 -291.5s-87.833 -192.667 -178.5 -272s-247.5 -112.833 -470.5 -100.5s-350.5 100 -382.5 263
s-32 300.5 0 412.5s72.667 196.167 122 252.5s105.833 99.5 169.5 129.5s115.834 45 156.501 45zM108.998 763c26.667 -161.333 76.6709 -264.833 150.004 -310.5s187.666 -64.334 342.999 -56.001s269.666 68.833 342.999 181.5s104.666 216.834 93.999 312.501
s-38 183.667 -82 264s-153.833 128.833 -329.5 145.5s-284.834 7.5 -327.501 -27.5s-82.5 -87.167 -119.5 -156.5s-60.833 -187 -71.5 -353zM566.002 1183c134.667 -28 213.5 -64.168 236.5 -108.501s26.5 -92.5 10.5 -144.5s-62.333 -90.667 -139 -116
c-36.667 -21.333 -87 -35.666 -151 -42.999l137 -78v-7c15.333 -40.667 -54.667 -29 -210 35c16 -56.667 28.667 -92.667 38 -108s-1.83398 -30.5 -33.501 -45.5s-56.167 8.83301 -73.5 71.5s-28.666 155.167 -33.999 277.5s8.16699 197.333 40.5 225
s91.833 41.5 178.5 41.5zM418.002 947.999c3.33301 -50.667 10.333 -92.666 21 -125.999c184 10 288.333 58.667 313 146c-10 107.333 -109.333 154.333 -298 141c-24 -36.667 -36 -90.334 -36 -161.001z" />
    <glyph glyph-name="macron" unicode="&#xaf;" horiz-adv-x="670" 
d="M71 1045c160 -6.66699 289 -14.167 387 -22.5s158.667 -11.5 182 -9.5s34 -10 32 -36s-72.667 -33.667 -212 -23s-248.333 8.66699 -327 -6s-121.167 -2.16699 -127.5 37.5s15.5 59.5 65.5 59.5z" />
    <glyph glyph-name="degree" unicode="&#xb0;" horiz-adv-x="521" 
d="M209 1426c60 18 133.833 1.83203 221.5 -48.501s104.167 -118.5 49.5 -204.5s-112 -137.333 -172 -154s-112 -20.334 -156 -11.001s-81.167 32.833 -111.5 70.5s-37.833 92.834 -22.5 165.501s79 133.334 191 182.001zM197 1275c-23.333 4 -41.666 14.999 -54.999 32.999
c-37.333 -49.333 -56 -91.5 -56 -126.5s14.167 -63 42.5 -84s71.333 -25.667 129 -14s100.5 35.167 128.5 70.5s43.667 71.333 47 108s-51.334 69.334 -164.001 98.001c-19.333 0 -36.666 -26.333 -51.999 -79c-4.66699 0 -11.334 -2 -20.001 -6z" />
    <glyph glyph-name="plusminus" unicode="&#xb1;" horiz-adv-x="784" 
d="M93 183c160 -6.66699 289 -14.167 387 -22.5s158.667 -11.5 182 -9.5s34 -10 32 -36s-72.667 -33.667 -212 -23s-248.333 8.66699 -327 -6s-121.167 -2.16699 -127.5 37.5s15.5 59.5 65.5 59.5zM332 838c26 0 41.0039 -18.3311 45.0039 -54.998v-153
c13.333 -10 70.166 -18.667 170.499 -26s150.5 -21.666 150.5 -42.999s-14.667 -34 -44 -38s-77.833 -4.83301 -145.5 -2.5s-113.834 5.5 -138.501 9.5c-5.33301 -30 -8 -59.667 -8 -89s-1.83301 -69.5 -5.5 -120.5s-11.834 -76.5 -24.501 -76.5
c-49.333 21.333 -68.333 113.666 -57 276.999c2 0 -29 5.5 -93 16.5s-96.5 26.167 -97.5 45.5s15.667 32 50 38s68.166 8.16699 101.499 6.5s50 4.16602 50 17.499s-0.833008 41.166 -2.5 83.499s12.833 78.833 43.5 109.5h5z" />
    <glyph glyph-name="uni00B2" unicode="&#xb2;" horiz-adv-x="318" 
d="M169 1441c70.667 0 115.333 -29.502 134 -88.502s-26 -128.833 -134 -209.5l73 -84v-6l-22 -5l-68 33c-86 -17.333 -129 -2.33301 -129 45c7.33301 30 43 47 107 51c43.333 30 72 72.333 86 127s-7.33301 78 -64 70c-74 -73.333 -113.333 -91.666 -118 -54.999
c29.333 62.667 74.333 103.334 135 122.001z" />
    <glyph glyph-name="uni00B3" unicode="&#xb3;" horiz-adv-x="335" 
d="M150 1437c122.667 -19.333 141.668 -67.999 57.001 -145.999c80.667 -123.333 100.834 -200.5 60.501 -231.5s-84.333 -43 -132 -36s-77.5 26 -89.5 57s15.333 34.667 82 11s96.5 -8.16699 89.5 46.5s-34.833 99.667 -83.5 135c1.33301 29.333 25.666 55 72.999 77
c-10 46 -49.667 46 -119 0h-5c-4.66699 0 -8.33398 12.167 -11.001 36.5s23.333 41.166 78 50.499z" />
    <glyph glyph-name="acute" unicode="&#xb4;" horiz-adv-x="497" 
d="M455 1437l5.99902 -12c-22 -25.333 -155.667 -139.333 -401 -342c-16 6 -24 12 -24 18c8.66699 53.333 91.334 137.666 248.001 252.999c76 52.667 133 80.334 171 83.001z" />
    <glyph glyph-name="mu" unicode="&#xb5;" horiz-adv-x="743" 
d="M332 584l13.0029 -0.000976562c6.66699 0 20 -6.66699 40 -20l-2 -28c-72 -213.333 -94.333 -341.333 -67 -384s56.666 -60.167 87.999 -52.5s57.666 24.167 78.999 49.5s41.666 93 60.999 203s43.333 165 72 165s52.334 -21 71.001 -63
c-48 -119.333 -73.667 -213.666 -77 -282.999s34 -90.666 112 -63.999c39.333 -6 25.333 -25.333 -42 -58s-116.333 -11.334 -147 63.999c-24 -51.333 -59.333 -86.5 -106 -105.5s-87.834 -15.667 -123.501 10s-53.5 54.167 -53.5 85.5c-24 -68.667 -51 -135.667 -81 -201
s-65.667 -129.666 -107 -192.999s-73.666 -85.333 -96.999 -66s0 78.833 70 178.5s119.667 198.167 149 295.5s61.666 243.666 96.999 438.999z" />
    <glyph glyph-name="paragraph" unicode="&#xb6;" horiz-adv-x="1113" 
d="M360 1295c407.333 4 644.335 -35.333 711.002 -118c0 -148 -2.16699 -265.167 -6.5 -351.5s-11 -199.166 -20 -338.499s-9.16699 -258 -0.5 -356c29.333 -72 20.333 -116.667 -27 -134c-25.333 26 -38 81.667 -38 167v287c0 106 3.33301 337 10 693
c-28.667 17.333 -86 34.166 -172 50.499s-129 17.166 -129 2.49902c-8.66699 -318.667 -13 -570.5 -13 -755.5s3.16699 -305.667 9.5 -362s2.66602 -88.666 -11.001 -96.999s-25.834 -1.83301 -36.501 19.5s-20.5 121.333 -29.5 300s-13.5 265.667 -13.5 261l-120 7
c-264 0 -420.667 107.333 -470 322c-2.66699 232.667 116 367 356 403z" />
    <glyph glyph-name="periodcentered" unicode="&#xb7;" horiz-adv-x="251" 
d="M73 1017c107.333 -0.666992 164.001 -44.666 170.001 -131.999c-12.667 -50.667 -50.667 -76 -114 -76c-98.667 73.333 -117.334 142.666 -56.001 207.999z" />
    <glyph glyph-name="periodcentered" unicode="&#x2219;" horiz-adv-x="251" 
d="M73 1017c107.333 -0.666992 164.001 -44.666 170.001 -131.999c-12.667 -50.667 -50.667 -76 -114 -76c-98.667 73.333 -117.334 142.666 -56.001 207.999z" />
    <glyph glyph-name="cedilla" unicode="&#xb8;" horiz-adv-x="373" 
d="M106 10c25.333 -8.66699 35.332 -44.666 29.999 -107.999c66.667 -20.667 118.5 -43.834 155.5 -69.501s53.5 -67.334 49.5 -125.001s-85 -97.834 -243 -120.501c-69.333 22.667 -82.333 48.334 -39 77.001c118 0 187.333 18 208 54
c0 60.667 -61.667 96.334 -185 107.001c-25.333 0 -38 18 -38 54c14.667 87.333 35.334 131 62.001 131z" />
    <glyph glyph-name="uni00B9" unicode="&#xb9;" horiz-adv-x="485" 
d="M351 1359c115.333 118.667 134.67 113.334 58.0029 -15.999s-129.334 -194.666 -158.001 -195.999c-30 1.33301 -60.833 25.166 -92.5 71.499s-77.834 105.166 -138.501 176.499c14 36.667 53 17.667 117 -57s98.333 -112 103 -112h5
c13.333 26.667 48.666 71 105.999 133z" />
    <glyph glyph-name="ordmasculine" unicode="&#xba;" horiz-adv-x="357" 
d="M152 1436c37.333 17.333 83.002 2.16797 137.002 -45.499s64.167 -112.334 30.5 -194.001s-69 -130.334 -106 -146.001s-69.167 -19 -96.5 -10s-50.333 31.333 -69 67s-23.334 87.834 -14.001 156.501s48.666 126 117.999 172zM145.002 1293
c-14.667 4 -25.999 14.667 -33.999 32c-6.66699 -30 -11.667 -63.333 -15 -100s6 -62 28 -76s44.333 -17.5 67 -10.5s38.5 22.167 47.5 45.5s16.167 51 21.5 83s-18.334 67.667 -71.001 107c-12 0 -22.667 -25 -32 -75c-2.66699 0 -6.66699 -2 -12 -6z" />
    <glyph glyph-name="guillemotright" unicode="&#xbb;" horiz-adv-x="1284" 
d="M20 729c12.667 7.33301 37.166 4.83008 73.499 -7.50293l373.5 -132.5c212.667 -76 326.334 -136.167 341.001 -180.5s-55 -106.666 -209 -186.999s-291.833 -140.166 -413.5 -179.499s-191.167 -42.666 -208.5 -9.99902c9.33301 43.333 74.666 83.833 195.999 121.5
s302.333 118.167 543 241.5c-83.333 34 -234.166 86.5 -452.499 157.5s-299.5 129.833 -243.5 176.5zM521.999 721.997c12.667 7.33301 37.1689 4.83105 73.502 -7.50195s162.666 -77.166 378.999 -194.499s317 -200.666 302 -249.999s-77.5 -88 -187.5 -116
s-234.833 -64.667 -374.5 -110s-218.167 -51.666 -235.5 -18.999c9.33301 44 74.666 84.667 195.999 122s291.333 77.666 510 120.999c-90.667 38 -230.167 118 -418.5 240s-269.833 193.333 -244.5 214z" />
    <glyph glyph-name="onequarter" unicode="&#xbc;" horiz-adv-x="1154" 
d="M1103 1450c31.333 -16.667 41.668 -40.667 31.001 -72s-94.5 -177.666 -251.5 -438.999s-282 -483.666 -375 -666.999s-161.333 -307.833 -205 -373.5s-72.834 -96.167 -87.501 -91.5s-22 19.667 -22 45c36 125.333 131.833 327.666 287.5 606.999
s296.5 516.666 422.5 711.999s192.667 288.333 200 279zM408.002 1152c30.667 -6 42.667 -31.833 36 -77.5l-12 -81.5c-1.33301 -8.66699 -3 -25.667 -5 -51s-3.16699 -59.666 -3.5 -102.999s2.66699 -79.666 9 -108.999s9.5 -45 9.5 -47
c-3.33301 -14 -8.66602 -21 -15.999 -21c-36 -1.33301 -62.333 18.667 -79 60c-11.333 56 -11.833 104.667 -1.5 146s20.833 88 31.5 140c-4.66699 -63.333 -57.667 -145.333 -159 -246c-69.333 -52.667 -121.833 -73.334 -157.5 -62.001s-37.334 21.333 -5.00098 30
s67 34.667 104 78s75.5 92 115.5 146s66.833 93.167 80.5 117.5s31.167 51.166 52.5 80.499zM861.002 -21c14.667 88.667 24.001 142.001 28.001 160.001c-16 0 -60.333 4.66699 -133 14s-110.834 29.166 -114.501 59.499s6.33301 64.166 30 101.499s46 69 67 95
s39.333 52.5 55 79.5s28.167 44.167 37.5 51.5c8.66699 -5.33301 19.334 -12.666 32.001 -21.999c14.667 -24 0.5 -63.167 -42.5 -117.5s-72 -96 -87 -125s-2 -45.833 39 -50.5s78.5 -12.334 112.5 -23.001c11.333 20 19.5 43.667 24.5 71s30.5 27.666 76.5 0.999023
c-18.667 -65.333 -30.834 -108.666 -36.501 -129.999s-9.5 -53.166 -11.5 -95.499s-9.16699 -64.5 -21.5 -66.5s-30.833 -3 -55.5 -3z" />
    <glyph glyph-name="onehalf" unicode="&#xbd;" horiz-adv-x="1119" 
d="M1049 1428c31.333 -16.667 41.668 -40.667 31.001 -72s-94.5 -177.666 -251.5 -438.999s-282 -483.666 -375 -666.999s-161.333 -307.833 -205 -373.5s-72.834 -96.167 -87.501 -91.5s-22 19.667 -22 45c36 125.333 131.833 327.666 287.5 606.999
s296.5 516.666 422.5 711.999s192.667 288.333 200 279zM805.002 512c110 29.333 168.499 -2.33203 175.499 -94.999s-51.5 -197.334 -175.5 -314.001l106 -116v-8l-32 -7l-127 74c-116 -35.333 -171.667 -29.333 -167 18c16.667 51.333 70.334 71 161.001 59
c106.667 108 157.5 200 152.5 276s-51.333 74.833 -139 -3.5s-137.5 -95.5 -149.5 -51.5c42 86 107 142 195 168zM408.001 1152c30.667 -6 42.667 -31.833 36 -77.5l-12 -81.5c-1.33301 -8.66699 -3 -25.667 -5 -51s-3.16699 -59.666 -3.5 -102.999
s2.66699 -79.666 9 -108.999s9.5 -45 9.5 -47c-3.33301 -14 -8.66602 -21 -15.999 -21c-36 -1.33301 -62.333 18.667 -79 60c-11.333 56 -11.833 104.667 -1.5 146s20.833 88 31.5 140c-4.66699 -63.333 -57.667 -145.333 -159 -246
c-69.333 -52.667 -121.833 -73.334 -157.5 -62.001s-37.334 21.333 -5.00098 30s67 34.667 104 78s75.5 92 115.5 146s66.833 93.167 80.5 117.5s31.167 51.166 52.5 80.499z" />
    <glyph glyph-name="threequarters" unicode="&#xbe;" horiz-adv-x="1147" 
d="M1049 1436c31.333 -16.667 41.668 -40.667 31.001 -72s-94.5 -177.666 -251.5 -438.999s-282 -483.666 -375 -666.999s-161.333 -307.833 -205 -373.5s-72.834 -96.167 -87.501 -91.5s-22 19.667 -22 45c36 125.333 131.833 327.666 287.5 606.999
s296.5 516.666 422.5 711.999s192.667 288.333 200 279zM814.002 536c216.667 -15.333 238.668 -79.333 66.001 -192c132.667 -133.333 170.667 -226.5 114 -279.5s-124.667 -72.5 -204 -58.5s-129 40.5 -149 79.5s25.5 43.5 136.5 13.5s160.667 -10.333 149 59
s-57.834 126.333 -138.501 171c8 42 47 75.667 117 101c5.33301 55.333 -59.334 54 -194.001 -4h-8c-36 18 -49.167 38 -39.5 60s59.834 38.667 150.501 50zM408.003 1152c30.667 -6 42.667 -31.833 36 -77.5l-12 -81.5c-1.33301 -8.66699 -3 -25.667 -5 -51
s-3.16699 -59.666 -3.5 -102.999s2.66699 -79.666 9 -108.999s9.5 -45 9.5 -47c-3.33301 -14 -8.66602 -21 -15.999 -21c-36 -1.33301 -62.333 18.667 -79 60c-11.333 56 -11.833 104.667 -1.5 146s20.833 88 31.5 140c-4.66699 -63.333 -57.667 -145.333 -159 -246
c-69.333 -52.667 -121.833 -73.334 -157.5 -62.001s-37.334 21.333 -5.00098 30s67 34.667 104 78s75.5 92 115.5 146s66.833 93.167 80.5 117.5s31.167 51.166 52.5 80.499z" />
    <glyph glyph-name="questiondown" unicode="&#xbf;" horiz-adv-x="753" 
d="M431 -415c-254.667 -0.666992 -389.998 44.3379 -405.998 135.005s-1.66699 165.167 43 223.5s127.334 139.833 248.001 244.5s156.667 192.667 108 264l-101 94c0 36 18 54 54 54c90 -50 143.167 -119.833 159.5 -209.5s-45.334 -191.834 -185.001 -306.501
s-215.834 -197.334 -228.501 -248.001s5 -89.334 53 -116.001s124.167 -41.334 228.5 -44.001s198.166 47.666 281.499 150.999c22.667 -6 34 -21.667 34 -47c-4 -104 -100.333 -169 -289 -195zM341.002 845.005c-40 0 -60.002 22.334 -60.002 67.001v7
c18.667 18 36.334 27 53.001 27h7c22.667 -11.333 34 -31.333 34 -60c-9.33301 -24.667 -20.666 -38.334 -33.999 -41.001z" />
    <glyph glyph-name="Agrave" unicode="&#xc0;" horiz-adv-x="993" 
d="M689 1435c6 -0.666992 26.665 -25.334 61.998 -74.001s74.333 -90.5 117 -125.5s73.334 -63.167 92.001 -84.5s1.83398 -17.666 -50.499 11.001s-111 74.167 -176 136.5s-95 98.333 -90 108s20.167 19.167 45.5 28.5zM686.998 1244
c42 -4.66699 76.5 -22.166 103.5 -52.499s48.333 -70.5 64 -120.5s27.834 -107.167 36.501 -171.5s12 -132.833 10 -205.5v-49c0 -14.667 -0.333008 -27.667 -1 -39c-2.66699 -48 -6 -94.833 -10 -140.5s-8.33301 -82.834 -13 -111.501c12 -4 27.333 -6 46 -6
c34 0 75 6.33301 123 19l-11 -21c-23.333 -30 -80.333 -54 -171 -72c-28.667 -114 -43 -193 -43 -237c0 -12.667 0.833008 -26.834 2.5 -42.501s3.83398 -33.167 6.50098 -52.5v-7c0 -9.33301 -3.33301 -18.166 -10 -26.499s-16 -12.5 -28 -12.5
c-22.667 0 -40.334 46.333 -53.001 139c-4 65.333 7.66699 151.333 35 258c-2 1.33301 -19.667 6.5 -53 15.5s-88.333 22.833 -165 41.5c-16 6.66699 -24 14.334 -24 23.001c0 6 2.16699 11.5 6.5 16.5s9.16602 11.167 14.499 18.5s10.666 12.166 15.999 14.499
s9.33301 3.5 12 3.5c20.667 -2.66699 49 -8.66699 85 -18s75.667 -20.666 119 -33.999c8.66699 66 16.834 124.5 24.501 175.5s11.5 105.833 11.5 164.5c0 24 -1.5 51.333 -4.5 82l-9 89c-3 28.667 -6.66699 56.667 -11 84s-9.83301 54 -16.5 80
c-18.667 49.333 -34 78 -46 86s-28.667 14 -50 18c-39.333 2.66699 -77.666 -23.666 -114.999 -78.999c-52 -76 -139 -248.667 -261 -518c-118.667 -275.333 -180.667 -469 -186 -581c0 -22.667 2.66699 -42.334 8 -59.001c-26.667 -53.333 -45.334 -80 -56.001 -80
c-8 0 -15.833 5.16699 -23.5 15.5s-14.834 22.5 -21.501 36.5s-12.167 28 -16.5 42s-6.5 24.667 -6.5 32c0 3.33301 1.66699 11.333 5 24s9 31.667 17 57l32 97.5l50 145.5c30 86.667 63.333 173 100 259s76.667 173.333 120 262c86 175.333 151.333 288.666 196 339.999
c42.667 52 96.334 84.333 161.001 97z" />
    <glyph glyph-name="Aacute" unicode="&#xc1;" horiz-adv-x="997" 
d="M779 1435l5 -11c-18.667 -23.333 -130 -127 -334 -311c-13.333 5.33301 -20 10.666 -20 15.999c7.33301 48.667 76 125.334 206 230.001c63.333 48 111 73.333 143 76zM713 1252c43.333 -4.66699 79.165 -22.334 107.498 -53.001s50.666 -71 66.999 -121
s28.833 -107.5 37.5 -172.5s12.334 -134.167 11.001 -207.5v-48c0 -14.667 -0.666992 -28 -2 -40c-2.66699 -48 -6 -95 -10 -141s-8.66699 -83.333 -14 -112c12.667 -4 29 -6 49 -6c34.667 0 77 6.33301 127 19l-12 -21c-24 -30 -83 -54 -177 -72
c-30 -114.667 -45 -194 -45 -238c0 -13.333 0.833008 -28 2.5 -44s4.16699 -33.667 7.5 -53v-6c0 -9.33301 -3.5 -18.333 -10.5 -27s-16.833 -13 -29.5 -13c-23.333 0 -41.666 46.667 -54.999 140c-4 66 8.33301 152.667 37 260c-2.66699 1.33301 -21.167 6.33301 -55.5 15
l-171.5 42c-16.667 6.66699 -25 14.334 -25 23.001c0 6 2.33301 11.5 7 16.5s9.66699 11.167 15 18.5s10.833 12.333 16.5 15s9.83398 4 12.501 4c21.333 -3.33301 50.833 -9.66602 88.5 -18.999s78.834 -20.666 123.501 -33.999l25.5 176
c7.66699 51.333 11.5 106.666 11.5 165.999c0 24 -1.5 51.5 -4.5 82.5l-9 90c-3 29 -6.83301 57.167 -11.5 84.5s-10.334 54 -17.001 80c-19.333 49.333 -35.166 78.166 -47.499 86.499s-29.833 14.166 -52.5 17.499c-41.333 3.33301 -81 -23 -119 -79
c-54 -76 -144.333 -249.667 -271 -521c-124 -276.667 -188.333 -471.334 -193 -584.001c0 -23.333 2.33301 -43.333 7 -60c-26.667 -53.333 -45.667 -80 -57 -80c-8 0 -16.167 5.16699 -24.5 15.5s-15.833 22.5 -22.5 36.5s-12.334 28.167 -17.001 42.5s-7 24.833 -7 31.5
c0 4 1.66699 12.333 5 25s9.16602 31.834 17.499 57.501l33 98l52.5 146.5c31.333 86.667 66 173.334 104 260.001s79.333 174.667 124 264c90 176 158 290 204 342c44.667 52 100.334 84.333 167.001 97z" />
    <glyph glyph-name="Acircumflex" unicode="&#xc2;" horiz-adv-x="919" 
d="M675 1420c24.667 9.33301 58.666 -39.335 101.999 -146.002s57.666 -163.667 42.999 -171c-21.333 -11.333 -49.166 26.834 -83.499 114.501s-53.166 131.5 -56.499 131.5c-66 -84.667 -111.5 -145.167 -136.5 -181.5s-42.5 -48.166 -52.5 -35.499
s-2.83301 38.667 21.5 78s78.5 109.333 162.5 210zM651.999 1145c40.667 -4 74.1689 -20.332 100.502 -48.999s47.166 -66.167 62.499 -112.5s27.166 -99.666 35.499 -159.999s11.833 -124.5 10.5 -192.5v-45.5c0 -13.667 -0.666992 -25.834 -2 -36.501
c-2.66699 -44.667 -5.83398 -88.334 -9.50098 -131.001s-7.83398 -77.334 -12.501 -104.001c11.333 -4 26.333 -6 45 -6c33.333 0 73.333 6 120 18l-11 -19c-22.667 -28 -78 -50.667 -166 -68c-28 -106 -42 -179.667 -42 -221c0 -12 0.666992 -25.333 2 -40
s3.33301 -31 6 -49v-6c0 -8.66699 -3.16699 -17 -9.5 -25s-15.5 -12 -27.5 -12c-22 0 -39 43.333 -51 130c-4 61.333 7.33301 141.666 34 240.999c-2 1.33301 -19.167 6.16602 -51.5 14.499s-86.166 21.166 -161.499 38.499c-15.333 6.66699 -23 14 -23 22
c0 5.33301 2.16699 10.333 6.5 15s9 10.5 14 17.5s10.167 11.5 15.5 13.5s9 3 11 3c20.667 -2.66699 48.667 -8.33398 84 -17.001s74 -19 116 -31c8 61.333 15.833 115.833 23.5 163.5s11.5 98.834 11.5 153.501c0 22.667 -1.5 48.334 -4.5 77.001l-9 83
c-3 26.667 -6.66699 52.834 -11 78.501s-9.5 50.5 -15.5 74.5c-18 46 -32.833 72.833 -44.5 80.5s-28.167 13.167 -49.5 16.5c-38.667 2.66699 -76 -22 -112 -74c-50 -70.667 -134.667 -231.667 -254 -483c-116 -257.333 -176.333 -438.333 -181 -543
c0 -21.333 2.33301 -39.666 7 -54.999c-25.333 -50 -43.333 -75 -54 -75c-7.33301 0 -14.833 4.83301 -22.5 14.5s-14.667 21 -21 34s-11.666 26.167 -15.999 39.5s-6.5 23 -6.5 29c0 3.33301 1.66699 11 5 23s8.83301 29.833 16.5 53.5s18 54 31 91l48.5 136.5
c29.333 80 61.833 160.333 97.5 241s74.834 162.334 117.501 245.001c83.333 164 146.666 270 189.999 318c42 48 94.333 78 157 90z" />
    <glyph glyph-name="Atilde" unicode="&#xc3;" horiz-adv-x="1016" 
d="M647 1423c43.333 0 80.3311 -18.1641 110.998 -54.4971s68.834 -49 114.501 -38s68.5 31.833 68.5 62.5c30 6.66699 41 -6.83301 33 -40.5s-39.167 -58.334 -93.5 -74.001s-98.666 -3.33398 -132.999 36.999s-68.5 58.166 -102.5 53.499s-58.167 -15.334 -72.5 -32.001
s-25.333 -24.667 -33 -24s-12.167 6.33398 -13.5 17.001c-1.33301 51.333 39 82.333 121 93zM690.998 1283c42 -4.66699 76.6641 -22.6689 103.997 -54.002s49 -72.666 65 -123.999s28.167 -110.166 36.5 -176.499s11.833 -136.833 10.5 -211.5v-49.5
c0 -15 -0.666992 -28.5 -2 -40.5c-2.66699 -48.667 -6 -96.5 -10 -143.5s-8.33301 -85.5 -13 -115.5c12 -4 27.667 -6 47 -6c34 0 75 6.66699 123 20l-11 -22c-23.333 -30.667 -80.333 -55.334 -171 -74.001c-29.333 -116.667 -44 -197.667 -44 -243
c0 -13.333 0.833008 -28.166 2.5 -44.499s3.83398 -34.5 6.50098 -54.5v-6c0 -9.33301 -3.33301 -18.5 -10 -27.5s-16.334 -13.5 -29.001 -13.5c-22 0 -39.333 47.667 -52 143c-4.66699 68 7 156.667 35 266c-2 1.33301 -19.833 6.5 -53.5 15.5l-166.5 42.5
c-16 7.33301 -24 15.333 -24 24c0 6 2.33301 11.667 7 17s9.5 11.666 14.5 18.999s10.333 12.333 16 15s9.5 4 11.5 4c20.667 -3.33301 49.334 -9.83301 86.001 -19.5s76.667 -21.167 120 -34.5c8.66699 67.333 16.834 127.333 24.501 180s11.5 109 11.5 169
c0 24.667 -1.5 52.834 -4.5 84.501l-9 92c-3 29.667 -6.66699 58.5 -11 86.5s-9.83301 55.333 -16.5 82c-18.667 50.667 -34 80.167 -46 88.5s-29 14.166 -51 17.499c-40 3.33301 -78.667 -23.667 -116 -81c-52 -78 -139.333 -255.333 -262 -532
c-120 -283.333 -182.333 -482.333 -187 -597c0 -23.333 2.33301 -43.666 7 -60.999c-26 -54.667 -44.667 -82 -56 -82c-7.33301 0 -15 5.33301 -23 16s-15.333 23.167 -22 37.5s-12.167 28.666 -16.5 42.999s-6.5 25.166 -6.5 32.499c0 4 1.66699 12.5 5 25.5
s9 32.5 17 58.5l32 100l51 150c30 88.667 63.333 177.334 100 266.001s77 178.334 121 269.001c86.667 180 152.334 296.667 197.001 350c43.333 52.667 97.333 85.667 162 99z" />
    <glyph glyph-name="Adieresis" unicode="&#xc4;" horiz-adv-x="1041" 
d="M613 1430c57.333 -24.667 63.5 -61.667 18.5 -111s-77.667 -44.333 -98 15s6.16699 91.333 79.5 96zM854 1402c86 -5.33301 114.667 -32.499 86 -81.499s-55.5 -64.333 -80.5 -46s-35.833 44.166 -32.5 77.499s12.333 50 27 50zM714 1282
c44 -4.66699 79.9941 -22.6641 107.994 -53.9971s50.333 -72.5 67 -123.5s29.334 -109.667 38.001 -176s12 -136.833 10 -211.5v-49.5c0 -15 -0.333008 -28.833 -1 -41.5c-3.33301 -48.667 -6.83301 -96.5 -10.5 -143.5s-8.16699 -85.167 -13.5 -114.5
c12.667 -4 28.667 -6 48 -6c35.333 0 78 6.66699 128 20l-12 -22c-24 -30.667 -83 -55.334 -177 -74.001c-30 -116.667 -45 -197.667 -45 -243c0 -13.333 0.833008 -28.166 2.5 -44.499s3.83398 -34.5 6.50098 -54.5v-6c0 -9.33301 -3.33301 -18.5 -10 -27.5
s-16.667 -13.5 -30 -13.5c-23.333 0 -41.333 47.667 -54 143c-4.66699 67.333 7.33301 156 36 266c-2 1.33301 -20.333 6.5 -55 15.5s-92 23.167 -172 42.5c-16.667 6.66699 -25 14.667 -25 24c0 6 2.33301 11.5 7 16.5s9.66699 11.333 15 19s10.833 12.667 16.5 15
s9.83398 3.5 12.501 3.5c21.333 -2.66699 50.833 -8.83398 88.5 -18.501s79.167 -21.167 124.5 -34.5c8.66699 67.333 17 127.166 25 179.499s12 108.833 12 169.5c0 24.667 -1.5 52.667 -4.5 84s-6.16699 61.833 -9.5 91.5s-7.16602 58.5 -11.499 86.5
s-10.166 55.333 -17.499 82c-19.333 50.667 -35.166 80.167 -47.499 88.5s-29.833 14.166 -52.5 17.499c-40.667 3.33301 -80.334 -23.667 -119.001 -81c-54 -77.333 -144.667 -254.333 -272 -531c-123.333 -283.333 -187.666 -482.333 -192.999 -597
c0 -23.333 2.66699 -43.666 8 -60.999c-27.333 -54.667 -46.666 -82 -57.999 -82c-8 0 -16.167 5.33301 -24.5 16s-15.833 23.167 -22.5 37.5s-12.334 28.666 -17.001 42.999s-7 25.166 -7 32.499c0 4 1.66699 12.333 5 25s9.16602 32.167 17.499 58.5
s19.5 59.833 33.5 100.5l52 150c31.333 88 66 176.333 104 265s79.667 178.334 125 269.001c90 180 158 296.667 204 350c44.667 52.667 100.334 85.667 167.001 99z" />
    <glyph glyph-name="Aring" unicode="&#xc5;" horiz-adv-x="934" 
d="M692 1417c25.333 8.66699 56.168 0.832031 92.501 -23.501s43.166 -57.166 20.499 -98.499s-46.5 -66 -71.5 -74s-46.667 -9.66699 -65 -5s-33.833 16 -46.5 34s-15.667 44.333 -9 79s33 64 79 88zM687.002 1344c-9.33301 2 -16.665 7.33301 -21.998 16
c-16 -23.333 -24 -43.5 -24 -60.5s6 -30.5 18 -40.5s30 -12.167 54 -6.5s41.667 17 53 34s17.666 34.167 18.999 51.5s-21.334 33 -68.001 47c-8 0 -15.333 -12.667 -22 -38c-1.33301 0 -4 -1 -8 -3zM655.003 1180c40 -4 73.002 -20.6719 99.002 -50.0049
s46.5 -67.666 61.5 -114.999s26.5 -101.833 34.5 -163.5s11.333 -127.167 10 -196.5v-46c0 -14 -0.666992 -26.667 -2 -38c-2.66699 -45.333 -5.83398 -89.833 -9.50098 -133.5s-7.83398 -79.167 -12.501 -106.5c12 -4 27 -6 45 -6c32 0 71 6 117 18l-11 -20
c-22 -28.667 -76 -51.667 -162 -69c-28 -108.667 -42 -184 -42 -226c0 -12 0.833008 -25.667 2.5 -41s3.83398 -32 6.50098 -50v-6c0 -9.33301 -3.16699 -18 -9.5 -26s-15.5 -12 -27.5 -12c-21.333 0 -38 44.333 -50 133c-4 62.667 7.33301 145 34 247
c-2 0.666992 -18.833 5.33398 -50.5 14.001s-84.5 21.667 -158.5 39c-14.667 6.66699 -22 14.334 -22 23.001c0 5.33301 2 10.5 6 15.5s8.5 11 13.5 18s10.167 11.5 15.5 13.5s9 3 11 3c20 -2.66699 47.167 -8.5 81.5 -17.5s72.166 -19.5 113.499 -31.5l23.5 167
c7 48.667 10.5 101 10.5 157c0 22.667 -1.33301 48.834 -4 78.501s-5.5 58.167 -8.5 85.5s-6.5 54 -10.5 80s-9.33301 51.333 -16 76c-17.333 46.667 -31.833 74 -43.5 82s-27.834 13.667 -48.501 17c-37.333 2.66699 -73.666 -22.666 -108.999 -75.999
c-49.333 -72 -132.333 -236.333 -249 -493c-113.333 -263.333 -172.333 -448.333 -177 -555c0 -22 2.33301 -41 7 -57c-25.333 -50.667 -43 -76 -53 -76c-7.33301 0 -14.833 4.83301 -22.5 14.5s-14.667 21.334 -21 35.001s-11.5 27.167 -15.5 40.5s-6 23.333 -6 30
c0 3.33301 1.5 11 4.5 23s8.33301 30.167 16 54.5l30.5 93.5l48 139c28.667 82 60.5 164.167 95.5 246.5s73.167 165.833 114.5 250.5c82 167.333 144.333 275.666 187 324.999c40.667 49.333 91.667 80 153 92z" />
    <glyph glyph-name="AE" unicode="&#xc6;" horiz-adv-x="1466" 
d="M916 392l-10 -48.0049c-13.333 -57.333 -20 -100.666 -20 -129.999c0 -25.333 3.33301 -57.333 10 -96c2.66699 -25.333 -26 -46 -86 -62c-26.667 -5.33301 -42.667 49 -48 163c0 49.333 15 133.333 45 252l-204 59c-26.667 12 -28.834 31 -6.50098 57s39.833 39 52.5 39
c44.667 -6 110 -20 196 -42c10 128.667 15 214.334 15 257.001v170c0 70.667 -4.83301 143.334 -14.5 218.001s-36 109.834 -79 105.501s-83.5 -29.166 -121.5 -74.499s-129.667 -201.333 -275 -468c-177.333 -390 -255.333 -631.333 -234 -724
c-21.333 -65.333 -48.5 -74.5 -81.5 -27.5s-45.167 86.5 -36.5 118.5s45 134.333 109 307s142.5 348 235.5 526s162.5 292.833 208.5 344.5s103.333 84.167 172 97.5c88 -9.33301 148.667 -70.333 182 -183c24.667 -76 36.834 -185.5 36.501 -328.5
s-15.5 -319.833 -45.5 -530.5zM782 157.995l33 23c70 -31.333 141.5 -40.333 214.5 -27s167.5 32.333 283.5 57c36.667 5.33301 58.667 1 66 -13c24.667 -42.667 -15.333 -79.834 -120 -111.501s-205.667 -47.5 -303 -47.5c-152 -17.333 -210 22.334 -174 119.001z
M1217 583.995c144 -27.333 41.667 -65 -307 -113c-11.333 -20 -13 14 -5 102zM733 1397l82 -39.002c-151.333 70.667 -96.5 84.834 164.5 42.501s490.167 -28.833 687.5 40.5h91c60 -5.33301 75 -33 45 -83c-44.667 -9.33301 -147.667 -29.166 -309 -59.499
s-348.333 -36.833 -561 -19.5z" />
    <glyph glyph-name="Ccedilla" unicode="&#xc7;" horiz-adv-x="990" 
d="M543 17c25.333 -8.66699 35.332 -44.666 29.999 -107.999c66.667 -20.667 118.5 -43.834 155.5 -69.501s53.5 -67.334 49.5 -125.001s-85 -97.834 -243 -120.501c-69.333 22.667 -82.333 48.334 -39 77.001c118 0 187.333 18 208 54
c0 60.667 -61.667 96.334 -185 107.001c-25.333 0 -38 18 -38 54c14.667 87.333 35.334 131 62.001 131zM830.999 1436c95.333 -8 146.667 -26.3359 154 -55.0029s-58 -45.167 -196 -49.5s-270.167 -53.333 -396.5 -147s-210.166 -219.834 -251.499 -378.501
s-52.333 -294.667 -33 -408s54.166 -191.166 104.499 -233.499s129.833 -67.166 238.5 -74.499s200 3.33398 274 32.001s144.5 62.167 211.5 100.5s92.167 27.5 75.5 -32.5c-66.667 -59.333 -152 -110.166 -256 -152.499s-214.167 -59 -330.5 -50s-206.5 38.5 -270.5 88.5
s-107 108.667 -129 176s-34 154 -36 260c18 258 77.5 451.667 178.5 581s202.333 216.833 304 262.5s221.167 72.5 358.5 80.5z" />
    <glyph glyph-name="Egrave" unicode="&#xc8;" horiz-adv-x="690" 
d="M186 1426c36 2.66699 77.667 -7.16699 125 -29.5s91.333 -45 132 -68s79.667 -43.667 117 -62s22 -22.5 -46 -12.5s-145.167 30.833 -231.5 62.5s-129 53.167 -128 64.5s11.5 26.333 31.5 45zM910 1263l58.9971 -0.00390625c10 -1.33301 15 -7 15 -17v-9
c-16.667 -26 -98 -56.833 -244 -92.5s-328.333 -44.5 -547 -26.5c-39.333 -68 -72.666 -207.333 -99.999 -418l250 18c24.667 -9.33301 42.334 -20.666 53.001 -33.999c4 -26 -97 -47.333 -303 -64c-20 -30 -25 -105.833 -15 -227.5s36.5 -202.5 79.5 -242.5
s97.5 -57 163.5 -51s155 28.333 267 67c31.333 10 52.333 6.66699 63 -10c18.667 -38.667 -20.666 -73.167 -117.999 -103.5s-191.666 -45.5 -282.999 -45.5c-138.667 -1.33301 -219 92.334 -241 281.001s-17.167 365.834 14.5 531.501s64.167 277.834 97.5 336.501
c-62.667 13.333 -95.667 17.333 -99 12c1.33301 54.667 39.333 77.667 114 69c53.333 -28 147.166 -42.667 281.499 -44s298.5 22 492.5 70z" />
    <glyph glyph-name="Eacute" unicode="&#xc9;" horiz-adv-x="858" 
d="M727 1424l1.99902 -13l-406 -197c-12 8 -17.333 14.667 -16 20c18.667 42.667 105.334 95 260.001 157c74.667 27.333 128 38.333 160 33zM909.999 1263l58.9971 -0.00390625c10 -1.33301 15 -7 15 -17v-9c-16.667 -26 -98 -56.833 -244 -92.5s-328.333 -44.5 -547 -26.5
c-39.333 -68 -72.666 -207.333 -99.999 -418l250 18c24.667 -9.33301 42.334 -20.666 53.001 -33.999c4 -26 -97 -47.333 -303 -64c-20 -30 -25 -105.833 -15 -227.5s36.5 -202.5 79.5 -242.5s97.5 -57 163.5 -51s155 28.333 267 67c31.333 10 52.333 6.66699 63 -10
c18.667 -38.667 -20.666 -73.167 -117.999 -103.5s-191.666 -45.5 -282.999 -45.5c-138.667 -1.33301 -219 92.334 -241 281.001s-17.167 365.834 14.5 531.501s64.167 277.834 97.5 336.501c-62.667 13.333 -95.667 17.333 -99 12c1.33301 54.667 39.333 77.667 114 69
c53.333 -28 147.166 -42.667 281.499 -44s298.5 22 492.5 70z" />
    <glyph glyph-name="Ecircumflex" unicode="&#xca;" horiz-adv-x="737" 
d="M438 1412c23.333 8.66699 56.333 -38.501 99 -141.501s56.667 -157.833 42 -164.5c-20.667 -12 -47.667 24.5 -81 109.5s-51.666 127.5 -54.999 127.5c-64.667 -81.333 -109.167 -139.666 -133.5 -174.999s-41.333 -46.833 -51 -34.5s-2.83398 37.5 20.499 75.5
s76.333 105.667 159 203zM860 1101l56 0.00390625c9.33301 -1.33301 14 -6 14 -14v-9c-15.333 -22 -92.166 -48.5 -230.499 -79.5s-310.833 -38.833 -517.5 -23.5c-38 -60 -69.667 -181.333 -95 -364l237 15c23.333 -8 39.666 -17.667 48.999 -29
c4 -22.667 -91.333 -41.334 -286 -56.001c-18.667 -26.667 -23.334 -93 -14.001 -199s34.333 -176.333 75 -211s92.334 -49.334 155.001 -44.001s147 24.666 253 57.999c29.333 8.66699 49 5.66699 59 -9c18 -33.333 -19.167 -63.166 -111.5 -89.499
s-181.5 -39.5 -267.5 -39.5c-131.333 -1.33301 -207.5 80.167 -228.5 244.5s-16.5 318.666 13.5 462.999s61 242.166 93 293.499c-59.333 11.333 -91 15 -95 11c2 47.333 38.333 67 109 59c50 -24 138.5 -36.5 265.5 -37.5s282.5 19.167 466.5 60.5z" />
    <glyph glyph-name="Edieresis" unicode="&#xcb;" horiz-adv-x="763" 
d="M383 1421c46 0 85.5 -18.001 118.5 -54.001s74 -48.667 123 -38s73.5 31.334 73.5 62.001c32 6.66699 43.667 -6.66602 35 -39.999s-42.167 -57.833 -100.5 -73.5s-105.666 -3.5 -141.999 36.5s-72.833 57.667 -109.5 53s-62.667 -15.334 -78 -32.001
s-27 -24.667 -35 -24s-13 6.66699 -15 18c-0.666992 50 42.666 80.667 129.999 92zM910 1263l58.9971 -0.00390625c10 -1.33301 15 -7 15 -17v-9c-16.667 -26 -98 -56.833 -244 -92.5s-328.333 -44.5 -547 -26.5c-39.333 -68 -72.666 -207.333 -99.999 -418l250 18
c24.667 -9.33301 42.334 -20.666 53.001 -33.999c4 -26 -97 -47.333 -303 -64c-20 -30 -25 -105.833 -15 -227.5s36.5 -202.5 79.5 -242.5s97.5 -57 163.5 -51s155 28.333 267 67c31.333 10 52.333 6.66699 63 -10c18.667 -38.667 -20.666 -73.167 -117.999 -103.5
s-191.666 -45.5 -282.999 -45.5c-138.667 -1.33301 -219 92.334 -241 281.001s-17.167 365.834 14.5 531.501s64.167 277.834 97.5 336.501c-62.667 13.333 -95.667 17.333 -99 12c1.33301 54.667 39.333 77.667 114 69c53.333 -28 147.166 -42.667 281.499 -44
s298.5 22 492.5 70z" />
    <glyph glyph-name="Igrave" unicode="&#xcc;" 
d="M38 1427c6 -0.666992 28.333 -24.499 67 -71.499s81.334 -87.5 128.001 -121.5s80.167 -61.333 100.5 -82s1.66602 -17.5 -56.001 9.5s-121.667 71 -192 132s-102.833 96.167 -97.5 105.5s22 18.666 50 27.999zM169 1151c20.667 0 36.668 -15.001 48.001 -45.001
c4.66699 -56 -11 -207.333 -47 -454c-48 -289.333 -67.5 -467.333 -58.5 -534s7.16699 -106.667 -5.5 -120c0 -14.667 -16.833 -15.667 -50.5 -3s-52.167 66.667 -55.5 162c4 114.667 14 221.834 30 321.501s31.167 200.167 45.5 301.5s18.166 195 11.499 281
c10.667 58.667 38 88.667 82 90z" />
    <glyph glyph-name="Iacute" unicode="&#xcd;" 
d="M220 1416l4.99902 -10c-16.667 -21.333 -114.667 -117.666 -294 -288.999c-12 5.33301 -18 10.333 -18 15c6.66699 45.333 67.334 116.666 182.001 213.999c55.333 44.667 97 68 125 70zM169.999 1271c21.333 0 37.6689 -16.334 49.002 -49.001
c4.66699 -62 -11.333 -229 -48 -501c-48.667 -319.333 -68.334 -515.666 -59.001 -588.999s7.66602 -117 -5.00098 -131c0 -16.667 -17 -18 -51 -4s-52.667 73.333 -56 178c4 126.667 14.167 245 30.5 355s31.5 220.833 45.5 332.5s18 215.167 12 310.5
c10.667 64 38 96.667 82 98z" />
    <glyph glyph-name="Icircumflex" unicode="&#xce;" 
d="M156 1410c25.333 9.33301 61.001 -39.1689 107.001 -145.502s61 -162.833 45 -169.5c-22 -12 -51.167 25.667 -87.5 113s-56.166 131 -59.499 131c-70 -83.333 -118 -143.166 -144 -179.499s-44.333 -48.166 -55 -35.499s-3.33398 38.5 21.999 77.5
s82.666 108.5 171.999 208.5zM157.001 1195c20 0 35.332 -15.333 45.999 -46c4 -58.667 -11 -216 -45 -472c-44.667 -300.667 -62.667 -485.5 -54 -554.5s7 -109.833 -5 -122.5c0 -16 -15.667 -17.333 -47 -4s-48.666 69 -51.999 167c4 119.333 13.5 230.833 28.5 334.5
s29 208 42 313s16.5 202.5 10.5 292.5c10 60 35.333 90.667 76 92z" />
    <glyph glyph-name="Idieresis" unicode="&#xcf;" 
d="M40 1438c56 -25.333 61.833 -63.5 17.5 -114.5s-76.5 -45.833 -96.5 15.5s6.33301 94.333 79 99zM214 1418c84.667 -5.33301 112.834 -33.333 84.501 -84s-54.833 -66.5 -79.5 -47.5s-35.334 45.667 -32.001 80s12.333 51.5 27 51.5zM170 1271
c21.333 0 37.6689 -16.334 49.002 -49.001c4.66699 -62 -11.333 -229 -48 -501c-48.667 -319.333 -68.334 -515.666 -59.001 -588.999s7.66602 -117 -5.00098 -131c0 -16.667 -17 -18 -51 -4s-52.667 73.333 -56 178c4 126.667 14.167 245 30.5 355s31.5 220.833 45.5 332.5
s18 215.167 12 310.5c10.667 64 38 96.667 82 98z" />
    <glyph glyph-name="Eth" unicode="&#xd0;" horiz-adv-x="1185" 
d="M391 1424c86 -8.66699 191.831 -45.999 317.498 -111.999s233.667 -161 324 -285s138 -256.167 143 -396.5s-39.667 -273 -134 -398s-206.5 -204.667 -336.5 -239s-232.333 -46.833 -307 -37.5s-146.334 48.666 -215.001 117.999s-102 147.333 -100 234
c-1.33301 21.333 11 38.666 37 51.999c40.667 -126 102.834 -209.5 186.501 -250.5s184.334 -50.833 302.001 -29.5s227.167 88.666 328.5 201.999c80 94.667 118.667 208.834 116 342.501s-74.667 281.834 -216 444.501s-319 249.334 -533 260.001
c-170.667 -5.33301 -210.667 -80 -120 -224c21.333 -64 -9.66699 -81.667 -93 -53c-18 -6.66699 -46.667 44.666 -86 153.999c-39.333 163.333 89.334 236 386.001 218zM448.998 1208c106.667 6 142.668 -163.169 108.001 -507.502s-70.334 -498.166 -107.001 -461.499h-8
c-21.333 4 -35 18.333 -41 43c48.667 280.667 69.5 500.834 62.5 660.501s-11.833 248.167 -14.5 265.5zM180.999 740.999c160 -6.66699 289 -14.167 387 -22.5s158.667 -11.5 182 -9.5s34 -10 32 -36s-72.667 -33.667 -212 -23s-248.333 8.66699 -327 -6
s-121.167 -2.16699 -127.5 37.5s15.5 59.5 65.5 59.5z" />
    <glyph glyph-name="Ntilde" unicode="&#xd1;" horiz-adv-x="1339" 
d="M724 1368c50.667 0 94.002 -20.502 130.002 -61.502s80.833 -55.333 134.5 -43s80.5 35.833 80.5 70.5c35.333 7.33301 48.166 -8 38.499 -46s-46.334 -65.833 -110.001 -83.5s-115.5 -3.66699 -155.5 42s-80 65.834 -120 60.501s-68.5 -17.5 -85.5 -36.5
s-29.833 -28.167 -38.5 -27.5s-14 7.33398 -16 20.001c-1.33301 57.333 46 92.333 142 105zM1215 1283c77.333 -36 114.332 -153.333 110.999 -352s-31 -376.5 -83 -533.5s-118.167 -272.333 -198.5 -346s-153.5 -109.5 -219.5 -107.5
c-188 39.333 -291.333 287.333 -310 744c-40.667 -96 -110.667 -227 -210 -393s-168.666 -269.5 -207.999 -310.5s-76 -11.167 -110 89.5c68 7.33301 167.667 139.666 299 396.999s205.333 420.666 222 489.999c-16.667 60.667 -1 91 47 91c33.333 0 60 -15.333 80 -46
c-12.667 -64 -19.834 -160 -21.501 -288s18 -269.167 59 -423.5s98.5 -237.166 172.5 -248.499c86 18.667 171.833 115.667 257.5 291s124.834 420 117.501 734c-16.667 76.667 -40 113.167 -70 109.5s-52.667 3.83301 -68 22.5c44 48.667 88.333 75.334 133 80.001z" />
    <glyph glyph-name="Ograve" unicode="&#xd2;" horiz-adv-x="954" 
d="M575 1430c74.667 -95.333 135 -160 181 -194s79 -61.5 99 -82.5s1.66699 -17.833 -55 9.5s-119.5 71.666 -188.5 132.999s-100.833 96.833 -95.5 106.5s25 18.834 59 27.501zM512 1209l20.001 0.00195312c166.667 -8 283.667 -65.333 351 -172
s83.833 -252.334 49.5 -437.001s-110 -346.334 -227 -485.001s-266.833 -195.667 -449.5 -171c-166.667 50 -252.667 171.667 -258 365c-18.667 232 23.666 438 126.999 618s232.333 274 387 282zM90.001 400.002c-13.333 -238.667 72.668 -360.169 258.001 -364.502
s329.166 125.334 431.499 389.001s105.833 452.834 10.5 567.501s-204 151 -326 109s-214 -130.333 -276 -265s-94.667 -280 -98 -436z" />
    <glyph glyph-name="Oacute" unicode="&#xd3;" horiz-adv-x="962" 
d="M826 1421l1 -12.001c-29.333 -13.333 -189 -60 -479 -140c-11.333 10 -16 17.667 -14 23c27.333 40.667 131 81 311 121c86 16.667 146.333 19.334 181 8.00098zM512 1209l20.001 0.00195312c166.667 -8 283.667 -65.333 351 -172s83.833 -252.334 49.5 -437.001
s-110 -346.334 -227 -485.001s-266.833 -195.667 -449.5 -171c-166.667 50 -252.667 171.667 -258 365c-18.667 232 23.666 438 126.999 618s232.333 274 387 282zM90.001 400.001c-13.333 -238.667 72.668 -360.169 258.001 -364.502s329.166 125.334 431.499 389.001
s105.833 452.834 10.5 567.501s-204 151 -326 109s-214 -130.333 -276 -265s-94.667 -280 -98 -436z" />
    <glyph glyph-name="Ocircumflex" unicode="&#xd4;" horiz-adv-x="900" 
d="M534 1431c54 -40.667 102.501 -91.833 145.501 -153.5s58.167 -97.167 45.5 -106.5s-33.334 12.167 -62.001 64.5s-71.667 102.5 -129 150.5c-84 -84.667 -132 -137.167 -144 -157.5s-32.167 -28.833 -60.5 -25.5s-27.333 18.5 3 45.5zM481.001 1157l18.999 -0.00195312
c157.333 -8 267.666 -63.167 330.999 -165.5s78.833 -242.166 46.5 -419.499s-103.666 -332.5 -213.999 -465.5s-251.5 -187.5 -423.5 -163.5c-157.333 48 -238.666 164.667 -243.999 350c-17.333 222.667 22.667 420.334 120 593.001s219 263 365 271zM83 379.999
c-12.667 -228.667 68.3311 -345.168 242.998 -349.501s310.334 120.167 407.001 373.5s100 435 10 545s-192.5 144.833 -307.5 104.5s-201.667 -125.166 -260 -254.499s-89.166 -269 -92.499 -419z" />
    <glyph glyph-name="Otilde" unicode="&#xd5;" horiz-adv-x="960" 
d="M505 1432c43.333 0 80.167 -18 110.5 -54s68.333 -48.667 114 -38s68.5 31.334 68.5 62.001c30 6.66699 40.833 -6.83301 32.5 -40.5s-39.5 -58.167 -93.5 -73.5s-98 -3 -132 37s-68 57.667 -102 53s-58.167 -15.334 -72.5 -32.001s-25.166 -24.667 -32.499 -24
s-12 6.66699 -14 18c-0.666992 50 39.666 80.667 120.999 92zM512.001 1209l20.001 0.00195312c166.667 -8 283.667 -65.333 351 -172s83.833 -252.334 49.5 -437.001s-110 -346.334 -227 -485.001s-266.833 -195.667 -449.5 -171c-166.667 50 -252.667 171.667 -258 365
c-18.667 232 23.666 438 126.999 618s232.333 274 387 282zM90.002 400.002c-13.333 -238.667 72.668 -360.169 258.001 -364.502s329.166 125.334 431.499 389.001s105.833 452.834 10.5 567.501s-204 151 -326 109s-214 -130.333 -276 -265s-94.667 -280 -98 -436z" />
    <glyph glyph-name="Odieresis" unicode="&#xd6;" horiz-adv-x="956" 
d="M322 1434c58 -26 64.167 -64.501 18.5 -115.501s-79 -45.667 -100 16s6.16699 94.834 81.5 99.501zM866 1377c87.333 -5.33301 116.5 -33.5 87.5 -84.5s-62 -61.667 -99 -32s-33.167 68.5 11.5 116.5zM512 1209l20.001 0.00195312c166.667 -8 283.667 -65.333 351 -172
s83.833 -252.334 49.5 -437.001s-110 -346.334 -227 -485.001s-266.833 -195.667 -449.5 -171c-166.667 50 -252.667 171.667 -258 365c-18.667 232 23.666 438 126.999 618s232.333 274 387 282zM90.001 400.001c-13.333 -238.667 72.668 -360.169 258.001 -364.502
s329.166 125.334 431.499 389.001s105.833 452.834 10.5 567.501s-204 151 -326 109s-214 -130.333 -276 -265s-94.667 -280 -98 -436z" />
    <glyph glyph-name="multiply" unicode="&#xd7;" horiz-adv-x="746" 
d="M113 709c28 0 124.331 -74.668 288.998 -224.001c158 149.333 254.333 224 289 224c36.667 -10 20.667 -48.5 -48 -115.5l-185 -178.5c34 -51.333 84.5 -114 151.5 -188s107.5 -136.667 121.5 -188c-20.667 -48 -69.667 -22.167 -147 77.5s-140 176.834 -188 231.501
c-81.333 -90.667 -156.666 -168.334 -225.999 -233.001s-114.166 -98.667 -134.499 -102s-28.166 7 -23.499 31s24.167 53.167 58.5 87.5l103 106c34.333 36.333 86.166 97.5 155.499 183.5c-187.333 156.667 -281 243.834 -281 261.501s21.667 26.5 65 26.5z" />
    <glyph glyph-name="Oslash" unicode="&#xd8;" horiz-adv-x="1167" 
d="M628 1443l24.001 0.00390625c202 -10 343.833 -77.833 425.5 -203.5s101.667 -297.334 60 -515.001s-133.5 -408.334 -275.5 -572.001s-323.667 -230.834 -545 -201.501c-202 58.667 -306.333 202 -313 430c-22.667 273.333 28.666 516.166 153.999 728.499
s282 323.5 470 333.5zM116.001 489.004c-16.667 -282 87.5 -425.5 312.5 -430.5s399.5 148 523.5 459s128.167 534 12.5 669s-247.5 177.833 -395.5 128.5s-259.5 -153.333 -334.5 -312s-114.5 -330 -118.5 -514zM1060 1439c59.333 -13.333 80.332 -32.4971 62.999 -57.4971
s-99 -170.833 -245 -437.5s-270.5 -484.334 -373.5 -653.001s-174.667 -293.167 -215 -373.5s-73.666 -119.5 -99.999 -117.5s-39.5 15.667 -39.5 41c36 125.333 131.833 327.666 287.5 606.999s296.5 516.666 422.5 711.999s192.667 288.333 200 279z" />
    <glyph glyph-name="Ugrave" unicode="&#xd9;" horiz-adv-x="974" 
d="M308 1430c6 0 27.167 -24.334 63.5 -73.001s76.5 -90.334 120.5 -125.001s75.5 -62.667 94.5 -84s1.5 -18.166 -52.5 9.50098s-114.167 72.834 -180.5 135.501s-97 99 -92 109s20.5 19.333 46.5 28zM124 1254c68 -18.667 102.668 -49 104.001 -91
c-92.667 -66 -144 -224 -154 -474c21.333 -259.333 61.5 -434 120.5 -524s133 -127.833 222 -113.5s217.5 151.166 385.5 410.499c10.667 154.667 19.667 273.334 27 356.001l25.5 289c9.66699 110 20.167 160.333 31.5 151c31.333 0 62.333 -31 93 -93
c-52 -250 -80.167 -442.667 -84.5 -578s4 -263.5 25 -384.5s16.167 -183.167 -14.5 -186.5c-19.333 -2.66699 -48.333 75.666 -87 234.999l-5 92c-89.333 -129.333 -173.333 -229.833 -252 -301.5s-157.334 -97.5 -236.001 -77.5s-146.5 76.5 -203.5 169.5
s-93.5 203.833 -109.5 332.5s-20.667 240.167 -14 334.5s21.167 186.333 43.5 276s49.833 148.834 82.5 177.501z" />
    <glyph glyph-name="Uacute" unicode="&#xda;" horiz-adv-x="1003" 
d="M723 1434l5 -9.99902c-19.333 -22 -136 -120.667 -350 -296c-14 5.33301 -21 10.666 -21 15.999c8 46 80.333 118.667 217 218c66 45.333 115.667 69.333 149 72zM124 1254c68 -18.667 102.668 -49 104.001 -91c-92.667 -66 -144 -224 -154 -474
c21.333 -259.333 61.5 -434 120.5 -524s133 -127.833 222 -113.5s217.5 151.166 385.5 410.499c10.667 154.667 19.667 273.334 27 356.001l25.5 289c9.66699 110 20.167 160.333 31.5 151c31.333 0 62.333 -31 93 -93c-52 -250 -80.167 -442.667 -84.5 -578
s4 -263.5 25 -384.5s16.167 -183.167 -14.5 -186.5c-19.333 -2.66699 -48.333 75.666 -87 234.999l-5 92c-89.333 -129.333 -173.333 -229.833 -252 -301.5s-157.334 -97.5 -236.001 -77.5s-146.5 76.5 -203.5 169.5s-93.5 203.833 -109.5 332.5s-20.667 240.167 -14 334.5
s21.167 186.333 43.5 276s49.833 148.834 82.5 177.501z" />
    <glyph glyph-name="Ucircumflex" unicode="&#xdb;" horiz-adv-x="987" 
d="M543 1458c24.667 9.33301 75.832 -45.832 153.499 -165.499s85.5 -182.167 23.5 -187.5c-14 35.333 -45.333 91 -94 167s-74.667 114 -78 114c-82 -96 -135.5 -162.333 -160.5 -199s-42.667 -48.667 -53 -36s-3.16602 38.667 21.501 78s87 115.666 187 228.999z
M138.998 1192c68 -18.667 102.668 -49 104.001 -91c-92.667 -66 -144 -224 -154 -474c11.333 -218 46.5 -372 105.5 -462s133 -127.833 222 -113.5s217.5 151.166 385.5 410.499c2.66699 78.667 7.66699 159.334 15 242.001l25.5 289c9.66699 110 20.167 160.333 31.5 151
c31.333 0 62.333 -31 93 -93c-52 -250 -78.167 -423.667 -78.5 -521s10 -206.5 31 -327.5s16.167 -183.167 -14.5 -186.5c-19.333 -2.66699 -48.333 75.666 -87 234.999l-5 92c-89.333 -129.333 -173.333 -229.833 -252 -301.5s-157.334 -97.5 -236.001 -77.5
s-146.5 76.5 -203.5 169.5s-91 193.5 -102 301.5s-13.167 209.167 -6.5 303.5s21.167 186.333 43.5 276s49.833 148.834 82.5 177.501z" />
    <glyph glyph-name="Udieresis" unicode="&#xdc;" horiz-adv-x="951" 
d="M234 1439c57.333 -24.667 63.5 -61.5 18.5 -110.5s-77.667 -44 -98 15s6.16699 90.833 79.5 95.5zM819 1387c86 8 119.332 -13.667 99.999 -65s-46.166 -70 -80.499 -56s-49.833 37.667 -46.5 71s12.333 50 27 50zM119.999 1165
c66 -17.333 99.6689 -45.334 101.002 -84.001c-90 -62 -140 -209.667 -150 -443c20.667 -242 59.667 -404.833 117 -488.5s129.166 -118.834 215.499 -105.501s210.833 141 373.5 383c10.667 144 19.5 254.5 26.5 331.5l24.5 269.5
c9.33301 102.667 19.666 149.667 30.999 141c30 0 60 -29 90 -87c-50.667 -232.667 -78 -412.167 -82 -538.5s4.16699 -246 24.5 -359s15.5 -171.167 -14.5 -174.5c-18.667 -2 -46.667 71.333 -84 220l-5 86c-86.667 -120.667 -168.167 -214.5 -244.5 -281.5
s-152.666 -91.167 -228.999 -72.5s-142 71.334 -197 158.001s-90.333 190 -106 310s-20.334 224 -14.001 312s20.333 173.833 42 257.5s48.5 138.834 80.5 165.501z" />
    <glyph glyph-name="Yacute" unicode="&#xdd;" horiz-adv-x="736" 
d="M119 1262c8.66699 -236.667 107.669 -433.667 297.002 -591c40 54 79.667 123.5 119 208.5s67 139.667 83 164s43.667 47.166 83 68.499c48 -4.66699 72 -29.334 72 -74.001c-86.667 -62 -156.167 -151.667 -208.5 -269s-93.333 -200 -123 -248
s-60.834 -107.333 -93.501 -178l-120.5 -250.5c-47.667 -96.333 -79.834 -182.166 -96.501 -257.499s-18.667 -124.166 -6 -146.499s27.5 -42.333 44.5 -60s0.166992 -30.167 -50.5 -37.5c-94.667 50 -121.167 136.167 -79.5 258.5s69.5 199 83.5 230l58 124l83.5 179
l91.5 194.5c-68.667 70 -129.167 144.5 -181.5 223.5s-94 153.5 -125 223.5s-48.167 131.333 -51.5 184c16 24.667 56.333 42.667 121 54zM710.002 1437l5.99902 -12c-22 -25.333 -155.667 -139.333 -401 -342c-16 6 -24 12 -24 18
c8.66699 53.333 91.334 137.666 248.001 252.999c76 52.667 133 80.334 171 83.001z" />
    <glyph glyph-name="Thorn" unicode="&#xde;" horiz-adv-x="1120" 
d="M211 1420c-18.667 0 -13.9971 -3.66797 14.0029 -11.001c-14.667 -82 -20.834 -204.333 -18.501 -367s-0.666992 -282.5 -9 -359.5l-14.5 -133.5c-1.33301 -12 1.33398 -83.667 8.00098 -215s13.667 -226.666 21 -285.999s14.333 -143.166 21 -251.499
s-4.83301 -165.833 -34.5 -172.5s-49.334 79.666 -59.001 258.999s-16.834 299.333 -21.501 360s-10.334 164 -17.001 310s-10 266.833 -10 362.5s-1.83301 172.5 -5.5 230.5s1.83301 119.167 16.5 183.5s51 94.5 109 90.5zM210.003 797.999
c0.666992 0 -2.66699 -25.1641 -10 -75.4971s36.167 -54.333 130.5 -12s160.333 42.333 198 0s57.5 -109.333 59.5 -201s-24.833 -165.834 -80.5 -222.501s-114.334 -90.834 -176.001 -102.501s-97.167 -17.834 -106.5 -18.501s-14.333 -4 -15 -10
c4 -50 46.667 -68.667 128 -56c175.333 42 283.833 113.5 325.5 214.5s57.5 196.167 47.5 285.5c-24 88.667 -67.667 158 -131 208s-186.666 46.667 -369.999 -10z" />
    <glyph glyph-name="germandbls" unicode="&#xdf;" horiz-adv-x="664" 
d="M371 1162c98.667 -9.33301 163.662 -58.4961 194.995 -147.496s27.666 -179.833 -11.001 -272.5s-119 -166.334 -241 -221.001c253.333 -72.667 366.333 -176.5 339 -311.5s-111.666 -190.167 -252.999 -165.5s-219.333 54.667 -234 90v16
c-6 19.333 49.333 13.666 166 -17.001s186.167 -11.167 208.5 58.5s15.5 126.334 -20.5 170.001s-142 84.5 -318 122.5c-10.667 19.333 39.5 64.166 150.5 134.499s165.167 166.166 162.5 287.499s-48.334 181.166 -137.001 179.499s-153.167 -65.5 -193.5 -191.5
s-65.166 -268.167 -74.499 -426.5s-15.166 -282.666 -17.499 -372.999s-3.33301 -161.5 -3 -213.5s4.5 -114 12.5 -186c-25.333 -96.667 -50.666 -83.834 -75.999 38.499s-28.166 343.333 -8.49902 663s63.334 528.5 131.001 626.5s141.834 144.333 222.501 139z" />
    <glyph glyph-name="agrave" unicode="&#xe0;" horiz-adv-x="778" 
d="M199 1176c7.33301 -0.666992 32.333 -29.165 75 -85.498s90 -104.833 142 -145.5s89.333 -73.334 112 -98.001s2 -20.834 -62 11.499s-135.167 85 -213.5 158s-114.5 115.167 -108.5 126.5s24.333 22.333 55 33zM195 668.002
c74.667 -19.333 171.333 -61.998 290 -127.998c12 -10.667 28 6.66602 48 51.999c44 36 89.333 -9.33301 136 -136c-22.667 -24 -34 -49.667 -34 -77c-2 -176.667 62 -277.334 192 -302.001c14 -47.333 16 -70.666 6 -69.999c-92 -0.666992 -168.333 45.666 -229 138.999
c-10.667 7.33301 -21.334 11 -32.001 11c-51.333 -32 -99.666 -66 -144.999 -102c-53.333 -34.667 -110.333 -52 -171 -52c-153.333 -16 -237.333 84 -252 300c-6 30 -7.16699 79.167 -3.5 147.5s23 125 58 170s80.5 60.833 136.5 47.5zM93.999 368.004
c33.333 -194.667 88.167 -284.5 164.5 -269.5s159.833 66.833 250.5 155.5c36 97.333 26.5 163 -28.5 197s-134.667 67.333 -239 100s-153.5 -28.333 -147.5 -183z" />
    <glyph glyph-name="aacute" unicode="&#xe1;" horiz-adv-x="772" 
d="M500 1103l6.00098 -12.001c-0.666992 -7.33301 -134.334 -121.333 -401.001 -342c-16 6 -21.333 26.333 -16 61c3.33301 24.667 83.333 94.667 240 210c76 52.667 133 80.334 171 83.001zM195.001 667.999c74.667 -19.333 171.333 -61.998 290 -127.998
c12 -10.667 28 6.66602 48 51.999c44 36 89.333 -9.33301 136 -136c-22.667 -24 -34 -49.667 -34 -77c-2 -176.667 62 -277.334 192 -302.001c14 -47.333 16 -70.666 6 -69.999c-92 -0.666992 -168.333 45.666 -229 138.999c-10.667 7.33301 -21.334 11 -32.001 11
c-51.333 -32 -99.666 -66 -144.999 -102c-53.333 -34.667 -110.333 -52 -171 -52c-153.333 -16 -237.333 84 -252 300c-6 30 -7.16699 79.167 -3.5 147.5s23 125 58 170s80.5 60.833 136.5 47.5zM94 368.001c33.333 -194.667 88.167 -284.5 164.5 -269.5
s159.833 66.833 250.5 155.5c36 97.333 26.5 163 -28.5 197s-134.667 67.333 -239 100s-153.5 -28.333 -147.5 -183z" />
    <glyph glyph-name="acircumflex" unicode="&#xe2;" horiz-adv-x="778" 
d="M468 904c-60 75.333 -96.9961 129.667 -110.996 163h-6c-4.66699 0 -40.334 -46 -107.001 -138s-107.667 -115.333 -123 -70c63.333 87.333 111.666 159.333 144.999 216s65.666 86 96.999 88c30 -2 85.167 -82.167 165.5 -240.5s60.166 -164.5 -60.501 -18.5z
M195.004 668.001c74.667 -19.333 171.333 -61.998 290 -127.998c12 -10.667 28 6.66602 48 51.999c44 36 89.333 -9.33301 136 -136c-22.667 -24 -34 -49.667 -34 -77c-2 -176.667 62 -277.334 192 -302.001c14 -47.333 16 -70.666 6 -69.999
c-92 -0.666992 -168.333 45.666 -229 138.999c-10.667 7.33301 -21.334 11 -32.001 11c-51.333 -32 -99.666 -66 -144.999 -102c-53.333 -34.667 -110.333 -52 -171 -52c-153.333 -16 -237.333 84 -252 300c-6 30 -7.16699 79.167 -3.5 147.5s23 125 58 170
s80.5 60.833 136.5 47.5zM94.0029 368.003c33.333 -194.667 88.167 -284.5 164.5 -269.5s159.833 66.833 250.5 155.5c36 97.333 26.5 163 -28.5 197s-134.667 67.333 -239 100s-153.5 -28.333 -147.5 -183z" />
    <glyph glyph-name="atilde" unicode="&#xe3;" horiz-adv-x="791" 
d="M439 917c-61.333 8.66699 -98.1689 50.166 -110.502 124.499s-38.166 107.833 -77.499 100.5s-69.166 -37.333 -89.499 -90s-38 -74.834 -53 -66.501s-8.5 46.833 19.5 115.5s72.5 105.334 133.5 110.001s99.5 -33.833 115.5 -115.5s39 -123.667 69 -126
s56.833 20.167 80.5 67.5s44 69.833 61 67.5s9.5 -35.666 -22.5 -99.999s-74 -93.5 -126 -87.5zM194.997 667.999c74.667 -19.333 171.333 -61.998 290 -127.998c12 -10.667 28 6.66602 48 51.999c44 36 89.333 -9.33301 136 -136c-22.667 -24 -34 -49.667 -34 -77
c-2 -176.667 62 -277.334 192 -302.001c14 -47.333 16 -70.666 6 -69.999c-92 -0.666992 -168.333 45.666 -229 138.999c-10.667 7.33301 -21.334 11 -32.001 11c-51.333 -32 -99.666 -66 -144.999 -102c-53.333 -34.667 -110.333 -52 -171 -52
c-153.333 -16 -237.333 84 -252 300c-6 30 -7.16699 79.167 -3.5 147.5s23 125 58 170s80.5 60.833 136.5 47.5zM93.9961 368.001c33.333 -194.667 88.167 -284.5 164.5 -269.5s159.833 66.833 250.5 155.5c36 97.333 26.5 163 -28.5 197s-134.667 67.333 -239 100
s-153.5 -28.333 -147.5 -183z" />
    <glyph glyph-name="adieresis" unicode="&#xe4;" horiz-adv-x="784" 
d="M179 1012c66.667 -28.667 76.5 -59 29.5 -91s-77.167 -24.667 -90.5 22s7 69.667 61 69zM439 950c80.667 0 110.667 -19.333 90 -58s-43.167 -53.667 -67.5 -45s-38.333 28 -42 58s2.83301 45 19.5 45zM195 668c74.667 -19.333 171.333 -61.998 290 -127.998
c12 -10.667 28 6.66602 48 51.999c44 36 89.333 -9.33301 136 -136c-22.667 -24 -34 -49.667 -34 -77c-2 -176.667 62 -277.334 192 -302.001c14 -47.333 16 -70.666 6 -69.999c-92 -0.666992 -168.333 45.666 -229 138.999c-10.667 7.33301 -21.334 11 -32.001 11
c-51.333 -32 -99.666 -66 -144.999 -102c-53.333 -34.667 -110.333 -52 -171 -52c-153.333 -16 -237.333 84 -252 300c-6 30 -7.16699 79.167 -3.5 147.5s23 125 58 170s80.5 60.833 136.5 47.5zM93.999 368.002c33.333 -194.667 88.167 -284.5 164.5 -269.5
s159.833 66.833 250.5 155.5c36 97.333 26.5 163 -28.5 197s-134.667 67.333 -239 100s-153.5 -28.333 -147.5 -183z" />
    <glyph glyph-name="aring" unicode="&#xe5;" horiz-adv-x="763" 
d="M288 978c25.333 8.66699 56.168 0.832031 92.501 -23.501s43.166 -57.166 20.499 -98.499s-46.5 -66 -71.5 -74s-46.667 -9.66699 -65 -5s-33.833 16 -46.5 34s-15.667 44.333 -9 79s33 64 79 88zM283.002 904.998c-9.33301 2 -16.667 7.33203 -22 15.999
c-16 -23.333 -23.667 -38.666 -23 -45.999s6 -16.833 16 -28.5s24.667 -18.5 44 -20.5s34.833 7.66699 46.5 29s15.667 37.833 12 49.5s-18.167 25.5 -43.5 41.5c-8 0 -15.333 -12.667 -22 -38c-1.33301 0 -4 -1 -8 -3zM195.001 667.997
c74.667 -19.333 171.333 -61.998 290 -127.998c12 -10.667 28 6.66602 48 51.999c44 36 89.333 -9.33301 136 -136c-22.667 -24 -34 -49.667 -34 -77c-2 -176.667 62 -277.334 192 -302.001c14 -47.333 16 -70.666 6 -69.999c-92 -0.666992 -168.333 45.666 -229 138.999
c-10.667 7.33301 -21.334 11 -32.001 11c-51.333 -32 -99.666 -66 -144.999 -102c-53.333 -34.667 -110.333 -52 -171 -52c-153.333 -16 -237.333 84 -252 300c-6 30 -7.16699 79.167 -3.5 147.5s23 125 58 170s80.5 60.833 136.5 47.5zM94 367.999
c33.333 -194.667 88.167 -284.5 164.5 -269.5s159.833 66.833 250.5 155.5c36 97.333 26.5 163 -28.5 197s-134.667 67.333 -239 100s-153.5 -28.333 -147.5 -183z" />
    <glyph glyph-name="ae" unicode="&#xe6;" horiz-adv-x="988" 
d="M473 622c12 -12 51.666 12.334 118.999 73.001c60.667 34.667 80.334 8 59.001 -80s-32 -148 -32 -180c14.667 -202 77 -318.333 187 -349c14 -56 16.333 -82.667 7 -80c-90.667 -2.66699 -165.334 50.666 -224.001 159.999c-10 7.33301 -20.667 11 -32 11
c-54 -41.333 -101.333 -80.333 -142 -117c-52 -40.667 -107 -61 -165 -61c-119.333 0 -201.666 116 -246.999 348c-5.33301 33.333 -6 90.333 -2 171c2 78 23.333 142 64 192c40 50 81.333 70.667 124 62c73.333 -24 168 -74 284 -150zM271.999 105.001
c84.667 8.66699 165.667 68.667 243 180c23.333 116 9.33301 194 -42 234c-50 41.333 -126 81.666 -228 120.999c-102.667 36.667 -151.667 -31.666 -147 -204.999c30 -226.667 88 -336.667 174 -330zM987.999 567.001c0 -105.333 -28.667 -174.001 -86 -206.001
c-59.333 -34.667 -129.666 -64 -210.999 -88c12 -105.333 73.333 -174.666 184 -207.999c41.333 -10.667 99.666 -7.66699 174.999 9h27v-18c-48 -46 -93.667 -69 -137 -69c-118.667 0 -206.334 30.333 -263.001 91c-53.333 58.667 -89.666 145 -108.999 259
c-17.333 112 -14.333 219.667 9 323c42.667 64.667 114 93.667 214 87c131.333 -12.667 197 -72.667 197 -180zM685.999 370c156.667 17.333 229 81.999 217 193.999c0 68.667 -44.667 100.667 -134 96c-55.333 -4 -96 -41.333 -122 -112
c-5.33301 -113.333 7.66699 -172.666 39 -177.999z" />
    <glyph glyph-name="ccedilla" unicode="&#xe7;" horiz-adv-x="688" 
d="M360 736c74 6.66699 159.672 -27.6689 257.005 -103.002c-10 -24.667 -21.333 -38 -34 -40c-78.667 46 -156.834 63 -234.501 51s-132.334 -40.667 -164.001 -86s-39.334 -110.166 -23.001 -194.499s60 -147.5 131 -189.5s140.333 -62.833 208 -62.5
s106.5 0.833008 116.5 1.5s31.667 2.33398 65 5.00098v-7c12 -28 -45.333 -54.333 -172 -79c-194.667 8 -324.334 54.667 -389.001 140s-101 170 -109 254c8 85.333 40.667 156.5 98 213.5s140.666 89.167 249.999 96.5zM396.005 88.9971
c30 -10 42.001 -49.9971 36.001 -119.997c80 -22.667 142.167 -48.334 186.5 -77.001s64.166 -74.834 59.499 -138.501s-102 -108.167 -292 -133.5c-83.333 25.333 -99 53.666 -47 84.999c142 0 225.333 20 250 60c0 67.333 -74 107 -222 119c-30.667 0 -46 20 -46 60
c17.333 96.667 42.333 145 75 145z" />
    <glyph glyph-name="egrave" unicode="&#xe8;" horiz-adv-x="542" 
d="M100 1210c7.33301 -0.666992 32.333 -29.165 75 -85.498s90 -104.833 142 -145.5s89.333 -73.334 112 -98.001s2 -20.834 -62 11.499s-135.167 85 -213.5 158s-114.5 115.167 -108.5 126.5s24.333 22.333 55 33zM285 733.002
c158 -13.333 237.001 -70.832 237.001 -172.499s-34.833 -168.334 -104.5 -200.001s-154.167 -59.167 -253.5 -82.5c15.333 -102.667 89 -170 221 -202c49.333 -11.333 119 -8.33301 209 9h34v-19c-58.667 -44 -113.667 -66 -165 -66c-142.667 0 -247.334 29 -314.001 87
s-110.5 141.5 -131.5 250.5s-11.833 203.667 27.5 284s119.333 117.5 240 111.5zM111.001 543.003c-7.33301 -110 9.33301 -168.334 50 -175.001c187.333 18 273.666 80.333 258.999 187c0 66.667 -53.667 98.334 -161 95.001c-65.333 -4 -114.666 -39.667 -147.999 -107z
" />
    <glyph glyph-name="eacute" unicode="&#xe9;" horiz-adv-x="536" 
d="M488 1263c-22 -25.333 -155.668 -139.333 -401.001 -342c-16 6 -24 12 -24 18c8.66699 53.333 91.334 137.666 248.001 252.999c76 52.667 135 76.334 177 71.001zM284.999 733c158 -13.333 237.001 -70.832 237.001 -172.499s-34.833 -168.334 -104.5 -200.001
s-154.167 -59.167 -253.5 -82.5c15.333 -102.667 89 -170 221 -202c49.333 -11.333 119 -8.33301 209 9h34v-19c-58.667 -44 -113.667 -66 -165 -66c-142.667 0 -247.334 29 -314.001 87s-110.5 141.5 -131.5 250.5s-11.833 203.667 27.5 284s119.333 117.5 240 111.5z
M111 543.001c-7.33301 -110 9.33301 -168.334 50 -175.001c187.333 18 273.666 80.333 258.999 187c0 66.667 -53.667 98.334 -161 95.001c-65.333 -4 -114.666 -39.667 -147.999 -107z" />
    <glyph glyph-name="ecircumflex" unicode="&#xea;" horiz-adv-x="585" 
d="M335 987l-51 58h-6c-4.66699 0 -41.167 -37.333 -109.5 -112s-110.166 -89.334 -125.499 -44.001c66.667 52.667 116.667 107.334 150 164.001s65.666 86 96.999 88c30 -2 78 -69.833 144 -203.5s33 -117.167 -99 49.5zM285 733
c158 -13.333 237.001 -70.832 237.001 -172.499s-34.833 -168.334 -104.5 -200.001s-154.167 -59.167 -253.5 -82.5c15.333 -102.667 89 -170 221 -202c49.333 -11.333 119 -8.33301 209 9h34v-19c-58.667 -44 -113.667 -66 -165 -66c-142.667 0 -247.334 29 -314.001 87
s-110.5 141.5 -131.5 250.5s-11.833 203.667 27.5 284s119.333 117.5 240 111.5zM111.001 543.001c-7.33301 -110 9.33301 -168.334 50 -175.001c187.333 18 273.666 80.333 258.999 187c0 66.667 -53.667 98.334 -161 95.001c-65.333 -4 -114.666 -39.667 -147.999 -107z
" />
    <glyph glyph-name="edieresis" unicode="&#xeb;" horiz-adv-x="583" 
d="M285 733c158 -13.333 237.001 -70.832 237.001 -172.499s-34.833 -168.334 -104.5 -200.001s-154.167 -59.167 -253.5 -82.5c15.333 -102.667 89 -170 221 -202c49.333 -11.333 119 -8.33301 209 9h34v-19c-58.667 -44 -113.667 -66 -165 -66
c-142.667 0 -247.334 29 -314.001 87s-110.5 141.5 -131.5 250.5s-11.833 203.667 27.5 284s119.333 117.5 240 111.5zM111.001 543.001c-7.33301 -110 9.33301 -168.334 50 -175.001c187.333 18 273.666 80.333 258.999 187c0 66.667 -53.667 98.334 -161 95.001
c-65.333 -4 -114.666 -39.667 -147.999 -107zM185 907c66.667 -28.667 76.5 -59 29.5 -91s-77.167 -24.667 -90.5 22s7 69.667 61 69zM387 875c80.667 0 110.667 -19.333 90 -58s-43.167 -53.667 -67.5 -45s-38.333 28 -42 58s2.83301 45 19.5 45z" />
    <glyph glyph-name="igrave" unicode="&#xec;" horiz-adv-x="286" 
d="M105 666l61 0.000976562c10 -113.333 16.167 -198 18.5 -254s3.5 -97.167 3.5 -123.5v-91.5c0 -34.667 4.33301 -100.334 13 -197.001h-20c-40 0 -67 108 -81 324c0 28 -4.33301 82.667 -13 164c0 118.667 6 178 18 178zM59 915.001
c7.33301 -0.666992 13 -7.32812 17 -19.9951s32 -39.334 84 -80.001s89.333 -73.334 112 -98.001s2 -20.834 -62 11.499s-115.833 63.166 -155.5 92.499s-56.5 49.666 -50.5 60.999s24.333 22.333 55 33z" />
    <glyph glyph-name="iacute" unicode="&#xed;" horiz-adv-x="215" 
d="M73 738l66.999 0.000976562c4.66699 -48.667 8.33398 -110.5 11.001 -185.5s4 -130.167 4 -165.5v-123c0 -46.667 4.66699 -134.667 14 -264h-22c-44 0 -74 144.667 -90 434c0 37.333 -4.66699 110.666 -14 219.999c6.66699 56 16.667 84 30 84zM229.999 1114l6 -12.001
c-22 -25.333 -90.667 -97 -206 -215c-16 6 -24 12 -24 18c8.66699 53.333 38.667 100.833 90 142.5s96 63.834 134 66.501z" />
    <glyph glyph-name="icircumflex" unicode="&#xee;" horiz-adv-x="411" 
d="M307 919c-28.667 50 -64.6689 103.667 -108.002 161c-35.333 -46.667 -70.666 -96.5 -105.999 -149.5s-60.666 -56.833 -75.999 -11.5c32.667 28 65.667 70.333 99 127s58.333 89.667 75 99c30 -2 75.667 -60.833 137 -176.5s54.333 -132.167 -21 -49.5zM116.998 720h94
c6 -47.333 10.833 -107.5 14.5 -180.5s5.5 -126.667 5.5 -161v-119c0 -45 6.66699 -130.5 20 -256.5h-31c-62 0 -103.667 140.667 -125 422c0 36 -6.66699 107 -20 213c9.33301 54.667 23.333 82 42 82z" />
    <glyph glyph-name="idieresis" unicode="&#xef;" horiz-adv-x="412" 
d="M110 1096c66.667 -28.667 77.333 -61.667 32 -99s-80 -29.833 -104 22.5s0 77.833 72 76.5zM311.999 1064c69.333 -15.333 98 -43.167 86 -83.5s-35.5 -55.833 -70.5 -46.5s-50.5 33.333 -46.5 72s14.333 58 31 58zM125.999 716.999h94
c6 -47.333 10.833 -107.5 14.5 -180.5s5.5 -126.667 5.5 -161v-119c0 -45 6.66699 -130.5 20 -256.5h-31c-62 0 -103.667 140.667 -125 422c0 36 -6.66699 107 -20 213c9.33301 54.667 23.333 82 42 82z" />
    <glyph glyph-name="eth" unicode="&#xf0;" horiz-adv-x="940" 
d="M80 1424l22.9951 0.00292969l245 -138c95.333 -50.667 190 -108.167 284 -172.5s166.667 -146.166 218 -245.499s78 -202.833 80 -310.5s-15.667 -205.667 -53 -294s-91.5 -158.333 -162.5 -210s-156.667 -79.167 -257 -82.5s-194.333 33.667 -282 111
s-135.667 174.166 -144 290.499s26.5 227.5 104.5 333.5s183.5 157.833 316.5 155.5s157.167 -18.833 72.5 -49.5c-166.667 -4.66699 -284.167 -75.167 -352.5 -211.5s-72.666 -249.833 -12.999 -340.5s135.5 -146.834 227.5 -168.501s169.833 -15 233.5 20
s111.334 81.5 143.001 139.5s54.334 128.667 68.001 212s2 176.666 -35 279.999s-92.667 188 -167 254s-170.166 128.833 -287.499 188.5l-259 132.5c-55.333 28.667 -80.666 51.167 -75.999 67.5s29 29.166 73 38.499zM621.995 1404l5.99902 -12.001
c-21.333 -24.667 -88.666 -78.334 -201.999 -161.001c0 -7.33301 -42.333 -53.666 -127 -138.999c-5.33301 -13.333 -22 -24.666 -50 -33.999c-15.333 5.33301 -23 11 -23 17c8 52 86 134.333 234 247c72 52 126 79.333 162 82z" />
    <glyph glyph-name="ntilde" unicode="&#xf1;" horiz-adv-x="929" 
d="M569 913c-61.333 8.66699 -98.1689 50.166 -110.502 124.499s-38.166 107.833 -77.499 100.5s-69.166 -37.333 -89.499 -90s-38 -74.834 -53 -66.501s-8.5 46.833 19.5 115.5s72.5 105.334 133.5 110.001s99.5 -33.833 115.5 -115.5s39 -123.667 69 -126
s56.833 20.167 80.5 67.5s44 69.833 61 67.5s9.5 -35.666 -22.5 -99.999s-74 -93.5 -126 -87.5zM306.997 708.999c36 9.33301 58.502 -78.499 67.502 -263.499s52.5 -268.667 130.5 -251s118.5 67 121.5 148s5.5 145.833 7.5 194.5c-2 31.333 9.33301 62.666 34 93.999
c23.333 1.33301 38.333 -29 45 -91c4.66699 -54.667 11 -144.667 19 -270c72.667 -108 135.667 -169.5 189 -184.5s89 -32.833 107 -53.5s-14.5 -32 -97.5 -34s-166.5 60.667 -250.5 188c-72 -102.667 -150.333 -138.667 -235 -108s-136.667 111.334 -156 242.001
c-70.667 -144 -123.834 -233.333 -159.501 -268s-72 -50.334 -109 -47.001s-45 12.833 -24 28.5s54.667 50.667 101 105s81.166 109.833 104.499 166.5s45.666 124.667 66.999 204c14.667 128 27.334 194.667 38.001 200z" />
    <glyph glyph-name="ograve" unicode="&#xf2;" horiz-adv-x="603" 
d="M99 1165c7.33301 -0.666992 32.333 -29.165 75 -85.498s90 -104.833 142 -145.5s89.333 -73.334 112 -98.001s2 -20.834 -62 11.499s-135.167 85 -213.5 158s-114.5 115.167 -108.5 126.5s24.333 22.333 55 33zM301 695.002c190 -6.66699 289 -119.166 297 -337.499
s-87.333 -338.833 -286 -361.5c-150 2.66699 -250.333 107 -301 313c-40 257.333 21.333 370.666 184 339.999c30 0 65.333 15.333 106 46zM283 476.003l-10.001 -0.00195312c-32.667 14.667 -49 40.334 -49 77.001h-9c-108 29.333 -144.167 -43 -108.5 -217
s113.167 -255 232.5 -243c110 13.333 168.833 92.333 176.5 237s-40.833 228.334 -145.5 251.001h-20c-9.33301 0 -31.666 -35 -66.999 -105z" />
    <glyph glyph-name="oacute" unicode="&#xf3;" horiz-adv-x="606" 
d="M482 1197l5.99902 -12c-22 -25.333 -155.667 -139.333 -401 -342c-16 6 -24 12 -24 18c8.66699 53.333 91.334 137.666 248.001 252.999c76 52.667 133 80.334 171 83.001zM300.999 695c190 -6.66699 289 -119.166 297 -337.499s-87.333 -338.833 -286 -361.5
c-150 2.66699 -250.333 107 -301 313c-40 257.333 21.333 370.666 184 339.999c30 0 65.333 15.333 106 46zM282.999 476.001l-10.001 -0.00195312c-32.667 14.667 -49 40.334 -49 77.001h-9c-108 29.333 -144.167 -43 -108.5 -217s113.167 -255 232.5 -243
c110 13.333 168.833 92.333 176.5 237s-40.833 228.334 -145.5 251.001h-20c-9.33301 0 -31.666 -35 -66.999 -105z" />
    <glyph glyph-name="ocircumflex" unicode="&#xf4;" horiz-adv-x="598" 
d="M387 951c-60 75.333 -96.9961 129.667 -110.996 163h-6c-4.66699 0 -40.334 -46 -107.001 -138s-107.667 -115.333 -123 -70c63.333 87.333 111.666 159.333 144.999 216s65.666 86 96.999 88c30 -2 85.167 -82.167 165.5 -240.5s60.166 -164.5 -60.501 -18.5z
M301.004 695.001c190 -6.66699 289 -119.166 297 -337.499s-87.333 -338.833 -286 -361.5c-150 2.66699 -250.333 107 -301 313c-40 257.333 21.333 370.666 184 339.999c30 0 65.333 15.333 106 46zM283.004 476.002l-10.001 -0.00195312
c-32.667 14.667 -49 40.334 -49 77.001h-9c-108 29.333 -144.167 -43 -108.5 -217s113.167 -255 232.5 -243c110 13.333 168.833 92.333 176.5 237s-40.833 228.334 -145.5 251.001h-20c-9.33301 0 -31.666 -35 -66.999 -105z" />
    <glyph glyph-name="otilde" unicode="&#xf5;" horiz-adv-x="602" 
d="M365 866c-61.333 8.66699 -98.1689 50.166 -110.502 124.499s-38.166 107.833 -77.499 100.5s-69.166 -37.333 -89.499 -90s-38 -74.834 -53 -66.501s-8.5 46.833 19.5 115.5s72.5 105.334 133.5 110.001s99.5 -33.833 115.5 -115.5s39 -123.667 69 -126
s56.833 20.167 80.5 67.5s44 69.833 61 67.5s9.5 -35.666 -22.5 -99.999s-74 -93.5 -126 -87.5zM300.997 694.999c190 -6.66699 289 -119.166 297 -337.499s-87.333 -338.833 -286 -361.5c-150 2.66699 -250.333 107 -301 313c-40 257.333 21.333 370.666 184 339.999
c30 0 65.333 15.333 106 46zM282.997 476l-10.001 -0.00195312c-32.667 14.667 -49 40.334 -49 77.001h-9c-108 29.333 -144.167 -43 -108.5 -217s113.167 -255 232.5 -243c110 13.333 168.833 92.333 176.5 237s-40.833 228.334 -145.5 251.001h-20
c-9.33301 0 -31.666 -35 -66.999 -105z" />
    <glyph glyph-name="odieresis" unicode="&#xf6;" horiz-adv-x="606" 
d="M301 695c190 -6.66699 289 -119.166 297 -337.499s-87.333 -338.833 -286 -361.5c-150 2.66699 -250.333 107 -301 313c-40 257.333 21.333 370.666 184 339.999c30 0 65.333 15.333 106 46zM283 476.001l-10.001 -0.00195312c-32.667 14.667 -49 40.334 -49 77.001h-9
c-108 29.333 -144.167 -43 -108.5 -217s113.167 -255 232.5 -243c110 13.333 168.833 92.333 176.5 237s-40.833 228.334 -145.5 251.001h-20c-9.33301 0 -31.666 -35 -66.999 -105zM184.999 906.999c66.667 -28.667 76.5 -59 29.5 -91s-77.167 -24.667 -90.5 22
s7 69.667 61 69zM386.999 874.999c80.667 0 110.667 -19.333 90 -58s-43.167 -53.667 -67.5 -45s-38.333 28 -42 58s2.83301 45 19.5 45z" />
    <glyph glyph-name="divide" unicode="&#xf7;" horiz-adv-x="1041" 
d="M572 605c50 0 71.333 -19.167 64 -57.5s-27 -58.5 -59 -60.5s-49.5 14.167 -52.5 48.5s12.833 57.5 47.5 69.5zM665 371c257.333 -10.667 383 -34.167 377 -70.5s-37.5 -51.166 -94.5 -44.499s-110.167 10 -159.5 10h-102.5c-19 0 -41 1.16699 -66 3.5
s-103 3.16602 -234 2.49902s-228.833 -0.666992 -293.5 0s-97 9.66699 -97 27c12 20.667 51.5 37 118.5 49s143.5 18.833 229.5 20.5s154.333 2.5 205 2.5h117zM591 179c58 -15.333 87.001 -36.3301 87.001 -62.9971s-21.833 -41.834 -65.5 -45.501
s-68.834 21.166 -75.501 74.499c0 15.333 18 26.666 54 33.999z" />
    <glyph glyph-name="oslash" unicode="&#xf8;" horiz-adv-x="697" 
d="M322 729c201.333 -7.33301 306.168 -122.669 314.501 -346.002s-92.834 -346.666 -303.501 -369.999c-158.667 2.66699 -264.667 109.334 -318 320.001c-42.667 264 22.333 380 195 348c32 0 69.333 16 112 48zM303.002 503.997l-10 0.000976562
c-35.333 15.333 -53 41.666 -53 78.999h-9c-114.667 30 -153 -44 -115 -222s120 -260.667 246 -248c116.667 13.333 179 94 187 242s-43.333 233.667 -154 257h-21c-10 0 -33.667 -36 -71 -108zM662.002 847.998c21.333 -9.33301 25.168 -22.5 11.501 -39.5
s-72.5 -97 -176.5 -240s-185 -262.333 -243 -358s-103.5 -168 -136.5 -217s-51.5 -74.333 -55.5 -76s-18.667 1.5 -44 9.5c43.333 124 114.666 263.5 213.999 418.5s189.333 281 270 378s134 138.5 160 124.5z" />
    <glyph glyph-name="ugrave" unicode="&#xf9;" horiz-adv-x="725" 
d="M173 1168c7.33301 -0.666992 32.333 -29.165 75 -85.498s90 -104.833 142 -145.5s89.333 -73.334 112 -98.001s2 -20.834 -62 11.499s-135.167 85 -213.5 158s-114.5 115.167 -108.5 126.5s24.333 22.333 55 33zM39 687.002c53.333 0 77.001 -48.6689 71.001 -146.002
c25.333 -281.333 77.666 -429.666 156.999 -444.999c42.667 12 84.334 54.667 125.001 128s55.834 164 45.501 272s1.83398 157.667 36.501 149c42 -17.333 63 -55.666 63 -114.999c-30.667 -184.667 17.666 -336.334 144.999 -455.001c52.667 -6 73.667 -12 63 -18
c27.333 -23.333 14 -43.333 -40 -60c-74.667 0 -151.667 65 -231 195h-16c-64.667 -127.333 -125 -191 -181 -191h-16c-58 0 -113.333 60.667 -166 182c-38.667 76 -65.334 215 -80.001 417c-8.66699 0 -13.334 9.33301 -14.001 28s12 38.334 38 59.001z" />
    <glyph glyph-name="uacute" unicode="&#xfa;" horiz-adv-x="717" 
d="M521 1184l5.99902 -12c-22 -25.333 -155.667 -139.333 -401 -342c-16 6 -24 12 -24 18c8.66699 53.333 91.334 137.666 248.001 252.999c76 52.667 133 80.334 171 83.001zM38.999 687c53.333 0 77.001 -48.6689 71.001 -146.002
c25.333 -281.333 77.666 -429.666 156.999 -444.999c42.667 12 84.334 54.667 125.001 128s55.834 164 45.501 272s1.83398 157.667 36.501 149c42 -17.333 63 -55.666 63 -114.999c-30.667 -184.667 17.666 -336.334 144.999 -455.001c52.667 -6 73.667 -12 63 -18
c27.333 -23.333 14 -43.333 -40 -60c-74.667 0 -151.667 65 -231 195h-16c-64.667 -127.333 -125 -191 -181 -191h-16c-58 0 -113.333 60.667 -166 182c-38.667 76 -65.334 215 -80.001 417c-8.66699 0 -13.334 9.33301 -14.001 28s12 38.334 38 59.001z" />
    <glyph glyph-name="ucircumflex" unicode="&#xfb;" horiz-adv-x="714" 
d="M420 930c-60 75.333 -96.9961 129.667 -110.996 163h-6c-4.66699 0 -40.334 -46 -107.001 -138s-107.667 -115.333 -123 -70c63.333 87.333 111.666 159.333 144.999 216s65.666 86 96.999 88c30 -2 85.167 -82.167 165.5 -240.5s60.166 -164.5 -60.501 -18.5z
M39.0039 687.001c53.333 0 77.001 -48.6689 71.001 -146.002c25.333 -281.333 77.666 -429.666 156.999 -444.999c42.667 12 84.334 54.667 125.001 128s55.834 164 45.501 272s1.83398 157.667 36.501 149c42 -17.333 63 -55.666 63 -114.999
c-30.667 -184.667 17.666 -336.334 144.999 -455.001c52.667 -6 73.667 -12 63 -18c27.333 -23.333 14 -43.333 -40 -60c-74.667 0 -151.667 65 -231 195h-16c-64.667 -127.333 -125 -191 -181 -191h-16c-58 0 -113.333 60.667 -166 182c-38.667 76 -65.334 215 -80.001 417
c-8.66699 0 -13.334 9.33301 -14.001 28s12 38.334 38 59.001z" />
    <glyph glyph-name="udieresis" unicode="&#xfc;" horiz-adv-x="698" 
d="M39 687c53.333 0 77.001 -48.6689 71.001 -146.002c25.333 -281.333 77.666 -429.666 156.999 -444.999c42.667 12 84.334 54.667 125.001 128s55.834 164 45.501 272s1.83398 157.667 36.501 149c42 -17.333 63 -55.666 63 -114.999
c-30.667 -184.667 17.666 -336.334 144.999 -455.001c52.667 -6 73.667 -12 63 -18c27.333 -23.333 14 -43.333 -40 -60c-74.667 0 -151.667 65 -231 195h-16c-64.667 -127.333 -125 -191 -181 -191h-16c-58 0 -113.333 60.667 -166 182c-38.667 76 -65.334 215 -80.001 417
c-8.66699 0 -13.334 9.33301 -14.001 28s12 38.334 38 59.001zM130.001 923.998c66.667 -28.667 77.333 -61.667 32 -99s-80 -29.833 -104 22.5s0 77.833 72 76.5zM444 883.998c69.333 -15.333 98 -43.167 86 -83.5s-35.5 -55.833 -70.5 -46.5s-50.5 33.333 -46.5 72
s14.333 58 31 58z" />
    <glyph glyph-name="yacute" unicode="&#xfd;" horiz-adv-x="536" 
d="M445 1034l6 -12.002c-22 -25.333 -121 -107.666 -297 -246.999c-16 6 -24 12 -24 18c8.66699 53.333 56.667 106 144 158c76 52.667 133 80.334 171 83.001zM103 645.998l15.0049 0.000976562c29.333 0 40.666 -13 33.999 -39
c3.33301 -168.667 66.666 -242.667 189.999 -222c77.333 9.33301 107.333 85 90 227c28 65.333 59.333 68 94 8l-26 -314.5c-8 -96.333 -21.833 -218.833 -41.5 -367.5s-68.834 -248.334 -147.501 -299.001s-166.834 -63.334 -264.501 -38.001
s-151.167 100.666 -160.5 225.999c0 127.333 101.333 225 304 293c10 -4.66699 17.667 -7 23 -7c-159.333 -115.333 -238.333 -215 -237 -299s50.333 -128.333 147 -133c120.667 -2.66699 194.667 58.833 222 184.5s44.166 222.334 50.499 290.001
s12.166 123.167 17.499 166.5c-25.333 -10 -65.333 -17 -120 -21c-86.667 8.66699 -144 38.334 -172 89.001s-44.167 103 -48.5 157s5.83398 87 30.501 99z" />
    <glyph glyph-name="thorn" unicode="&#xfe;" horiz-adv-x="564" 
d="M113 951c-16 0 -11.667 -2.99805 13 -8.99805c-13.333 -60 -19 -150 -17 -270s-0.5 -208.333 -7.5 -265s-11 -89.334 -12 -98.001s1.33301 -61.5 7 -158.5s11.667 -167.333 18 -211s12.333 -105.5 18 -185.5s-4.33301 -122.333 -30 -127s-42.667 59.166 -51 191.499
s-14.5 220.833 -18.5 265.5s-9 120.667 -15 228s-9 196.333 -9 267s-1.5 127.334 -4.5 170.001s1.83301 87.667 14.5 135s44 69.666 94 66.999zM112 492.002c0.666992 0 -2.00488 -18.4951 -8.00488 -55.4951s31.833 -39.833 113.5 -8.5s138.834 31.333 171.501 0
s49.834 -80.833 51.501 -148.5s-21.666 -122.334 -69.999 -164.001s-99.166 -66.834 -152.499 -75.501s-84.166 -13.167 -92.499 -13.5s-12.833 -2.83301 -13.5 -7.5c4 -36.667 41.333 -50.334 112 -41.001c152 31.333 246 84.166 282 158.499s50 144.166 42 209.499
c-21.333 66 -59.5 117.333 -114.5 154s-162.167 34 -321.5 -8z" />
    <glyph glyph-name="ydieresis" unicode="&#xff;" horiz-adv-x="529" 
d="M103 646l15.0049 0.000976562c29.333 0 40.666 -13 33.999 -39c3.33301 -168.667 66.666 -242.667 189.999 -222c77.333 9.33301 107.333 85 90 227c28 65.333 59.333 68 94 8l-26 -314.5c-8 -96.333 -21.833 -218.833 -41.5 -367.5s-68.834 -248.334 -147.501 -299.001
s-166.834 -63.334 -264.501 -38.001s-151.167 100.666 -160.5 225.999c0 127.333 101.333 225 304 293c10 -4.66699 17.667 -7 23 -7c-159.333 -115.333 -238.333 -215 -237 -299s50.333 -128.333 147 -133c120.667 -2.66699 194.667 58.833 222 184.5
s44.166 222.334 50.499 290.001s12.166 123.167 17.499 166.5c-25.333 -10 -65.333 -17 -120 -21c-86.667 8.66699 -144 38.334 -172 89.001s-44.167 103 -48.5 157s5.83398 87 30.501 99zM196.005 897.001c66.667 -28.667 77.333 -61.667 32 -99s-80 -29.833 -104 22.5
s0 77.833 72 76.5zM432.004 889.001c69.333 -15.333 98 -43.167 86 -83.5s-35.5 -55.833 -70.5 -46.5s-50.5 33.333 -46.5 72s14.333 58 31 58z" />
    <glyph glyph-name="dotlessi" unicode="&#x131;" horiz-adv-x="659" 
d="M606 930c36.667 7.33301 46.832 -36.499 30.499 -131.499s-23.5 -214 -21.5 -357s2 -231.167 0 -264.5s-0.5 -69.333 4.5 -108s-1.16699 -61.667 -18.5 -69h-19c-37.333 0 -57 52 -59 156s4.66699 266.667 20 488l-161 -239.5l-144.5 -204
c-48.333 -65.667 -100 -96.5 -155 -92.5s-82.5 16.833 -82.5 38.5s23.333 32.5 70 32.5l57 -6l318 457c39.333 80 63.333 146.167 72 198.5s38.334 86.166 89.001 101.499z" />
    <glyph glyph-name="OE" unicode="&#x152;" horiz-adv-x="1719" 
d="M664 1443l23.998 0.000976562c202 -10 343.833 -77.833 425.5 -203.5s102.334 -292 62.001 -499s-132.166 -397.667 -275.499 -572s-325.666 -246.833 -546.999 -217.5c-202 58.667 -306.333 202 -313 430c-22.667 273.333 28.666 516.166 153.999 728.499
s282 323.5 470 333.5zM122.998 503.001c-2.66699 -316 109.833 -476.501 337.5 -481.501s409.167 157.833 544.5 488.5s135.333 562.834 0 696.501s-277 172.834 -425 117.501s-258.667 -160.333 -332 -315s-115 -323.334 -125 -506.001zM870.998 190
c18.667 -69.333 92.833 -106 222.5 -110s259.167 18.333 388.5 67c42 28.667 67 35.334 75 20.001c28 -48.667 -17.667 -90.667 -137 -126s-235 -53 -347 -53c-211.333 36.667 -307.5 78.667 -288.5 126s47.833 72.666 86.5 75.999zM1067 669l24.999 51l401 33
c30.667 -10.667 52.334 -24 65.001 -40c5.33301 -30 -136 -53.667 -424 -71c-52 -14.667 -74.333 -5.66699 -67 27zM891.996 1306c-2 57.333 24 81 78 71c102.667 -32.667 236.5 -49.667 401.5 -51s366.167 25.667 603.5 81h73c12 -2 18 -8.66699 18 -20v-10
c-20 -30 -134.833 -66 -344.5 -108s-486.167 -29.667 -829.5 37z" />
    <glyph glyph-name="oe" unicode="&#x153;" horiz-adv-x="901" 
d="M308 732c195.333 -14 296.668 -134.168 304.001 -360.501s-90.334 -351.5 -293.001 -375.5c-152.667 2.66699 -255 112.334 -307 329.001c-40.667 271.333 22 391 188 359c30.667 0 66.667 16 108 48zM290.002 500.999h-10c-34 16 -51 43.333 -51 82h-9
c-110 30.667 -146.667 -45.5 -110 -228.5s115.667 -268.5 237 -256.5c111.333 14.667 170.833 91.667 178.5 231s-41.5 234 -147.5 284h-20c-10 0 -32.667 -37.333 -68 -112zM564.002 195.999c115.333 -96 229.333 -118.667 342 -68h30v-20c-36 -58 -104 -88 -204 -90
s-178 37 -234 117zM557.002 409.999l54 13.998c176.667 60 234 134.167 172 222.5s-145.667 74.5 -251 -41.5c-98.667 -0.666992 -105 31.333 -19 96s165 91.5 237 80.5s118 -56.667 138 -137s-3.5 -149.166 -70.5 -206.499s-140.833 -97.666 -221.5 -120.999
c-6.66699 -2.66699 -13.334 -4.66699 -20.001 -6c0.666992 -10 -5.66602 23 -18.999 99z" />
    <glyph glyph-name="Scaron" unicode="&#x160;" horiz-adv-x="800" 
d="M493 1360c112.667 98.667 131.999 94.5 57.999 -12.5s-124.667 -161.167 -152 -162.5c-30 1.33301 -61 21.166 -93 59.499s-78 86.833 -138 145.5c13.333 30.667 51.833 15 115.5 -47s97.834 -93 102.501 -93h6c12 22.667 45.667 59.334 101 110.001zM393.999 1160
c82.667 -2 149.663 -18.332 200.996 -48.999s93 -69.5 125 -116.5s48 -101.333 48 -163s-23.333 -105.667 -70 -132s-96.334 -27 -149.001 -2s-49.667 37.5 9 37.5s98.167 9.66699 118.5 29s26.833 52.333 19.5 99s-41.833 97.167 -103.5 151.5s-126 76.833 -193 67.5
s-112.5 -35.333 -136.5 -78c-23.333 -50.667 -28.166 -100.834 -14.499 -150.501s41.667 -103.167 84 -160.5s100.5 -108 174.5 -152s127.5 -78.667 160.5 -104s63.333 -57.833 91 -97.5s40 -96.667 37 -171s-33.167 -132.666 -90.5 -174.999
s-154.166 -56.166 -290.499 -41.499s-236.166 70.167 -299.499 166.5s-89.666 170 -78.999 221s32 58.833 64 23.5c36 -122 89.833 -209.333 161.5 -262s153.667 -78.334 246 -77.001s150.833 25.5 175.5 72.5s32.667 96.833 24 149.5s-51.834 101.834 -129.501 147.501
s-156.167 102.167 -235.5 169.5c-55.333 58.667 -103.666 127.667 -144.999 207c-9.33301 21.333 -18.833 54.666 -28.5 99.999s-9.5 85.166 0.5 119.499s30.833 71.333 62.5 111s85.834 59.5 162.501 59.5z" />
    <glyph glyph-name="scaron" unicode="&#x161;" horiz-adv-x="603" 
d="M358 959c76 66 89.001 63.167 39.001 -8.5s-84.333 -107.834 -103 -108.501c-20 0.666992 -40.833 13.834 -62.5 39.501s-52.834 58.167 -93.501 97.5c9.33301 20.667 35.5 10.167 78.5 -31.5s66.167 -62.5 69.5 -62.5h4c8 15.333 30.667 40 68 74zM269.001 755
c106 -2.66699 181.502 -31.3359 226.502 -86.0029s55.5 -106.167 31.5 -154.5s-72 -74.833 -144 -79.5c-58.667 50 -66.834 70.833 -24.501 62.5s69.666 8.83398 81.999 51.501s-1.5 73.5 -41.5 92.5s-94.667 24.667 -164 17s-112 -33.167 -128 -76.5
c-16.667 -72.667 10 -121.667 80 -147c28 -14.667 123 -43.334 285 -86.001c128 -52.667 167.833 -139.834 119.5 -261.501s-157 -150.667 -326 -87s-224.833 106.5 -167.5 128.5c32.667 -5.33301 89 -22.666 169 -51.999s143.5 -23.666 190.5 17.001
s60.833 76.334 41.5 107.001s-48.5 54.167 -87.5 70.5s-102 35.5 -189 57.5s-147.167 54.833 -180.5 98.5s-42.5 91.334 -27.5 143.001s46 96 93 133s100.833 54.167 161.5 51.5z" />
    <glyph glyph-name="Ydieresis" unicode="&#x178;" horiz-adv-x="737" 
d="M109 1336c66.667 -28.667 73.834 -71.5 21.501 -128.5s-90.333 -51.167 -114 17.5s7.16602 105.667 92.499 111zM617 1233c100 -6 133.333 -37.5 100 -94.5s-64.5 -74.833 -93.5 -53.5s-41.5 51.333 -37.5 90s14.333 58 31 58zM103 1074
c7.33301 -210 94.667 -385.002 262 -525.002c34.667 48 69.334 109.667 104.001 185s59.167 123.833 73.5 145.5s38.833 41.834 73.5 60.501c42 -4 63 -25.667 63 -65c-76 -55.333 -137.167 -135 -183.5 -239s-82.5 -177.333 -108.5 -220s-53.5 -95.5 -82.5 -158.5
l-106.5 -222.5c-42 -85.333 -70.333 -161.333 -85 -228s-16.334 -110 -5.00098 -130s24.5 -37.833 39.5 -53.5s0.166992 -26.5 -44.5 -32.5c-84 44 -107.667 120.333 -71 229s61.334 176.834 74.001 204.501l51.5 109.5l73.5 158.5l80 173.5c-60 62 -113 128 -159 198
s-82.833 136 -110.5 198s-42.834 116.333 -45.501 163c14 22.667 49.667 39 107 49z" />
    <glyph glyph-name="Zcaron" unicode="&#x17d;" horiz-adv-x="985" 
d="M799 1360c112.667 98.667 131.999 94.5 57.999 -12.5s-124.667 -161.167 -152 -162.5c-30 1.33301 -61 21.166 -93 59.499s-78 86.833 -138 145.5c13.333 30.667 51.833 15 115.5 -47s97.834 -93 102.501 -93h6c12 22.667 45.667 59.334 101 110.001zM661.999 1153
c177.333 7.33301 274.836 -43.6719 292.503 -153.005s-70.5 -279.666 -264.5 -510.999c68 -20 140.667 -20 218 0c62 16.667 81.5 6.33398 58.5 -30.999s-134.5 -56 -334.5 -56l-243 -333c16 -2.66699 59.833 -4.83398 131.5 -6.50098s111.5 -8.16699 119.5 -19.5
c40 -30 9.66699 -47.667 -91 -53s-173.834 -4.66602 -219.501 2.00098s-87.167 3.83398 -124.5 -8.49902s-70.666 -18.5 -99.999 -18.5c-62.667 11.333 -98 40 -106 86c15.333 18 28.833 28.833 40.5 32.5s82.5 3.83398 212.5 0.500977c40 26.667 86.5 72 139.5 136
s100.833 132.667 143.5 206c-97.333 16 -149.333 42.333 -156 79c0 34 15.333 45.333 46 34s87.667 -25.333 171 -42c89.333 90.667 173.333 227.334 252 410.001c13.333 114 -46.334 169.667 -179.001 167c-118.667 -13.333 -197.667 -76.333 -237 -189
c-44.667 12 -62.334 44.667 -53.001 98c45.333 113.333 139.666 170 282.999 170z" />
    <glyph glyph-name="zcaron" unicode="&#x17e;" horiz-adv-x="591" 
d="M409 1094c112.667 98.667 131.999 94.5 57.999 -12.5s-124.667 -161.167 -152 -162.5c-30 1.33301 -61 21.166 -93 59.499s-78 86.833 -138 145.5c13.333 30.667 51.833 15 115.5 -47s97.834 -93 102.501 -93h6c12 22.667 45.667 59.334 101 110.001zM291.999 735
c196.667 -16 269.001 -76.666 217.001 -181.999c0 -18.667 -20 -74 -60 -166c72.667 -4 100.667 -21.333 84 -52c0 -18.667 -53 -27.667 -159 -27c-37.333 -40.667 -68.5 -84.334 -93.5 -131.001s0.833008 -77 77.5 -91s181.667 7.66699 315 65l13 -18
c0 -40.667 -85.333 -85.667 -256 -135c-210 6 -294.667 53.167 -254 141.5s82.334 151.5 125.001 189.5l-97 70c9.33301 24.667 23.333 37 42 37l117 -38c23.333 5.33301 42.666 70 57.999 194c-4 40.667 -44 61 -120 61c-76 4.66699 -134 -3.5 -174 -24.5
s-63.333 -78.5 -70 -172.5h-6c-17.333 0 -32.333 29.667 -45 89s-3.83398 105.833 26.499 139.5s116.833 50.5 259.5 50.5z" />
    <glyph glyph-name="florin" unicode="&#x192;" horiz-adv-x="763" 
d="M471 1098c126 -1.33301 182.499 -57.6631 169.499 -168.996s-44.167 -213.166 -93.5 -305.499l-112 -213.5c-7.33301 -71.333 0 -137.666 22 -198.999c116 50.667 210.333 72.667 283 66l21 -41c4 -6.66699 -16.667 -17.334 -62 -32.001l-146.5 -47
c-52.333 -16.667 -77.5 -32.5 -75.5 -47.5s5.5 -74.833 10.5 -179.5s3.16699 -187.334 -5.5 -248.001c-17.333 -70.667 -62.833 -99.334 -136.5 -86.001s-124 53.666 -151 120.999s-34.333 130.166 -22 188.499s35.333 112.166 69 161.499s67.667 81.5 102 96.5
s37.5 73.5 9.5 175.5c-22.667 -54.667 -40.167 -92.334 -52.5 -113.001s-38.666 -59.5 -78.999 -116.5s-124.5 -93.833 -252.5 -110.5c-24.667 16.667 -25.667 38 -3 64c123.333 23.333 212.333 83 267 179s86.334 166.667 95.001 212c0 53.333 -4.83301 117 -14.5 191
s-11.834 153.833 -6.50098 239.5s60 156.834 164 213.501zM390.999 684.003l14 -209.999c72 172.667 117 290.667 135 354s20.5 112.166 7.5 146.499s-43.833 38.5 -92.5 12.5c-40 -25.333 -63.167 -63.5 -69.5 -114.5s-4.5 -113.833 5.5 -188.5zM292.999 0.00390625
c-22.667 -39.333 -36.499 -84.998 -41.499 -136.998s2.33301 -95 22 -129s48.167 -54.333 85.5 -61s54.333 61.666 51 204.999c0 52 -0.333008 102.667 -1 152s-12.834 69.666 -36.501 60.999s-50.167 -39 -79.5 -91z" />
    <glyph glyph-name="circumflex" unicode="&#x2c6;" horiz-adv-x="588" 
d="M407 1177c-60 75.333 -96.9961 129.667 -110.996 163h-6c-4.66699 0 -40.334 -46 -107.001 -138s-107.667 -115.333 -123 -70c63.333 87.333 111.666 159.333 144.999 216s65.666 86 96.999 88c30 -2 85.167 -82.167 165.5 -240.5s60.166 -164.5 -60.501 -18.5z" />
    <glyph glyph-name="caron" unicode="&#x2c7;" horiz-adv-x="521" 
d="M487 1421l18.999 0.000976562c0 -12.667 -35 -73.334 -105 -182.001c-74.667 -122.667 -116.167 -186.167 -124.5 -190.5s-12.5 -8.5 -12.5 -12.5c-31.333 2 -107.666 103.333 -228.999 304c8 23.333 18.333 35 31 35c24 0 55 -37 93 -111
c57.333 -81.333 88.333 -122 93 -122h6c19.333 15.333 67 78 143 188c42 70.667 70.667 101 86 91z" />
    <glyph glyph-name="uni02C9" unicode="&#x2c9;" horiz-adv-x="688" 
d="M84 1343c160 -6.66699 289 -14.167 387 -22.5s158.667 -11.5 182 -9.5s34 -10 32 -36s-72.667 -33.667 -212 -23s-248.333 8.66699 -327 -6s-121.167 -2.16699 -127.5 37.5s15.5 59.5 65.5 59.5z" />
    <glyph glyph-name="breve" unicode="&#x2d8;" horiz-adv-x="478" 
d="M9 1304c0 40 25.999 83.667 77.999 131c14.667 -6 15 -25.5 1 -58.5s-21 -67.333 -21 -103s24.333 -65.334 73 -89.001s103.334 -27.5 164.001 -11.5s103 88.667 127 218h5c22.667 14 30.5 -17.5 23.5 -94.5s-39.167 -130.667 -96.5 -161s-117.333 -39.333 -180 -27
s-110 32.833 -142 61.5s-42.667 73.334 -32 134.001z" />
    <glyph glyph-name="dotaccent" unicode="&#x2d9;" horiz-adv-x="240" 
d="M117 1423c53.333 0 80 -28.666 80 -85.999c-20 -44.667 -46.667 -67 -80 -67h-12c-29.333 0 -52 15.667 -68 47s-9.66699 64.666 19 99.999z" />
    <glyph glyph-name="ring" unicode="&#x2da;" horiz-adv-x="251" 
d="M101 1432c25.333 8.66699 56.168 0.832031 92.501 -23.501s43.166 -57.166 20.499 -98.499s-46.5 -66 -71.5 -74s-46.667 -9.66699 -65 -5s-33.833 16 -46.5 34s-15.667 44.333 -9 79s33 64 79 88zM96.002 1359c-9.33301 2 -16.665 7.33301 -21.998 16
c-16 -23.333 -24 -43.5 -24 -60.5s6 -30.5 18 -40.5s30 -12.167 54 -6.5s41.667 17 53 34s17.666 34.167 18.999 51.5s-21.334 33 -68.001 47c-8 0 -15.333 -12.667 -22 -38c-1.33301 0 -4 -1 -8 -3z" />
    <glyph glyph-name="ogonek" unicode="&#x2db;" horiz-adv-x="442" 
d="M275 20c22.667 -2.66699 34 -16.332 34 -40.999v-7c-107.333 -116.667 -162.333 -213 -165 -289h-7c46 0 130.667 4.66699 254 14c9.33301 -4.66699 16.333 -7 21 -7c-55.333 -64 -163 -96 -323 -96c-36.667 13.333 -55 34 -55 62
c76.667 211.333 157 332.666 241 363.999z" />
    <glyph glyph-name="tilde" unicode="&#x2dc;" horiz-adv-x="565" 
d="M378 1050c-61.333 8.66699 -98.1689 50.166 -110.502 124.499s-38.166 107.833 -77.499 100.5s-69.166 -37.333 -89.499 -90s-38 -74.834 -53 -66.501s-8.5 46.833 19.5 115.5s72.5 105.334 133.5 110.001s99.5 -33.833 115.5 -115.5s39 -123.667 69 -126
s56.833 20.167 80.5 67.5s44 69.833 61 67.5s9.5 -35.666 -22.5 -99.999s-74 -93.5 -126 -87.5z" />
    <glyph glyph-name="hungarumlaut" unicode="&#x2dd;" horiz-adv-x="609" 
d="M573 1448c10 -1.33301 14.999 -6.33301 14.999 -15v-22l-112 -165c-62 -95.333 -114.333 -143 -157 -143c-25.333 0 -40.333 10 -45 30c168.667 210 268.334 315 299.001 315zM378.999 1411h30c37.333 4 11.833 -34 -76.5 -114s-153.833 -144 -196.5 -192
s-81.667 -66 -117 -54c0 18 37.333 68 112 150c96 120 178.667 190 248 210z" />
    <glyph glyph-name="endash" unicode="&#x2013;" horiz-adv-x="1041" 
d="M239 415c32 5.33301 62.667 8.00098 92 8.00098s64.5 1.16699 105.5 3.5s232.5 -16.5 574.5 -56.5c44 -48.667 5.66699 -71.334 -115 -68.001s-306.834 2.83301 -558.501 -1.5s-356.167 13.667 -313.5 54s114.334 60.5 215.001 60.5z" />
    <glyph glyph-name="emdash" unicode="&#x2014;" horiz-adv-x="2101" 
d="M1813 372l154 10.001c168.667 -44.667 183.5 -85.834 44.5 -123.501s-781.167 -38.167 -1926.5 -1.5c-80 12.667 -105.667 44.667 -77 96c237.333 62.667 839 69 1805 19z" />
    <glyph glyph-name="quoteleft" unicode="&#x2018;" horiz-adv-x="306" 
d="M223 1054c-145.333 2.66699 -201.835 60.332 -169.502 172.999s66 198.5 101 257.5s62.667 94.833 83 107.5s6.33301 -36.5 -42 -147.5s-71.666 -190.667 -69.999 -239s18.334 -79.666 50.001 -93.999s47.5 -33.5 47.5 -57.5z" />
    <glyph glyph-name="quoteright" unicode="&#x2019;" horiz-adv-x="308" 
d="M117 1562c112.667 4 157.665 -61.168 134.998 -195.501s-84 -242.833 -184 -325.5c-15.333 11.333 -6.16602 41.333 27.501 90s55.834 97.334 66.501 146.001s16 92 16 130s-21.333 67.833 -64 89.5s-41.667 43.5 3 65.5z" />
    <glyph glyph-name="quotesinglbase" unicode="&#x201a;" horiz-adv-x="277" 
d="M156 277c67.333 -26.667 94 -81.667 80 -165s-70.667 -206.333 -170 -369h-5c-13.333 45.333 -4.33301 104 27 176s46 134 44 186s-28 91.333 -78 118c25.333 27.333 59.333 45.333 102 54z" />
    <glyph glyph-name="quotedblleft" unicode="&#x201c;" horiz-adv-x="561" 
d="M149 1581c94 4 119.331 -15.499 75.998 -58.499s-73.5 -104.667 -90.5 -185s4.33301 -157.833 64 -232.5s65.5 -97.334 17.5 -68.001s-86.667 76 -116 140s-35.166 145.5 -17.499 244.5s39.834 152.167 66.501 159.5zM436.998 1568
c50.667 -14.667 43.8311 -67.5 -20.502 -158.5s-57.666 -184.5 20.001 -280.5s72.334 -112 -15.999 -48s-120 162.5 -95 295.5s62.167 196.833 111.5 191.5z" />
    <glyph glyph-name="quotedblright" unicode="&#x201d;" horiz-adv-x="571" 
d="M123 1579c112.667 2.66699 146.333 -74.668 101 -232.001s-91.333 -255.666 -138 -294.999s-53.167 -21 -19.5 55s53.667 157 60 243s0 136.833 -19 152.5s-13.833 41.167 15.5 76.5zM445.999 1568c78 -90 88.502 -191.333 31.502 -304s-113.333 -189.5 -169 -230.5
s-56.834 -21.5 -3.50098 58.5s87.166 153.333 101.499 220s3.83301 126 -31.5 178c0 52 23.667 78 71 78z" />
    <glyph glyph-name="quotedblbase" unicode="&#x201e;" horiz-adv-x="397" 
d="M94 237c46 0 75.833 -28.501 89.5 -85.501s8 -128.667 -17 -215s-50.833 -139.333 -77.5 -159s-32 -9.83398 -16 29.499s28.333 93.833 37 163.5s-3 126.834 -35 171.501s-25.667 76.334 19 95.001zM308 227.999c38 -62 54.832 -134.667 50.499 -218
s-18.666 -145.333 -42.999 -186s-44.5 -65.5 -60.5 -74.5s-13.333 9.16699 8 54.5s32 100.333 32 165s-19.333 125 -58 181c-6 66.667 17.667 92.667 71 78z" />
    <glyph glyph-name="dagger" unicode="&#x2020;" horiz-adv-x="1035" 
d="M512 1440c75.333 -8.66699 102.5 -36.499 81.5 -83.499s-31.5 -88.167 -31.5 -123.5v-288c10.667 -16 94 -24 250 -24c115.333 54.667 175 45 179 -29s-17.5 -100.667 -64.5 -80s-87.5 32.334 -121.5 35.001c-10 5.33301 -54.167 9.33301 -132.5 12
s-111.833 5.66699 -100.5 9c-11.333 -62 -23.5 -282.333 -36.5 -661s-21.833 -587.667 -26.5 -627c-22 70 -33.667 162.667 -35 278s-3.33301 248.166 -6 398.499s-1.33398 355.5 3.99902 615.5c5.33301 0 -54.667 11.167 -180 33.5s-204 48 -236 77
s-45.167 67.5 -39.5 115.5s13.834 72 24.501 72c20.667 13.333 50.667 -17.834 90 -93.501s95.833 -115 169.5 -118s130.834 -4.5 171.501 -4.5c11.333 28 18.166 79.667 20.499 155s-8.16699 145 -31.5 209s-6.33301 104.667 51 122z" />
    <glyph glyph-name="daggerdbl" unicode="&#x2021;" horiz-adv-x="1109" 
d="M468 1445c82 -32 122.999 -71.498 122.999 -118.498s-25.667 -88.833 -77 -125.5l25 -342c133.333 -11.333 229.333 -17 288 -17h10c32 51.333 75.167 85 129.5 101s97.5 -8 129.5 -72c2 -80.667 -65.333 -108 -202 -82c-36 -13.333 -151 -15.333 -345 -6l41 -578
c76.667 -8.66699 144 -8.66699 202 0c96 81.333 147.167 88.666 153.5 21.999s-44.834 -93.667 -153.501 -81h-195v-173c54 -42 68 -79.667 42 -113s-54 -50.833 -84 -52.5s-52 17.666 -66 57.999s-8 74.5 18 102.5v188c-54 8.66699 -121.333 6.66699 -202 -6
c-49.333 -25.333 -96.666 -31.833 -141.999 -19.5s-58.166 40.333 -38.499 84s77.5 44.167 173.5 1.5l202 -9c-4 308 -16 500.667 -36 578c-124 32.667 -231.333 64 -322 94c-85.333 18 -132.5 59.333 -141.5 124s20.333 97 88 97s101.5 -57.667 101.5 -173
c100 -38 186.333 -59.333 259 -64c0 111.333 1.33301 229.333 4 354c-54 68 -75.5 123 -64.5 165s37.5 63 79.5 63z" />
    <glyph glyph-name="bullet" unicode="&#x2022;" horiz-adv-x="662" 
d="M457 682c79.333 -16.667 131.833 -82.167 157.5 -196.5s3 -206 -68 -275s-150.5 -107.333 -238.5 -115s-159 33 -213 122s-61.833 195.5 -23.5 319.5s166.833 172.333 385.5 145z" />
    <glyph glyph-name="ellipsis" unicode="&#x2026;" horiz-adv-x="1213" 
d="M130 77c51.333 0 79 -17.833 83 -53.5s-13 -56 -51 -61s-60.833 12.833 -68.5 53.5s4.5 61 36.5 61zM1092 133c55.333 0 81.002 -22.333 77.002 -67s-24.333 -67 -61 -67s-61.834 22.333 -75.501 67s6.16602 67 59.499 67zM671.002 125
c41.333 -20.667 62 -42.833 62 -66.5s-22.667 -37.5 -68 -41.5s-73 20 -83 72c0 24 29.667 36 89 36z" />
    <glyph glyph-name="perthousand" unicode="&#x2030;" horiz-adv-x="342" 
d="M343 1238c56.667 -3.33301 98.5039 -23.168 125.504 -59.501s36.333 -95.666 28 -177.999s-33.333 -152.5 -75 -210.5s-87.834 -84 -138.501 -78c-43.333 -3.33301 -78.833 18.5 -106.5 65.5s-39.834 108.667 -36.501 185s22.666 141.333 57.999 195
s83.666 80.5 144.999 80.5zM178.004 884.998c15.333 -78 46.332 -120.667 92.999 -128c43.333 -4 80.833 13.667 112.5 53s53.834 99.666 66.501 180.999c18.667 93.333 -0.833008 152.333 -58.5 177s-110.167 11.834 -157.5 -38.499s-66 -131.833 -56 -244.5z
M591.003 577.998c56.667 -3.33301 98.5039 -23.168 125.504 -59.501s36.333 -95.666 28 -177.999s-33.333 -152.5 -75 -210.5s-87.834 -84 -138.501 -78c-43.333 -3.33301 -78.833 18.5 -106.5 65.5s-39.834 108.667 -36.501 185s22.666 141.333 57.999 195
s83.666 80.5 144.999 80.5zM426.007 224.996c15.333 -78 46.332 -120.667 92.999 -128c43.333 -4 80.833 13.667 112.5 53s53.834 99.666 66.501 180.999c18.667 93.333 -0.833008 152.333 -58.5 177s-110.167 11.834 -157.5 -38.499s-66 -131.833 -56 -244.5z
M1012.01 561.996c56.667 -3.33301 98.5039 -23.168 125.504 -59.501s36.333 -95.666 28 -177.999s-33.333 -152.5 -75 -210.5s-87.834 -84 -138.501 -78c-43.333 -3.33301 -78.833 18.5 -106.5 65.5s-39.834 108.667 -36.501 185s22.666 141.333 57.999 195
s83.666 80.5 144.999 80.5zM847.01 208.994c15.333 -78 46.332 -120.667 92.999 -128c43.333 -4 80.833 13.667 112.5 53s53.834 99.666 66.501 180.999c18.667 93.333 -0.833008 152.333 -58.5 177s-110.167 11.834 -157.5 -38.499s-66 -131.833 -56 -244.5z
M1360.01 992.994l19.999 -0.00390625c0 -2 12.333 -5.33301 37 -10c-4.66699 -21.333 -94.167 -68.666 -268.5 -141.999s-299.666 -127.666 -375.999 -162.999l-324 -149.5c-139.667 -64.333 -213 -96.166 -220 -95.499s-10.5 0.333984 -10.5 -0.999023
c-40 4.66699 -60 11.667 -60 21c49.333 43.333 202.833 122.333 460.5 237s501.5 214.667 731.5 300c0 2 3.33301 3 10 3z" />
    <glyph glyph-name="guilsinglleft" unicode="&#x2039;" horiz-adv-x="545" 
d="M458 490l10.0029 -20.001v-8c18 -12.667 -28 -39.834 -138 -81.501s-174.667 -66.5 -194 -74.5c27.333 -19.333 151.333 -92.666 372 -219.999c-8.66699 -31.333 -45.334 -35.166 -110.001 -11.499s-145.334 65.5 -242.001 125.5s-140.834 97.5 -132.501 112.5
s70.5 47.5 186.5 97.5s198.667 76.667 248 80z" />
    <glyph glyph-name="guilsinglright" unicode="&#x203a;" horiz-adv-x="545" 
d="M117 675c16.667 -4 55.833 -52.833 117.5 -146.5s146.5 -191.167 254.5 -292.5c16.667 -36 3.5 -50 -39.5 -42s-105.5 13.167 -187.5 15.5s-128 3.5 -138 3.5c-34 0.666992 -43.667 14.167 -29 40.5s69 42.833 163 49.5l79 -17c-154 186.667 -237.333 299 -250 337
c8.66699 34.667 18.667 52 30 52z" />
    <glyph glyph-name="fraction" unicode="&#x2044;" horiz-adv-x="976" 
d="M909 1416l14 -0.00292969c0 -5.33301 9 -13.666 27 -24.999c-3.33301 -54 -68.5 -174 -195.5 -360s-218.333 -323.833 -274 -413.5l-236.5 -378c-102 -162.333 -155.5 -242.666 -160.5 -240.999s-7.5 0.833984 -7.5 -2.49902c-29.333 11.333 -44 28.333 -44 51
c36 110.667 148 311.167 336 601.5s365.667 543.833 533 760.5c0 4.66699 2.66699 7 8 7z" />
    <glyph glyph-name="fraction" unicode="&#x2215;" horiz-adv-x="976" 
d="M909 1416l14 -0.00292969c0 -5.33301 9 -13.666 27 -24.999c-3.33301 -54 -68.5 -174 -195.5 -360s-218.333 -323.833 -274 -413.5l-236.5 -378c-102 -162.333 -155.5 -242.666 -160.5 -240.999s-7.5 0.833984 -7.5 -2.49902c-29.333 11.333 -44 28.333 -44 51
c36 110.667 148 311.167 336 601.5s365.667 543.833 533 760.5c0 4.66699 2.66699 7 8 7z" />
    <glyph glyph-name="franc" unicode="&#x20a3;" horiz-adv-x="879" 
d="M344 1429c940.667 10.667 1382.34 -34.667 1325.01 -136c-6.66699 -23.333 -22.667 -35 -48 -35c-152.667 31.333 -298 48.5 -436 51.5s-264.5 3 -379.5 0s-197.833 -10.833 -248.5 -23.5c-11.333 -11.333 -11 -219.333 1 -624c24 -23.333 102.333 -20 235 10
c47.333 2 45.666 -18.333 -5.00098 -61l-224 -79c-16 -128 -16 -253.667 0 -377c19.333 -51.333 38.166 -90.333 56.499 -117s-4.83398 -35.667 -69.501 -27c-14.667 -6 -37.834 14.167 -69.501 60.5s-44.167 440.833 -37.5 1183.5c7.33301 26.667 -3.33398 40 -32.001 40
c-145.333 3.33301 -293.333 -2.33398 -444 -17.001c-86 22.667 -124.833 47.334 -116.5 74.001s33.166 43.667 74.499 51c50.667 7.33301 190 16 418 26zM302.005 380.999c160 -6.66699 283.335 -15.333 370.002 -26s141.667 -15 165 -13s35.166 -15.5 35.499 -52.5
s-63.5 -49 -191.5 -36s-231.333 12.167 -310 -2.5s-122.334 3.33301 -131.001 54s12 76 62 76z" />
    <glyph glyph-name="lira" unicode="&#x20a4;" horiz-adv-x="866" 
d="M595 1441c112.667 2.66699 177.995 -49.333 195.995 -156c0 -35.333 -12 -54.333 -36 -57h-15c-33.333 -11.333 -51.833 3.5 -55.5 44.5s-23.167 64.5 -58.5 70.5s-66.666 -6.66699 -93.999 -38s-52.666 -79.166 -75.999 -143.499s-40 -209.833 -50 -436.5
c5.33301 -7.33301 71.833 -10.833 199.5 -10.5s193.834 -22.834 198.501 -69.501c-5.33301 -3.33301 -144 -11 -416 -23c-15.333 -18 -30.166 -61.833 -44.499 -131.5s-64.5 -166.834 -150.5 -291.501c19.333 -23.333 76.833 -44.833 172.5 -64.5
s186.334 -31.334 272.001 -35.001s133 55.333 142 177s8.5 183.5 -1.5 185.5c66.667 4 92.334 -68.667 77.001 -218s-74.833 -229.666 -178.5 -240.999s-220.834 8 -351.501 58c-88 22 -137.333 33 -148 33c-28 -26.667 -62.167 -41.167 -102.5 -43.5s-61.833 31 -64.5 100
s30 103.5 98 103.5c54 51.333 112.333 173 175 365c-94 6.66699 -133.333 17.667 -118 33c22 38.667 65.667 63.334 131 74.001c0 32 11.5 156.833 34.5 374.5s111.167 331.167 264.5 340.5zM286.995 474l385 0.000976562c51.333 -48 16.5 -72 -104.5 -72
s-251.333 -4.83301 -391 -14.5s-189.5 3.66602 -149.5 39.999s126.667 51.833 260 46.5z" />
    <glyph glyph-name="peseta" unicode="&#x20a7;" horiz-adv-x="1870" 
d="M386 1430h60.002c151.333 0 258.166 -53.667 320.499 -161s81.833 -211.833 58.5 -313.5s-58.5 -187.334 -105.5 -257.001s-124.667 -106.5 -233 -110.5s-223.5 45.333 -345.5 148c10.667 -125.333 29.5 -250.333 56.5 -375s53.167 -209.5 78.5 -254.5
s16.833 -66.833 -25.5 -65.5s-71.5 23.833 -87.5 67.5s-42.333 153.834 -79 330.501s-61.5 340.5 -74.5 491.5s9.16699 271.5 66.5 361.5s160.666 136 309.999 138zM114.002 999c-3.33301 -172 103.999 -265.336 321.999 -280.003
c114.667 -21.333 194.834 33.834 240.501 165.501s48 236.834 7 315.501s-121.5 123.334 -241.5 134.001s-205 -18 -255 -86s-74.333 -151 -73 -249zM996.001 1337c17.333 -13.333 29.666 -33.6699 36.999 -61.0029s16.833 -70.166 28.5 -128.499s20.167 -174.5 25.5 -348.5
l332 -37c42 89.333 128.333 134 259 134c30.667 0 60.5 -27.667 89.5 -83s-6.5 -88 -106.5 -98c-25.333 28.667 -39.666 43 -42.999 43c-108 -8 -89.5 -55.833 55.5 -143.5s208.667 -202.167 191 -343.5s-117.167 -212 -298.5 -212
c-169.333 42.667 -266.666 86.5 -291.999 131.5s-16.5 97.833 26.5 158.5s53.833 37.334 32.5 -69.999c57.333 -89.333 149.5 -130.5 276.5 -123.5s185.167 57.167 174.5 150.5s-60.834 170.333 -150.501 231s-154.167 109 -193.5 145c-39.333 0 -89.333 0.833008 -150 2.5
s-125.667 4.16699 -195 7.5c-6 -178.667 2.66699 -280.667 26 -306c-23.333 -92 -50 -134.167 -80 -126.5s-43.5 30.167 -40.5 67.5s1.5 79 -4.5 125s-6.33301 128 -1 246c0 7.33301 -34 14.333 -102 21c-64.667 14.667 -97 36.334 -97 65.001s18.833 40.167 56.5 34.5
s86.5 -8.5 146.5 -8.5c-58 378 -59 553.667 -3 527z" />
    <glyph glyph-name="Euro" unicode="&#x20ac;" horiz-adv-x="1299" 
d="M983 1437c116.667 -6.66699 184.167 -35.5 202.5 -86.5s-19 -57 -112 -18s-209 12.5 -348 -79.5s-231.833 -259.333 -278.5 -502h326.5c59.667 0 87.834 -17.333 84.501 -52c-106.667 -24.667 -250.334 -34.667 -431.001 -30c-12 -14.667 -14.667 -62.667 -8 -144
c211.333 -17.333 289.333 -45 234 -83c-14 -12 -86.667 -10.333 -218 5c12 -163.333 92.667 -270.5 242 -321.5s288.666 -72.167 417.999 -63.5s193.166 0.666992 191.499 -24s-36.667 -41.667 -105 -51s-166.833 -9.5 -295.5 -0.5s-247.667 38.5 -357 88.5
s-185.333 174.333 -228 373c-130.667 5.33301 -194.5 21.833 -191.5 49.5s68.5 36.834 196.5 27.501v123c-85.333 1.33301 -159.666 3 -222.999 5s-90.666 11.667 -81.999 29s32 30.166 70 38.499s66.833 12.5 86.5 12.5h166.5c48.667 188 111.5 333 188.5 435
s153.833 173.5 230.5 214.5s156.667 59.167 240 54.5z" />
    <glyph glyph-name="afii61352" unicode="&#x2116;" horiz-adv-x="2038" 
d="M1237 1439c79.333 -40.667 110.835 -167.5 94.502 -380.5s-47.166 -390.333 -92.499 -532s-106.666 -275.167 -183.999 -400.5s-149.666 -186.666 -216.999 -183.999c-133.333 39.333 -239 316.333 -317 831c-42 -107.333 -113.833 -253.833 -215.5 -439.5
s-172.667 -301.334 -213 -347.001s-71.833 -24.5 -94.5 63.5c46 -6.66699 146.333 140.666 301 441.999s233.667 497.333 237 588c-3.33301 67.333 5.33398 101 26.001 101c34 0 71.667 -16.667 113 -50c-12.667 -71.333 -22.334 -177 -29.001 -317
s17.166 -299.167 71.499 -477.5s102.166 -260.5 143.499 -246.5c53.333 -33.333 133.666 80.334 240.999 341.001s153.666 522 138.999 784c-8.66699 64 -28 104.5 -58 121.5s-64.333 17.167 -103 0.5c59.333 62.667 111.666 96.667 156.999 102zM1644 1186
c173.333 -6 263.667 -101 271 -285s-79.667 -285.667 -261 -305c-136.667 2 -228 90 -274 264c-36.667 217.333 19.333 313 168 287c27.333 0 59.333 13 96 39zM1628 1001l-9.00098 -0.000976562c-30 12.667 -45 34.334 -45 65.001h-8
c-98.667 24.667 -131.667 -36.333 -99 -183s103.334 -215 212.001 -205c100 11.333 153.5 78 160.5 200s-37.167 192.667 -132.5 212h-18c-8.66699 0 -29 -29.667 -61 -89zM1474 526.999c32 5.33301 62.667 8.00293 92 8.00293s64.5 1.16699 105.5 3.5
s155.5 2.83301 343.5 1.5c44 -48.667 5.66699 -71.334 -115 -68.001s-259.834 0.666016 -417.501 -8.00098s-223.667 -0.333984 -198 24.999s88.834 38 189.501 38z" />
    <glyph glyph-name="trademark" unicode="&#x2122;" horiz-adv-x="1528" 
d="M1462 1313c-28 26.667 -58 40.667 -90 42c-34 2.66699 -66.667 4 -98 4h-34c-18.667 0 -78.334 -2.33301 -179.001 -7c-104.667 -3.33301 -221 -18 -349 -44c-211.333 -50 -345.666 -75 -402.999 -75c-3.33301 0 -30 1.33301 -80 4
c-49.333 2.66699 -97.666 8.33398 -144.999 17.001c-47.333 9.33301 -71 29 -71 59c0 15.333 9.33301 28.666 28 39.999c87.333 -16 164.666 -25 231.999 -27c69.333 -2 110.666 -2.66699 123.999 -2c16 0.666992 48.333 4.66699 97 12c52 7.33301 121 22.333 207 45
c86.667 22.667 179.334 38 278.001 46c314 22 492 8 534 -42c11.333 -67.333 -5.66699 -91.333 -51 -72zM547 1177c0 -55.333 2.33203 -108.333 6.99902 -159c4 -48 6.33301 -77.333 7 -88c0.666992 -10 2.66699 -23.333 6 -40c3.33301 -18.667 5 -34.334 5 -47.001
c0 -12 -1 -26.333 -3 -43c-2 -14 -4 -55 -6 -123c-1.33301 -57.333 -1.66602 -114 -0.999023 -170c0.666992 -46 -9.33301 -69 -30 -69h-34c-18.667 18.667 -28 41.334 -28 68.001c0 79.333 1 133.333 3 162c1.33301 23.333 5.33301 65.333 12 126
c5.33301 52 -8 164.667 -40 338c0 52.667 19 79 57 79c18 -0.666992 33 -12 45 -34zM937.999 1279c-15.333 -126.667 -1.33105 -259 42.002 -397c42.667 -138 88.667 -205 138 -201c15.333 -0.666992 37 22.333 65 69c27.333 45.333 53.333 102 78 170
c23.333 66 29.666 139.667 18.999 221s-22.334 137.333 -35.001 168l6 2c28 9.33301 54.667 -0.666992 80 -30c18.667 -170 48 -315 88 -435c20.667 -40 24.667 -62.333 12 -67l-6 -2c-20 -1.33301 -54 37.667 -102 117c-6 -23.333 -28.333 -73.666 -67 -150.999
c-38.667 -76.667 -86 -125.334 -142 -146.001c-55.333 -20 -127 66 -215 258l-64 -251c-35.333 -138 -56 -229.667 -62 -275c-35.333 -42 -58.333 -37 -69 15c62.667 280.667 107.667 500.667 135 660c7.33301 41.333 10.333 126 9 254c1.33301 20.667 13.333 35 36 43
c13.333 4 31.333 -3.33301 54 -22z" />
    <glyph glyph-name="partialdiff" unicode="&#x2202;" horiz-adv-x="926" 
d="M84 1424l24 0.000976562c324.667 -164 540 -295.833 646 -395.5s161.333 -239.5 166 -419.5c0 -158 -18.167 -284.333 -54.5 -379s-89 -160.667 -158 -198s-150.5 -52.833 -244.5 -46.5s-169.333 21 -226 44s-109 65.167 -157 126.5s-75.333 144.333 -82 249
s32 204.667 116 300s204 145 360 149s199 -11.667 129 -47c-160 12 -284.833 -24 -374.5 -108s-136.5 -170.833 -140.5 -260.5s9.66699 -158.834 41 -207.501s86 -87.667 164 -117s161.833 -36.166 251.5 -20.499s152.167 56.667 187.5 123s56.5 128.5 63.5 186.5
s10.833 112.667 11.5 164s-5.83301 114 -19.5 188s-49 143.167 -106 207.5s-151.167 132.833 -282.5 205.5s-218 119.167 -260 139.5s-77 42.666 -105 66.999s-11.333 40.833 50 49.5z" />
    <glyph glyph-name="Delta" unicode="&#x2206;" horiz-adv-x="1042" 
d="M785 1440c56.667 -12.667 93.167 -129.165 109.5 -349.498s33.666 -389.333 51.999 -507s35.333 -207 51 -268s23.5 -116.333 23.5 -166s-23.333 -89.834 -70 -120.501c-102 21.333 -175 32 -219 32h-211h-165c-73.333 0 -187.666 -21 -342.999 -63
c-32 29.333 21.667 182.166 161 458.499l366.5 711c105 197.667 186.5 288.5 244.5 272.5zM61 80.002l116.999 23.999c150.667 12.667 273 22 367 28s168.667 3.83301 224 -6.5s77.833 10 67.5 61s-19.666 139.833 -27.999 266.5l-36.5 562.5
c-16 248.333 -56.833 322.833 -122.5 223.5s-134.167 -223.166 -205.5 -371.499z" />
    <glyph glyph-name="product" unicode="&#x220f;" horiz-adv-x="1515" 
d="M128 1420c81.333 -4.66699 176 -40.668 284 -108.001l331.5 -159c112.333 -52 244.166 -102.833 395.499 -152.5s222.166 -92.5 212.499 -128.5s-33.167 -63 -70.5 -81c0 30 -47.667 61.333 -143 94s-170.666 57.334 -225.999 74.001c-4 -44 -8.66699 -115.667 -14 -215
s-12 -260.5 -20 -483.5s-6.66699 -362.833 4 -419.5c0 -28 -18.333 -54.333 -55 -79c-22.667 0 -34.5 68.667 -35.5 206s0 228.666 3 273.999s5.83301 94.333 8.5 147s3 87.334 1 104.001s-1.16699 111.667 2.5 285s7.5 250 11.5 230c-65.333 42 -142.666 80 -231.999 114
v-169.5c0 -63 -1 -90.167 -3 -81.5s-0.166992 -165.166 5.5 -521.499s24.5 -581.833 56.5 -676.5c-2 -32 -18.667 -58.333 -50 -79c-55.333 2.66699 -85.333 134.5 -90 395.5s-7 440.667 -7 539s-1.83301 214 -5.5 347s-1.16699 224.5 7.5 274.5
c-148.667 94.667 -243 132 -283 112c-84.667 38 -127 79.333 -127 124c7.33301 27.333 20 38.666 38 33.999z" />
    <glyph glyph-name="summation" unicode="&#x2211;" horiz-adv-x="1313" 
d="M20 1441c333.333 -67.333 564.327 -89.001 692.994 -65.001s227.334 39.167 296.001 45.5s116.167 -32.167 142.5 -115.5s64.333 -160.333 114 -231s31.167 -104.667 -55.5 -102c-76 110.667 -142 225.667 -198 345c-213.333 -42.667 -396.166 -59.167 -548.499 -49.5
s-247.833 21.5 -286.5 35.5c92.667 -100 168 -176.167 226 -228.5s159.667 -124.833 305 -217.5s263.833 -149.667 355.5 -171s143.834 -46.333 156.501 -75c0 -56 -29.167 -86.333 -87.5 -91s-110.5 2 -156.5 20c-275.333 -176 -494 -309 -656 -399
c99.333 -42.667 224.333 -79.667 375 -111s271.334 -49.333 362.001 -54s137.334 31 140.001 107s26 159.333 70 250s61 -5.33301 51 -288c-12 -110.667 -51 -166 -117 -166c-98 0 -243.167 15 -435.5 45s-337.666 57.667 -435.999 83s-168.833 67 -211.5 125
c16.667 30.667 72 64.5 166 101.5s310.333 167.833 649 392.5c-52.667 28.667 -145.667 75.667 -279 141c-170.667 110 -288 194.833 -352 254.5s-171 174.834 -321 345.501v44c0 16 13 25.667 39 29z" />
    <glyph glyph-name="minus" unicode="&#x2212;" horiz-adv-x="807" 
d="M182 362c89.333 -8.66699 211.167 -16.834 365.5 -24.501s231.5 -8.5 231.5 -2.5c14 -6 21.333 -20.333 22 -43c-27.333 -28 -52.5 -42 -75.5 -42s-52 2.33301 -87 7s-59.667 7 -74 7s-114.833 4.33301 -301.5 13h-40h-56c-14 0 -42.333 -2.33301 -85 -7
c-2.66699 0 -16.167 2.83301 -40.5 8.5s-32.833 19.834 -25.5 42.501c0 22 55.333 35.667 166 41z" />
    <glyph glyph-name="radical" unicode="&#x221a;" horiz-adv-x="932" 
d="M915 1441c4.66699 -13.333 7.00195 -23.667 7.00195 -31c3.33301 -36.667 -41.834 -150.5 -135.501 -341.5s-175 -374 -244 -549s-127.5 -334 -175.5 -477s-79.667 -220.333 -95 -232s-31 -17.5 -47 -17.5c-41.333 14.667 -85 83 -131 205
c-64.667 131.333 -93.167 218.666 -85.5 261.999s26.834 65 57.501 65c32 4 54.833 -33 68.5 -111s43.834 -165.667 90.501 -263c31.333 66 62.666 143 93.999 231s99.666 253.833 204.999 497.5s170.166 390.334 194.499 440.001l93.5 198
c38 82.333 72.333 123.5 103 123.5z" />
    <glyph glyph-name="infinity" unicode="&#x221e;" horiz-adv-x="1041" 
d="M1041 264c-21.333 -55.333 -69.668 -91.999 -145.001 -109.999c38 -49.333 61 -94 69 -134s-54.667 -62.667 -188 -68c-203.333 32 -318.666 120 -345.999 264c2 -152.667 -72 -221.5 -222 -206.5s-221.667 136.5 -215 364.5c14.667 146 68.334 214.5 161.001 205.5
s160.667 -35.833 204 -80.5s67.333 -101.667 72 -171c54.667 85.333 111.167 148.166 169.5 188.499s123.666 57.833 195.999 52.5s129.833 -25.5 172.5 -60.5s66.667 -116.5 72 -244.5zM848.998 444.001c-128.667 46.667 -245.999 -8 -351.999 -164
c16.667 -58.667 67.5 -120 152.5 -184s144.833 -85.167 179.5 -63.5s42.667 50.667 24 87s-35 56.833 -49 61.5c4 34 42.667 51 116 51c43.333 96 19.666 166.667 -71.001 212zM141.999 470.001c-64.667 4 -87.332 -54 -67.999 -174s59 -190.167 119 -210.5
s115.667 39.167 167 178.5c-10.667 101.333 -83.334 170 -218.001 206z" />
    <glyph glyph-name="integral" unicode="&#x222b;" horiz-adv-x="805" 
d="M734 1433c44 -16.667 66.001 -41.002 66.001 -73.002v-7c-11.333 -24.667 -35.666 -37 -72.999 -37h-37c-74 -63.333 -115.167 -227.666 -123.5 -492.999s-24.666 -477.666 -48.999 -636.999s-73.5 -295.5 -147.5 -408.5s-153.833 -175 -239.5 -186
s-129.834 28.833 -132.501 119.5l8 110c-5.33301 26.667 -4.33301 46.834 3 60.501s23.166 19.167 47.499 16.5s36.5 -18.667 36.5 -48c-9.33301 -16 -13.333 -49 -12 -99s24.166 -68.333 68.499 -55s97 59.5 158 138.5s104.167 204.167 129.5 375.5s36 343.166 32 515.499
s13.333 333.333 52 483s109.667 224.5 213 224.5z" />
    <glyph glyph-name="approxequal" unicode="&#x2248;" horiz-adv-x="574" 
d="M172 379c50.667 0 94.002 -20.502 130.002 -61.502s80.833 -55.333 134.5 -43s80.5 35.833 80.5 70.5c35.333 7.33301 48.166 -8 38.499 -46s-46.334 -65.833 -110.001 -83.5s-115.5 -3.66699 -155.5 42s-80 65.834 -120 60.501s-68.5 -17.5 -85.5 -36.5
s-29.833 -28.167 -38.5 -27.5s-14 7.33398 -16 20.001c-1.33301 57.333 46 92.333 142 105zM381.002 -11.002c-55.333 8.66699 -94.334 41.166 -117.001 97.499s-53.667 80.833 -93 73.5s-69.166 -37.333 -89.499 -90s-38 -74.834 -53 -66.501s-8.5 46.833 19.5 115.5
s72.5 105.334 133.5 110.001s103.167 -24.833 126.5 -88.5s50 -96.667 80 -99s56.833 20.167 80.5 67.5s44 69.833 61 67.5s9.5 -35.666 -22.5 -99.999s-74 -93.5 -126 -87.5z" />
    <glyph glyph-name="lessequal" unicode="&#x2264;" horiz-adv-x="934" 
d="M180 117c89.333 -8.66699 228.832 -16.668 418.499 -24.001s284.5 -8 284.5 -2c14 -6 24.333 -17.333 31 -34c-27.333 -28 -52.5 -42 -75.5 -42s-52 2.33301 -87 7s-59.667 7 -74 7s-150.166 4 -407.499 12h-40h-56c-14 0 -42.333 -2.33301 -85 -7
c-2.66699 0 -16.167 2.83301 -40.5 8.5s-35.833 16.834 -34.5 33.501c0 22 55.333 35.667 166 41zM835.999 851.999c50.667 -23.333 -38.167 -92.1641 -266.5 -206.497s-380.5 -188.5 -456.5 -222.5c275.333 -76 464.5 -120.833 567.5 -134.5s167.5 -32.834 193.5 -57.501
c-14 -32.667 -71.5 -42.834 -172.5 -30.501s-242.667 40.166 -425 83.499s-276.833 84.333 -283.5 123s109.333 114.5 348 227.5l415.5 196.5c38.333 18 64.833 25 79.5 21z" />
    <glyph glyph-name="greaterequal" unicode="&#x2265;" horiz-adv-x="1097" 
d="M207 155c186 -6.66699 373.166 -15.001 561.499 -25.001s282.5 -12 282.5 -6c14 -6 24.333 -17.333 31 -34c-27.333 -28 -52.5 -42 -75.5 -42s-52 2.33301 -87 7s-76.667 8.16699 -125 10.5s-214.166 6.83301 -497.499 13.5h-40h-56c-14 0 -42.333 -2.33301 -85 -7
c-2.66699 0 -16.167 2.83301 -40.5 8.5s-35.833 16.834 -34.5 33.501c0 22 55.333 35.667 166 41zM214.999 973.999c127.333 -74 296.665 -167.672 507.998 -281.005s321.333 -180.666 330 -201.999c-4.66699 -34 -61.5 -71.667 -170.5 -113s-251.5 -69.5 -427.5 -84.5
s-287.167 -18.167 -333.5 -9.5s-76.833 25.334 -91.5 50.001c0 14.667 46 21.667 138 21s181.833 5.33301 269.5 18s187.834 28 300.501 46s174.334 44.667 185.001 80c-56.667 28.667 -139.667 66.334 -249 113.001s-219.5 105.834 -330.5 177.501
s-171 116.334 -180 134.001s-7.5 30.5 4.5 38.5s27.667 12 47 12z" />
    <glyph glyph-name="uniF001" unicode="&#xf001;" horiz-adv-x="733" 
d="M432 1214c126 -1.33301 182.5 -57.665 169.5 -168.998s-44.167 -213.166 -93.5 -305.499l-112 -213.5c-7.33301 -71.333 -2 -130 16 -176c116 94.667 210.333 138.667 283 132l21 -41c4 -6.66699 -16.667 -17.334 -62 -32.001s-93.166 -45.167 -143.499 -91.5
s-74.5 -77 -72.5 -92s5.5 -74.833 10.5 -179.5s3.16699 -187.334 -5.5 -248.001c-17.333 -70.667 -62.833 -99.334 -136.5 -86.001s-124 53.666 -151 120.999s-34.333 130.166 -22 188.499s35.5 107.833 69.5 148.5s68 72.834 102 96.501s37 86.5 9 188.5
c-22.667 -54.667 -36.667 -96 -42 -124s-34.833 -80 -88.5 -156s-139.167 -110.333 -256.5 -103c-12.667 10 -7.66699 28 15 54c142 23.333 233.167 91.833 273.5 205.5s64.833 193.167 73.5 238.5c0 53.333 -4.83301 117 -14.5 191s-11.834 153.833 -6.50098 239.5
s60 156.834 164 213.501zM352 800.001l14 -209.999c72 172.667 117 290.667 135 354s20.5 112.166 7.5 146.499s-43.833 38.5 -92.5 12.5c-40 -25.333 -63.167 -63.5 -69.5 -114.5s-4.5 -113.833 5.5 -188.5zM254 116.002c-22.667 -39.333 -36.499 -84.998 -41.499 -136.998
s2.33301 -95 22 -129s48.167 -54.333 85.5 -61s54.333 61.666 51 204.999c0 52 -0.333008 102.667 -1 152s-12.834 69.666 -36.501 60.999s-50.167 -39 -79.5 -91zM638.001 469.004l60.999 -0.000976562c4 -36.667 7.16699 -83 9.5 -139s3.5 -97.167 3.5 -123.5
s0.333008 -42.666 1 -48.999s5.33398 -57.833 14.001 -154.5h-20c-40 0 -67.667 79.667 -83 239c0 28 -4.33301 82.667 -13 164c6 42 15 63 27 63z" />
    <glyph glyph-name="uniF001" unicode="&#xfb01;" horiz-adv-x="733" 
d="M432 1214c126 -1.33301 182.5 -57.665 169.5 -168.998s-44.167 -213.166 -93.5 -305.499l-112 -213.5c-7.33301 -71.333 -2 -130 16 -176c116 94.667 210.333 138.667 283 132l21 -41c4 -6.66699 -16.667 -17.334 -62 -32.001s-93.166 -45.167 -143.499 -91.5
s-74.5 -77 -72.5 -92s5.5 -74.833 10.5 -179.5s3.16699 -187.334 -5.5 -248.001c-17.333 -70.667 -62.833 -99.334 -136.5 -86.001s-124 53.666 -151 120.999s-34.333 130.166 -22 188.499s35.5 107.833 69.5 148.5s68 72.834 102 96.501s37 86.5 9 188.5
c-22.667 -54.667 -36.667 -96 -42 -124s-34.833 -80 -88.5 -156s-139.167 -110.333 -256.5 -103c-12.667 10 -7.66699 28 15 54c142 23.333 233.167 91.833 273.5 205.5s64.833 193.167 73.5 238.5c0 53.333 -4.83301 117 -14.5 191s-11.834 153.833 -6.50098 239.5
s60 156.834 164 213.501zM352 800.001l14 -209.999c72 172.667 117 290.667 135 354s20.5 112.166 7.5 146.499s-43.833 38.5 -92.5 12.5c-40 -25.333 -63.167 -63.5 -69.5 -114.5s-4.5 -113.833 5.5 -188.5zM254 116.002c-22.667 -39.333 -36.499 -84.998 -41.499 -136.998
s2.33301 -95 22 -129s48.167 -54.333 85.5 -61s54.333 61.666 51 204.999c0 52 -0.333008 102.667 -1 152s-12.834 69.666 -36.501 60.999s-50.167 -39 -79.5 -91zM638.001 469.004l60.999 -0.000976562c4 -36.667 7.16699 -83 9.5 -139s3.5 -97.167 3.5 -123.5
s0.333008 -42.666 1 -48.999s5.33398 -57.833 14.001 -154.5h-20c-40 0 -67.667 79.667 -83 239c0 28 -4.33301 82.667 -13 164c6 42 15 63 27 63z" />
    <glyph glyph-name="uniF002" unicode="&#xf002;" horiz-adv-x="820" 
d="M454 1242c126 -1.33301 182.501 -57.665 169.501 -168.998s-44.167 -213.166 -93.5 -305.499l-112 -213.5c-7.33301 -71.333 0 -137.666 22 -198.999c116 50.667 209.333 72.667 280 66l-13 -49c4 -6.66699 -10.5 -16 -43.5 -28s-75.667 -26.333 -128 -43
s-77.5 -32.5 -75.5 -47.5s5.5 -74.833 10.5 -179.5s3.16699 -187.334 -5.5 -248.001c-17.333 -70.667 -62.833 -99.334 -136.5 -86.001s-124 53.666 -151 120.999s-34.333 130.166 -22 188.499s35.333 112.166 69 161.499s67.667 81.5 102 96.5s41.833 78.833 22.5 191.5
c-56 -106.667 -104.167 -188.5 -144.5 -245.5s-124.5 -93.833 -252.5 -110.5c-24.667 16.667 -25.667 38 -3 64c123.333 23.333 212.333 83 267 179s92 157.667 112 185c-11.333 71.333 -21.833 144 -31.5 218s-11.834 153.833 -6.50098 239.5s60 156.834 164 213.501z
M374.001 828.001l14 -209.999c72 172.667 117 290.667 135 354s20.5 112.166 7.5 146.499s-43.833 38.5 -92.5 12.5c-40 -25.333 -63.167 -63.5 -69.5 -114.5s-4.5 -113.833 5.5 -188.5zM276.001 144.002c-22.667 -39.333 -36.499 -84.998 -41.499 -136.998
s2.33301 -95 22 -129s48.167 -54.333 85.5 -61s54.333 61.666 51 204.999c0 52 -0.333008 102.667 -1 152s-12.834 69.666 -36.501 60.999s-50.167 -39 -79.5 -91zM728.002 1223c36.667 -12 55.002 -41.667 55.002 -89c5.33301 -146.667 6.66602 -275.5 3.99902 -386.5
s-7.16699 -207.167 -13.5 -288.5s-8.83301 -133.5 -7.5 -156.5s1.66602 -51.167 0.999023 -84.5s6.33301 -52.333 21 -57l-28 -163h-24c-18 -1.33301 -33.333 93.667 -46 285l24 553c-5.33301 197.333 -13.333 296 -24 296c0 22 12.667 52.333 38 91z" />
    <glyph glyph-name="uniF002" unicode="&#xfb02;" horiz-adv-x="820" 
d="M454 1242c126 -1.33301 182.501 -57.665 169.501 -168.998s-44.167 -213.166 -93.5 -305.499l-112 -213.5c-7.33301 -71.333 0 -137.666 22 -198.999c116 50.667 209.333 72.667 280 66l-13 -49c4 -6.66699 -10.5 -16 -43.5 -28s-75.667 -26.333 -128 -43
s-77.5 -32.5 -75.5 -47.5s5.5 -74.833 10.5 -179.5s3.16699 -187.334 -5.5 -248.001c-17.333 -70.667 -62.833 -99.334 -136.5 -86.001s-124 53.666 -151 120.999s-34.333 130.166 -22 188.499s35.333 112.166 69 161.499s67.667 81.5 102 96.5s41.833 78.833 22.5 191.5
c-56 -106.667 -104.167 -188.5 -144.5 -245.5s-124.5 -93.833 -252.5 -110.5c-24.667 16.667 -25.667 38 -3 64c123.333 23.333 212.333 83 267 179s92 157.667 112 185c-11.333 71.333 -21.833 144 -31.5 218s-11.834 153.833 -6.50098 239.5s60 156.834 164 213.501z
M374.001 828.001l14 -209.999c72 172.667 117 290.667 135 354s20.5 112.166 7.5 146.499s-43.833 38.5 -92.5 12.5c-40 -25.333 -63.167 -63.5 -69.5 -114.5s-4.5 -113.833 5.5 -188.5zM276.001 144.002c-22.667 -39.333 -36.499 -84.998 -41.499 -136.998
s2.33301 -95 22 -129s48.167 -54.333 85.5 -61s54.333 61.666 51 204.999c0 52 -0.333008 102.667 -1 152s-12.834 69.666 -36.501 60.999s-50.167 -39 -79.5 -91zM728.002 1223c36.667 -12 55.002 -41.667 55.002 -89c5.33301 -146.667 6.66602 -275.5 3.99902 -386.5
s-7.16699 -207.167 -13.5 -288.5s-8.83301 -133.5 -7.5 -156.5s1.66602 -51.167 0.999023 -84.5s6.33301 -52.333 21 -57l-28 -163h-24c-18 -1.33301 -33.333 93.667 -46 285l24 553c-5.33301 197.333 -13.333 296 -24 296c0 22 12.667 52.333 38 91z" />
    <glyph glyph-name="NULL" horiz-adv-x="0" 
 />
    <glyph glyph-name="nonmarkingreturn" horiz-adv-x="508" 
 />
    <glyph glyph-name="Eth.001" horiz-adv-x="1272" 
 />
    <glyph glyph-name="Oslash.001" horiz-adv-x="1258" 
d="M628 1443l24.001 0.00390625c202 -10 343.833 -77.833 425.5 -203.5s101.667 -297.334 60 -515.001s-133.5 -408.334 -275.5 -572.001s-323.667 -230.834 -545 -201.501c-202 58.667 -306.333 202 -313 430c-22.667 273.333 28.666 516.166 153.999 728.499
s282 323.5 470 333.5zM116.001 489.004c-16.667 -282 87.5 -425.5 312.5 -430.5s399.5 148 523.5 459s128.167 534 12.5 669s-247.5 177.833 -395.5 128.5s-259.5 -153.333 -334.5 -312s-114.5 -330 -118.5 -514zM628.001 1443l24.001 0.00390625
c202 -10 343.833 -77.833 425.5 -203.5s101.667 -297.334 60 -515.001s-133.5 -408.334 -275.5 -572.001s-323.667 -230.834 -545 -201.501c-202 58.667 -306.333 202 -313 430c-22.667 273.333 28.666 516.166 153.999 728.499s282 323.5 470 333.5zM116.002 489.008
c-16.667 -282 87.5 -425.5 312.5 -430.5s399.5 148 523.5 459s128.167 534 12.5 669s-247.5 177.833 -395.5 128.5s-259.5 -153.333 -334.5 -312s-114.5 -330 -118.5 -514z" />
    <glyph glyph-name="Yacute.001" horiz-adv-x="769" 
d="M34 1309c37.333 -251.333 149.669 -476.334 337.002 -675.001c44 60.667 92 144 144 250s86.833 172.667 104.5 200s47.834 52.666 90.501 75.999c52.667 -5.33301 79 -32.666 79 -81.999c-78.667 -27.333 -150.5 -103.333 -215.5 -228s-111 -215.334 -138 -272.001
l-99 -202l-92 -182c-22.333 -43.333 -53 -117.666 -92 -222.999s-52.167 -177 -39.5 -215s27.667 -68.667 45 -92s8.66602 -47.666 -26.001 -72.999c-103.333 56 -132.333 152.167 -87 288.5s75.666 221.833 90.999 256.5s27.166 59.5 35.499 74.5s29.333 60.333 63 136
l99.5 217.5c-74.667 78 -140.5 161 -197.5 249s-102.5 171 -136.5 249s-52.667 146.333 -56 205c17.333 28 47.333 42 90 42zM625.003 1437l5.99902 -12c-22 -25.333 -155.667 -139.333 -401 -342c-16 6 -24 12 -24 18c8.66699 53.333 91.334 137.666 248.001 252.999
c76 52.667 133 80.334 171 83.001z" />
    <glyph glyph-name="hyphen" horiz-adv-x="953" 
d="M200.758 391.411c106.395 -13.9678 251.496 -27.1279 435.304 -39.4844c183.808 -12.3555 275.712 -13.6982 275.712 -4.02832c16.6738 -9.66992 25.4082 -32.7705 26.2021 -69.3008c-32.5537 -45.126 -62.5264 -67.6885 -89.9189 -67.6885
s-61.9307 3.76074 -103.615 11.2812s-71.0625 11.2812 -88.1338 11.2812s-136.765 6.98438 -359.08 20.9521h-47.6396h-66.6943c-16.6738 0 -50.418 -3.76074 -101.233 -11.2822c-3.17578 0 -19.2539 4.56641 -48.2344 13.6992s-39.1035 31.9639 -30.3701 68.4941
c0 35.4561 65.9004 57.4814 197.702 66.0762z" />
    <glyph glyph-name="Eth.002" horiz-adv-x="1272" 
 />
  </font>
</defs>
</svg>
